<?xml version="1.0" encoding="UTF-8"?>
<svg id="Layer_1" data-name="Layer 1" xmlns="http://www.w3.org/2000/svg" viewBox="0 0 612 612">
  <defs>
    <style>
      .cls-1, .cls-2, .cls-3, .cls-4, .cls-5, .cls-6, .cls-7, .cls-8, .cls-9, .cls-10 {
        stroke-linejoin: round;
      }

      .cls-1, .cls-2, .cls-3, .cls-4, .cls-5, .cls-7, .cls-8, .cls-9, .cls-10 {
        stroke: #273339;
      }

      .cls-1, .cls-2, .cls-11 {
        fill: #273339;
      }

      .cls-1, .cls-3, .cls-4, .cls-5, .cls-6, .cls-7, .cls-8, .cls-9, .cls-10 {
        stroke-linecap: round;
      }

      .cls-12 {
        isolation: isolate;
        opacity: .7;
      }

      .cls-12, .cls-13, .cls-14, .cls-11 {
        stroke-width: 0px;
      }

      .cls-12, .cls-5 {
        fill: #fff;
      }

      .cls-13 {
        fill: #646464;
      }

      .cls-14, .cls-3 {
        fill: #e07084;
      }

      .cls-4 {
        fill: #6a6a6a;
      }

      .cls-6 {
        stroke: #7e7e7e;
      }

      .cls-6, .cls-8, .cls-9, .cls-10 {
        fill: none;
      }

      .cls-7 {
        fill: #6b6c6c;
      }

      .cls-9 {
        stroke-width: 3px;
      }

      .cls-10 {
        stroke-width: 2px;
      }
    </style>
  </defs>
  <g id="freepik--background-simple--inject-344">
    <path class="cls-14" d="m419.07,99.89s-97.43-34.64-193.07,20.52c-95.64,55.16-143.86,164.65-185.36,252.41-41.5,87.75-17.62,176.9,55.43,217.58,73.04,40.69,122.66-19.29,225.09-22.23,102.43-2.94,129.97,11.77,214.97-46.14,85-57.91,100.36-194.51,33.31-295.57-67.05-101.06-150.36-126.57-150.36-126.57Z"/>
    <path class="cls-12" d="m419.07,99.89s-97.43-34.64-193.07,20.52c-95.64,55.16-143.86,164.65-185.36,252.41-41.5,87.75-17.62,176.9,55.43,217.58,73.04,40.69,122.66-19.29,225.09-22.23,102.43-2.94,129.97,11.77,214.97-46.14,85-57.91,100.36-194.51,33.31-295.57-67.05-101.06-150.36-126.57-150.36-126.57Z"/>
  </g>
  <g id="freepik--Plant--inject-344">
    <path class="cls-9" d="m99.44,294.69s.68,85.74.68,108.38-.68,158.25-.68,158.25"/>
    <polygon class="cls-14" points="150.89 316.64 129.62 298.81 189.3 305.67 136.48 288.52 190.67 278.92 129.62 278.92 176.95 243.24 123.45 270 154.32 217.18 113.16 264.51 127.56 195.23 100.81 259.71 98.07 187.69 92.59 261.08 63.4 196.24 83.67 267.26 40 219.62 78.17 278.23 24.13 239.67 74.75 288.52 17.45 257.21 69.95 292.64 22.46 286.45 68.57 299.49 31.65 305.67 69.95 304.29 47.31 319.39 100.81 304.99 150.89 316.64"/>
    <path class="cls-9" d="m78.85,381.13s-2.05,17.83-.68,24.69c1.45,7.91,2.14,15.95,2.05,24,0,8.92.69,46.82.69,52.99s-.69,58.62-.69,63.43v16.45"/>
    <path class="cls-9" d="m80.92,475.96s2.75-52.31,5.48-59.17c2.73-6.85,4.81-4.8,5.49-13.08.68-8.28.68-11.65,2.05-14.39,1.09-2.45,2.01-4.97,2.75-7.55l1.31-5.49"/>
    <polygon class="cls-14" points="129.62 398.95 108.36 381.11 168.03 387.98 115.21 370.84 169.41 361.24 108.36 361.24 155.69 325.56 102.19 352.32 133.05 299.49 91.89 346.82 106.29 277.55 79.55 342.02 76.8 270 71.32 343.4 50.06 276.86 62.4 349.57 24.67 295.37 56.91 360.54 7.42 328.21 53.48 370.84 2.41 349.92 48.68 374.95 .75 370.81 47.31 381.81 14.94 389.18 48.68 386.61 26.04 401.7 79.55 387.3 129.62 398.95"/>
    <path class="cls-2" d="m60.07,543.26l-14.69,24.48c-2.25,3.75-2.89,8.26-1.75,12.49l6.54,24.31c.95,3.55,4.17,6.01,7.85,6h66.88c3.67.01,6.9-2.45,7.85-6l6.54-24.31c1.14-4.23.51-8.74-1.75-12.49l-14.67-24.48c-1.01-1.67-2.81-2.69-4.76-2.69h-53.23c-1.96-.02-3.79,1.01-4.8,2.69Z"/>
  </g>
  <g id="freepik--Shelf--inject-344">
    <rect class="cls-5" x="172.21" y="161.69" width="10.44" height="14.48"/>
    <rect class="cls-3" x="175.23" y="150.91" width="4.71" height="10.78"/>
    <rect class="cls-5" x="157.06" y="161.69" width="10.44" height="14.48"/>
    <rect class="cls-3" x="160.08" y="150.91" width="4.71" height="10.78"/>
    <rect class="cls-1" x="188.53" y="161.69" width="10.44" height="14.48"/>
    <rect class="cls-3" x="191.56" y="150.91" width="4.71" height="10.78"/>
    <rect class="cls-5" x="221.03" y="161.69" width="10.44" height="14.48"/>
    <rect class="cls-3" x="224.06" y="150.91" width="4.71" height="10.78"/>
    <rect class="cls-5" x="205.88" y="161.69" width="10.44" height="14.48"/>
    <rect class="cls-3" x="208.92" y="150.91" width="4.71" height="10.78"/>
    <rect class="cls-5" x="237.35" y="161.69" width="10.44" height="14.48"/>
    <rect class="cls-3" x="240.38" y="150.91" width="4.71" height="10.78"/>
    <rect class="cls-5" x="269.85" y="161.69" width="10.44" height="14.48"/>
    <rect class="cls-3" x="272.88" y="150.91" width="4.71" height="10.78"/>
    <rect class="cls-1" x="254.7" y="161.69" width="10.44" height="14.48"/>
    <rect class="cls-3" x="257.74" y="150.91" width="4.71" height="10.78"/>
    <rect class="cls-5" x="286.18" y="161.69" width="10.44" height="14.48"/>
    <rect class="cls-3" x="289.2" y="150.91" width="4.71" height="10.78"/>
    <rect class="cls-1" x="318.68" y="161.69" width="10.44" height="14.48"/>
    <rect class="cls-3" x="321.7" y="150.91" width="4.71" height="10.78"/>
    <rect class="cls-5" x="303.54" y="161.69" width="10.44" height="14.48"/>
    <rect class="cls-3" x="306.56" y="150.91" width="4.71" height="10.78"/>
    <rect class="cls-5" x="335" y="161.69" width="10.44" height="14.48"/>
    <rect class="cls-3" x="338.04" y="150.91" width="4.71" height="10.78"/>
    <rect class="cls-5" x="367.5" y="161.69" width="10.44" height="14.48"/>
    <rect class="cls-3" x="370.54" y="150.91" width="4.71" height="10.78"/>
    <rect class="cls-5" x="352.36" y="161.69" width="10.44" height="14.48"/>
    <rect class="cls-1" x="355.39" y="150.91" width="4.71" height="10.78"/>
    <rect class="cls-5" x="383.83" y="161.69" width="10.44" height="14.48"/>
    <rect class="cls-1" x="386.86" y="150.91" width="4.71" height="10.78"/>
    <rect class="cls-5" x="416.32" y="161.69" width="10.44" height="14.48"/>
    <rect class="cls-3" x="419.36" y="150.91" width="4.71" height="10.78"/>
    <rect class="cls-5" x="401.18" y="161.69" width="10.44" height="14.48"/>
    <rect class="cls-1" x="404.21" y="150.91" width="4.71" height="10.78"/>
    <rect class="cls-5" x="432.66" y="161.69" width="10.44" height="14.48"/>
    <rect class="cls-1" x="435.68" y="150.91" width="4.71" height="10.78"/>
    <rect class="cls-5" x="465.16" y="161.69" width="10.44" height="14.48"/>
    <rect class="cls-3" x="468.18" y="150.91" width="4.71" height="10.78"/>
    <rect class="cls-5" x="450.01" y="161.69" width="10.44" height="14.48"/>
    <rect class="cls-3" x="453.04" y="150.91" width="4.71" height="10.78"/>
    <rect class="cls-1" x="481.48" y="161.69" width="10.44" height="14.48"/>
    <rect class="cls-3" x="484.51" y="150.91" width="4.71" height="10.78"/>
    <rect class="cls-5" x="139.96" y="174.53" width="366.81" height="6.08"/>
    <rect class="cls-5" x="172.21" y="120.7" width="10.44" height="14.48"/>
    <rect class="cls-1" x="175.23" y="109.94" width="4.71" height="10.78"/>
    <rect class="cls-5" x="157.06" y="120.7" width="10.44" height="14.48"/>
    <rect class="cls-3" x="160.08" y="109.94" width="4.71" height="10.78"/>
    <rect class="cls-1" x="188.53" y="120.7" width="10.44" height="14.48"/>
    <rect class="cls-3" x="191.56" y="109.94" width="4.71" height="10.78"/>
    <rect class="cls-5" x="221.03" y="120.7" width="10.44" height="14.48"/>
    <rect class="cls-1" x="224.06" y="109.94" width="4.71" height="10.78"/>
    <rect class="cls-5" x="205.88" y="120.7" width="10.44" height="14.48"/>
    <rect class="cls-3" x="208.92" y="109.94" width="4.71" height="10.78"/>
    <rect class="cls-5" x="237.35" y="120.7" width="10.44" height="14.48"/>
    <rect class="cls-3" x="240.38" y="109.94" width="4.71" height="10.78"/>
    <rect class="cls-5" x="269.85" y="120.7" width="10.44" height="14.48"/>
    <rect class="cls-3" x="272.88" y="109.94" width="4.71" height="10.78"/>
    <rect class="cls-1" x="254.7" y="120.7" width="10.44" height="14.48"/>
    <rect class="cls-3" x="257.74" y="109.94" width="4.71" height="10.78"/>
    <rect class="cls-5" x="286.18" y="120.7" width="10.44" height="14.48"/>
    <rect class="cls-3" x="289.2" y="109.94" width="4.71" height="10.78"/>
    <rect class="cls-5" x="318.68" y="120.7" width="10.44" height="14.48"/>
    <rect class="cls-3" x="321.7" y="109.94" width="4.71" height="10.78"/>
    <rect class="cls-1" x="303.54" y="120.7" width="10.44" height="14.48"/>
    <rect class="cls-3" x="306.56" y="109.94" width="4.71" height="10.78"/>
    <rect class="cls-5" x="335" y="120.7" width="10.44" height="14.48"/>
    <rect class="cls-3" x="338.04" y="109.94" width="4.71" height="10.78"/>
    <rect class="cls-5" x="367.5" y="120.7" width="10.44" height="14.48"/>
    <rect class="cls-3" x="370.54" y="109.94" width="4.71" height="10.78"/>
    <rect class="cls-1" x="352.36" y="120.7" width="10.44" height="14.48"/>
    <rect class="cls-3" x="355.39" y="109.94" width="4.71" height="10.78"/>
    <rect class="cls-5" x="383.83" y="120.7" width="10.44" height="14.48"/>
    <rect class="cls-3" x="386.86" y="109.94" width="4.71" height="10.78"/>
    <rect class="cls-5" x="416.32" y="120.7" width="10.44" height="14.48"/>
    <rect class="cls-3" x="419.36" y="109.94" width="4.71" height="10.78"/>
    <rect class="cls-1" x="401.18" y="120.7" width="10.44" height="14.48"/>
    <rect class="cls-3" x="404.21" y="109.94" width="4.71" height="10.78"/>
    <rect class="cls-5" x="432.66" y="120.7" width="10.44" height="14.48"/>
    <rect class="cls-3" x="435.68" y="109.94" width="4.71" height="10.78"/>
    <rect class="cls-5" x="465.16" y="120.7" width="10.44" height="14.48"/>
    <rect class="cls-1" x="468.18" y="109.94" width="4.71" height="10.78"/>
    <rect class="cls-5" x="450.01" y="120.7" width="10.44" height="14.48"/>
    <rect class="cls-3" x="453.04" y="109.94" width="4.71" height="10.78"/>
    <rect class="cls-5" x="481.48" y="120.7" width="10.44" height="14.48"/>
    <rect class="cls-3" x="484.51" y="109.94" width="4.71" height="10.78"/>
    <rect class="cls-5" x="139.96" y="133.54" width="366.81" height="6.08"/>
    <path class="cls-14" d="m425.4,60.27s2.42-4.56-2.42-11.55c-3.27-4.63-6.86-9.03-10.74-13.16,0,0,10.2,3.75,13.16,6.98s5.64,7.25,5.38,6.43-4.3-8.32-8.59-16.91c-4.29-8.59-8.33-16.92-8.33-16.92,3.7,4.84,7.74,9.42,12.08,13.69,4.14,4.13,7.67,8.83,10.46,13.97,0,0-2.94-15.55-2.94-22.56s1.31-18.79,1.31-18.79c0,0,4.83,11.77,5.91,20.4s1.31,18.31,1.31,18.31c0,0,.54-2.69,2.69-11.77,1.91-7.29,4.25-14.46,6.98-21.49,0,0,.54,10.21.26,20.42-.27,10.2-4.5,22.17-4.5,22.17,0,0,4.03-4.58,7.25-8.87,1.66-2.15,3.19-4.39,4.58-6.72,0,0-6.98,16.66-7.85,18.53s-2.42,8.07-2.42,8.07l-23.58-.24Z"/>
    <rect class="cls-5" x="422.58" y="60.19" width="28.56" height="9.65"/>
    <polygon class="cls-5" points="447.69 93.33 426.03 93.33 415.2 69.87 458.52 69.87 447.69 93.33"/>
    <path class="cls-14" d="m476.59,67.8s-4.47-5.69-4.47-9.15,3.41,1.58,3.41,1.58c0,0-7.26-13.35-6.66-18.88s6.09,9.55,6.09,9.55c0,0-1.83-30.86,1.22-29.84,3.05,1.02,6.91,30.08,6.91,31.87s2.62-12.79,4.67-8.53c2.05,4.26,2.03,14.39,2.03,14.39,0,0,2.62-15.43,4.67-10.15,2.05,5.28-2.43,19.28-2.43,19.28"/>
    <rect class="cls-8" x="472.39" y="72.42" width="24.72" height="20.51"/>
    <path class="cls-5" d="m497.31,79.57v-11.69h-24.98v13.35c0,1.65,1.34,2.98,2.98,2.98h.22c1.65,0,2.99-1.32,2.99-2.97,0,0,0,0,0-.01v-1.66h.16v1.7c0,1.65,1.35,2.98,2.99,2.98h.16c1.65,0,2.98-1.34,2.98-2.98v-1.7h.17v1.7c0,1.65,1.34,2.98,2.98,2.98h.16c1.65,0,2.99-1.32,2.99-2.97,0,0,0,0,0-.01v-1.7h.1v1.7c0,1.65,1.35,2.98,2.99,2.98h.16c1.65,0,2.98-1.34,2.98-2.98v-1.7h-.05Z"/>
    <polygon class="cls-5" points="224.81 60.59 214.17 93.01 236.46 93.01 234.94 60.59 224.81 60.59"/>
    <polygon class="cls-5" points="268.49 30.72 215.31 30.72 230.26 93.01 283.44 93.01 268.49 30.72"/>
    <polygon class="cls-5" points="262.28 40.85 226.39 40.85 236.47 82.88 272.36 82.88 262.28 40.85"/>
    <rect class="cls-5" x="139.96" y="92.57" width="366.81" height="6.08"/>
  </g>
  <g id="freepik--Lamp--inject-344">
    <path class="cls-11" d="m281.08,387.55c-1.65,0-3.03-1.23-3.24-2.86l-17.56-136.2c-.22-1.81,1.06-3.45,2.86-3.67s3.45,1.06,3.67,2.86h0l17.51,136.18c.22,1.79-1.05,3.43-2.84,3.66l-.41.03Z"/>
    <path class="cls-11" d="m264.37,254.31c-1.08.09-2.04-.71-2.13-1.79-.09-1.08.71-2.04,1.79-2.13l58.21-37.81c1.08-.18,2.11.54,2.3,1.63.18,1.08-.54,2.11-1.63,2.3l-58.21,37.81h-.33Z"/>
    <path class="cls-11" d="m266.07,264.55c-1.08.09-2.03-.71-2.13-1.8s.71-2.03,1.8-2.13l58.2-37.81c1.08-.12,2.04.66,2.16,1.74.1.98-.53,1.89-1.49,2.12l-58.2,37.82-.34.05Z"/>
    <polygon class="cls-11" points="323.42 211.97 312.34 229.89 331.96 231.59 333.66 227.33 323.42 211.97"/>
    <path class="cls-11" d="m331.96,232.25h-.07l-19.62-1.7c-.23-.03-.42-.16-.52-.37-.11-.19-.11-.43,0-.63l11.09-17.92c.12-.19.33-.31.55-.31.22,0,.42.11.55.29l10.24,15.35c.1.19.1.42,0,.61l-1.7,4.26c-.09.22-.29.38-.52.41Zm-18.51-2.92l18.07,1.57,1.45-3.54-9.48-14.22-10.04,16.19Z"/>
    <path class="cls-11" d="m369.6,258.91l-11.25-24.76c0-2.9-6.12-5.23-13.65-5.23s-13.65,2.34-13.65,5.23l-11.14,24.76c-.93.89-1.48,2.1-1.54,3.39,0,5.62,11.77,10.17,26.44,10.17s26.44-4.55,26.44-10.17c-.09-1.3-.68-2.51-1.65-3.39Z"/>
    <path class="cls-11" d="m344.75,273.13c-15.2,0-27.1-4.76-27.1-10.83.05-1.42.64-2.76,1.65-3.75l11.16-24.55c.17-3.28,6.26-5.74,14.29-5.74s14.11,2.46,14.29,5.74l11.16,24.55c1.01,1,1.6,2.34,1.65,3.75,0,6.07-11.9,10.83-27.1,10.83Zm0-43.56c-7.66,0-13,2.42-13,4.59.02.09.02.18,0,.27l-11.25,24.74c-.02.07-.06.12-.12.17-.82.78-1.31,1.83-1.37,2.96,0,5.17,11.77,9.52,25.79,9.52s25.79-4.36,25.79-9.52c-.07-1.12-.56-2.18-1.37-2.96-.05-.05-.09-.1-.12-.17l-11.27-24.74c-.02-.09-.02-.18,0-.27-.08-2.17-5.43-4.59-13.08-4.59Z"/>
    <polygon class="cls-11" points="333.66 210.27 331.09 234.15 358.4 234.15 355.84 210.27 333.66 210.27"/>
    <path class="cls-11" d="m358.4,234.81h-27.31c-.19,0-.36-.08-.48-.22-.12-.13-.18-.32-.16-.5l2.52-23.89c.05-.33.32-.57.65-.58h22.23c.33,0,.61.25.65.58l2.55,23.89c.02.18-.03.36-.16.5-.13.15-.32.23-.51.22Zm-26.57-1.31h25.84l-2.46-22.57h-20.93l-2.46,22.57Z"/>
    <path class="cls-13" d="m355.84,210.27c0,2.35-4.97,4.26-11.09,4.26s-11.09-1.91-11.09-4.26,4.97-4.26,11.09-4.26,11.09,1.91,11.09,4.26Z"/>
    <path class="cls-11" d="m344.75,215.19c-5.69,0-11.77-1.73-11.77-4.92s6.06-4.92,11.77-4.92,11.77,1.71,11.77,4.92-6.08,4.92-11.77,4.92Zm0-8.53c-6.15,0-10.46,1.9-10.46,3.61s4.29,3.61,10.46,3.61,10.46-1.91,10.46-3.61-4.32-3.61-10.46-3.61Z"/>
    <path class="cls-11" d="m284.9,373.53l-10.38,18.61,5.34,3.82c1.5,1.07,3.31,1.65,5.15,1.65h0c2.7,0,5.25-1.23,6.93-3.33l1.71-2.13-5.47-17.5-3.28-1.11Z"/>
    <path class="cls-11" d="m285.01,398.23c-1.99,0-3.92-.62-5.53-1.78l-5.35-3.81c-.27-.19-.36-.56-.2-.85l10.38-18.6c.15-.28.48-.4.78-.3l3.28,1.1c.2.07.35.22.42.42l5.47,17.5c.06.21.02.43-.12.6l-1.71,2.14c-1.8,2.26-4.54,3.57-7.43,3.57Zm-9.57-6.32l4.87,3.48c3.55,2.54,8.47,1.86,11.19-1.56l1.49-1.86-5.23-16.84-2.46-.82-9.86,17.6Z"/>
    <path class="cls-11" d="m287.06,381.11c-.92,0-1.72-.64-1.92-1.54l-11.94-54.59c-.24-1.06-3.48-29.96-2.42-30.2s6.03,28.3,6.25,29.36l11.94,54.59c.24,1.06-.43,2.11-1.49,2.34,0,0,0,0,0,0l-.42.04Z"/>
    <path class="cls-11" d="m322.51,216.5c-.72,0-1.38-.4-1.73-1.03-.14-.27-3.6-6.79-1.67-12.08.89-2.41,2.81-4.3,5.23-5.17,2.49-1.16,5.37-1.13,7.85.07,4.38,2.24,5.83,7.85,5.89,8.1.26,1.05-.37,2.12-1.43,2.38-1.05.26-2.12-.37-2.38-1.43,0,0-1.09-4.15-3.92-5.56-1.46-.66-3.13-.63-4.56.08-1.38.46-2.48,1.51-3.01,2.86-1.1,3.02.67,7.44,1.44,8.89.49.94.13,2.1-.8,2.62-.27.16-.58.26-.9.27Z"/>
  </g>
  <g id="freepik--Table--inject-344">
    <rect class="cls-5" x="274.11" y="380.23" width="10.44" height="14.48"/>
    <rect class="cls-3" x="277.15" y="369.45" width="4.71" height="10.78"/>
    <rect class="cls-5" x="258.97" y="380.23" width="10.44" height="14.48"/>
    <rect class="cls-3" x="262" y="369.45" width="4.71" height="10.78"/>
    <rect class="cls-5" x="290.43" y="380.23" width="10.44" height="14.48"/>
    <rect class="cls-3" x="293.47" y="369.45" width="4.71" height="10.78"/>
    <rect class="cls-1" x="320.62" y="397.59" width="13.08" height="200.75"/>
    <rect class="cls-5" x="235.61" y="394.32" width="183.1" height="6.54"/>
    <path class="cls-5" d="m315.84,593.85l-56.92,16.7h137.32l-56.92-16.7c-7.67-2.25-15.82-2.25-23.49,0Z"/>
  </g>
  <g id="freepik--Characters--inject-344">
    <path class="cls-5" d="m333.53,335.6s-4.97,8.53-6.75,10.31-23.1,2.13-24.85,2.84-45.15,36.25-47.98,38.03c-2.94,1.67-6.22,2.65-9.6,2.85-5.99-.43-39.46-35.9-39.46-35.9l18.13-27.73,26.31,32.7s44.78-14.92,47.62-16.7,8.89-7.85,13.16-8.53,11.01-1.07,12.79-1.78c1.78-.71,9.25-5.34,11.77-3.92,2.52,1.41-1.14,7.83-1.14,7.83Z"/>
    <path class="cls-5" d="m304.44,343.28s4.51-3.61,7.02-3.92,13.34,1.31,13.34,1.31l4.51-4.76"/>
    <path class="cls-5" d="m437.42,341.66s-33.13-15.69-45.77-21.79c-12.65-6.09-31.39-11.34-34.88-10.91-3.49.43-22.66,9.6-27.9,12.22-5.23,2.62-12.2,10.46-15.26,11.77-1.37.59-.89,1.09,0,1.45,1.59.63,3.35.7,4.98.2,2.17-.65,3.82,0,7.73-1.6,2.82-1.15,9.15-3.61,9.15-3.61,0,0-8.74,5.35-10.46,6.23s3.61.93,7.09-.81c2.21-1.11,5.99-3.99,10.79-5.3s11.33-6.54,14.39-9.15,7.4-1.31,7.4-1.31c0,0,25.72,23.54,29.65,26.59,3.92,3.05,17,15.26,21.8,19.19,4.8,3.92,26.59,17.43,33.13,13.95,6.54-3.48,8.72-12.22,5.66-20.06-3.06-7.85-17.5-17.05-17.5-17.05Z"/>
    <path class="cls-5" d="m329.79,322.83s-10.61,7.44-11.95,8.79c-.97,1-1.87,2.06-2.71,3.16"/>
    <path class="cls-5" d="m333.17,325.05s-7.53,5.3-9.7,6.32c-3.32,1.56-4.8,2.47-3.16,2.71"/>
    <line class="cls-8" x1="333.17" y1="330.24" x2="338.81" y2="327.76"/>
    <path class="cls-1" d="m437.42,341.66s-28.01-13.26-42.35-20.14l-9.29,16.67c3.92,3.56,7.26,6.45,8.47,7.39,3.92,3.06,17,15.26,21.8,19.19,4.8,3.92,26.59,17.43,33.13,13.95,6.54-3.48,8.72-12.22,5.66-20.06s-17.43-17-17.43-17Z"/>
    <path class="cls-1" d="m409.77,462.76c4.47,11.88,7.11,24.38,7.85,37.05,1.31,21.37,12.2,60.16,15.25,66.27s8.72,11.77,8.72,18.31-.43,25.28-.43,25.28h-4.8l-1.74-15.69s-8.29,1.75-11.34,6.54-5.7,9.78-5.7,9.78h-30.08s-2.62-2.8,3.92-5.41c6.54-2.62,10.02-7.85,12.2-11.34,2.18-3.49,11.77-25.72,11.77-27.03s-29.61-74.98-33.96-82.82c-4.36-7.85-9.15-23.97-2.18-28.34,6.97-4.37,26.16-8.28,26.16-8.28l4.37,15.69Z"/>
    <path class="cls-4" d="m403.23,425.27s-43.35,18.31-46.65,25.29c-6,12.69,52.31,121.18,52.31,121.18,0,0-11.34,20.06-13.51,23.54-2.17,3.48-3.06,4.37-6.11,6.11s-10.03,5.23-9.15,6.97c.88,1.74,33.57,0,33.57,0l13.08-13.94v15.25h3.92s4.36-21.79,5.66-26.59-9.59-17.88-9.59-17.88c0,0-10.91-37.48-14.83-56.24-3.92-18.75-7.4-33.13-8.28-35.74s-2.18-6.11-2.18-6.11l25.29-6.54-23.54-35.31Z"/>
    <path class="cls-1" d="m430.58,260.05c2.99,4.4,4.89,9.44,5.56,14.71.87,12.18-.12,24.41-2.94,36.29-3.6,15.69-8.5,19.29-6.21,34,2.29,14.71,18.31,40.54,17,44.14-1.31,3.6-5.89,4.9-6.54,9.15s2.62,9.15,2.62,9.15c0,0-34.66,16.02-38.58,17.98s21.58,38.91,21.58,38.91c0,0,15.37-5.56,47.74-6.87,32.37-1.31,54.27.65,63.76-17.33,9.48-17.98,3.27-32.7-.98-42.5-4.25-9.81-13.41-51.99-20.93-74.55-7.52-22.56-19.29-42.5-27.46-51.33-8.17-8.83-23.21-17.98-25.5-20.93-2.29-2.94-8.5-14.71-8.5-14.71l-20.6,23.87Z"/>
    <path class="cls-6" d="m498.68,421.66c1.44.65,2.88,1.31,4.32,2.05"/>
    <path class="cls-6" d="m450.39,407.83c14.06,1.94,27.84,5.53,41.07,10.7"/>
    <path class="cls-6" d="m461.14,405.32s28.09,0,50.56,9.15"/>
    <path class="cls-5" d="m459.68,250.89c-2.29-2.94-8.5-14.71-8.5-14.71l-20.6,23.87c2.99,4.4,4.89,9.44,5.56,14.71.87,12.18-.12,24.41-2.94,36.29-.24,1.05-.48,2.04-.73,2.99l8.58-1.31s7.52-26.54,17.98-35.69c9.05-7.91,15.69-8.5,18.95-11.89-7.77-6.42-16.58-12.07-18.3-14.27Z"/>
    <path class="cls-1" d="m426.66,169.16s-20.27-.33-33.02,8.83c-12.75,9.15-25.5,27.14-25.18,34.33.33,7.19,10.79,18.64,17.66,24.85,6.87,6.21,10.46,8.83,10.46,8.83,0,0-6.87-20.6,1.96-31.06s27.46-26.16,29.43-34.98-1.31-10.79-1.31-10.79Z"/>
    <path class="cls-5" d="m426.03,189.73s-23.7,3.92-32.25,16.45-6.54,22.38-4.6,25.67c1.94,3.3,3.92,7.85,1.97,11.85-1.95,4-5.92,7.85-1.97,9.87,2.7,1.16,5.71,1.39,8.55.65,0,0,9.15,16.45,15.13,16.45s23.7-14.48,23.7-14.48c0,0,16.45-3.92,17.12-26.33.67-22.4-15.14-38.18-27.65-40.15Z"/>
    <path class="cls-8" d="m397.6,235.84l1.07,5.73c2.58-.04,5.09-.89,7.15-2.45"/>
    <path class="cls-8" d="m394.73,230.13c1.88-3.44,6-4.97,9.66-3.58"/>
    <path class="cls-8" d="m404.75,256.23s4.29,1.07,6.8-3.92"/>
    <path class="cls-1" d="m409.33,201.85s-9.48,8.17-7.85,13.73c1.63,5.56,12.75,10.46,16.02,19.62,3.27,9.15,4.25,25.5,3.6,29.75s-.98,7.52-.98,7.52c0,0,2.29,0,22.23-4.9,19.94-4.9,36.29-24.85,36.29-24.85,0,0-9.36-23.65-15.25-44.57-5.89-20.93-20.39-26.71-33.79-29.32-13.41-2.62-35.64,20.27-39.56,30.73-3.92,10.46-1.63,17.33-1.63,17.33,0,0,12.42-11.77,20.93-15.04Z"/>
    <path class="cls-1" d="m459.03,289.25c-2.9,5.12-4.82,10.74-5.66,16.57-1.74,10.46-2.18,47.08-2.18,47.08,0,0-5.23,3.92-5.23,5.66v5.23s-18.31,5.68-28.33,8.29-52.76,7.85-58.42,9.59c-5.66,1.74-20.49,9.15-20.49,9.15,0,0-3.48,2.18-2.17,2.18h37.93s4.79.86,7.4-.44l6.98-3.48s24.4,2.17,33.13,3.48c8.72,1.31,30.51,3.06,44.47-.43,13.95-3.49,20.93-3.49,23.97-19.62,3.05-16.13,0-45.34.44-49.7.44-4.36,1.31-20.05,1.31-20.05"/>
    <path class="cls-6" d="m492.15,319.54c.08-3.2.12-5.11.12-5.11"/>
    <path class="cls-6" d="m449.37,395.63s31.66-2.62,36.76-11.23c3.35-5.68,4.93-33.82,5.64-52.64"/>
    <path class="cls-6" d="m458.06,294.52s-5.11,14.8-5.11,29.1-1.53,32.17-1.53,32.17c0,0-6.84,7.34-5.47,8,.82.44,1.35,1.28,1.39,2.21l-8.17,1.02"/>
    <path class="cls-5" d="m411.51,373.35c-15.38,2.77-47.46,6.84-52.31,8.33-5.66,1.74-20.49,9.15-20.49,9.15,0,0-7.55,3.53-6.24,3.53h37.93s8.85-.48,11.47-1.79l6.98-3.48s12.39,1.1,22.66,2.21v-17.96Z"/>
    <path class="cls-8" d="m337.91,393.94s15.84-7.53,19.41-8.32"/>
    <path class="cls-8" d="m345.43,393.94l17-7.53"/>
    <path class="cls-8" d="m353.75,394.34c3.65-1.25,7.22-2.7,10.7-4.36,2.77-1.58,5.55-2.77,5.55-2.77"/>
    <path class="cls-1" d="m426.33,563.7l-17.93,7.05.5.99s-11.34,20.06-13.51,23.54-3.06,4.37-6.11,6.11-10.03,5.23-9.15,6.97,33.57,0,33.57,0l13.08-13.94v15.25h3.92s4.36-21.79,5.66-26.59c1.31-4.8-9.59-17.88-9.59-17.88l-.44-1.5Z"/>
    <path class="cls-5" d="m245.68,454.92c-.1,1.44-4.83,20.31-4.93,28.46-.1,8.15-6.64,54.01-9.39,63.69-3.22,11.29-7.05,24.47-13.54,41.29-2.08,5.36,5.62,8.57,12.2,10.46,6.58,1.9,16.64,2.58,20.38,3.88,3.74,1.31,18.31,6.12,20.93,2.96s-10.82-9.91-15.69-16.02c-4.88-6.11-8.67-6.38-9.59-13.65s10.46-44.87,18.66-59.18c8.2-14.31,13.25-50.43,13.76-57.54.51-7.11-36.78-16.1-36.78-16.1l3.99,11.76Z"/>
    <path class="cls-5" d="m255.67,589.62c-4.85-6.11-8.67-6.38-9.59-13.65-.05-.6-.05-1.21,0-1.82-4.73.5-8.44,6-8.44,6l-15.09-4.67c-1.41,4.04-2.96,8.32-4.71,12.86-2.08,5.36,5.62,8.57,12.2,10.46,6.58,1.9,16.61,2.59,20.35,3.9,3.74,1.31,18.31,6.12,20.93,2.96s-10.82-9.97-15.65-16.03Z"/>
    <path class="cls-5" d="m248.91,420.48s27.97,7.85,36.82,11.77c8.84,3.92,12.52,6.19,12.07,19.12-.44,12.93-26.67,83.61-31.52,97.71-4.85,14.1-9.64,27.16-9.64,27.16,0,0,17,16.6,21.67,19.33,4.67,2.73,13.98,5.81,10.91,8.47-3.07,2.67-14.12,2.82-21.29,2.3-7.17-.52-20.86-3.92-28.43-5.4s-13.24-2.88-12.9-7.65c.34-4.77,8.96-24.34,11.42-31.85,1.79-5.45,8.17-20.06,8.38-36.37.21-16.31,1.22-36.89,4.81-46.73,3.6-9.83,6.46-16.33,6.46-16.33l-20.04-1.92,11.27-39.61Z"/>
    <line class="cls-8" x1="257.66" y1="461.98" x2="273.05" y2="461.64"/>
    <path class="cls-5" d="m278.3,595.53c-4.62-2.73-21.67-19.33-21.67-19.33,0,0-3.14,3.62-3.37,6.96-.1,1.77-.39,3.52-.86,5.23,0,0-11.64-4.33-21.64-8.08-2.18,5.68-4,10.8-4.16,12.95-.34,4.77,5.32,6.15,12.9,7.65,7.57,1.5,21.27,4.89,28.43,5.4,7.17.51,18.22.35,21.29-2.3,3.07-2.65-6.3-5.74-10.91-8.47Z"/>
    <path class="cls-7" d="m214.06,274s8.15,21.55,11.02,31.14c2.88,9.59,10.06,14.84,7.66,26.34-2.39,11.5-13.9,21.57-13.9,21.57l-12.37,51.54,48.53,16.75-13.58,49.83s-34.5-7.18-49.34-7.18-47.43,1.39-65.14-2.39c-17.71-3.78-28.77-19.62-28.77-40.73s11.5-34,18.19-42.64,21.97-34.29,21.97-34.29c0,0,3.83-32.09,3.83-44.07s4.3-28.26,10.54-36.88c6.24-8.62,16.77-11.02,25.87-11.51,9.1-.48,29.26,7.68,35.48,22.52Z"/>
    <path class="cls-8" d="m161.26,342.02c10.51,1.14,21.14-.21,31.03-3.92"/>
    <path class="cls-8" d="m151.19,340.28s1.31.37,3.53.8"/>
    <path class="cls-8" d="m161.46,351.1s14.58.5,27.66-5.41"/>
    <path class="cls-8" d="m156.08,400.48c5.26-1.55,10.71-2.33,16.19-2.3,11.9.54,27.6,4.87,27.6,4.87"/>
    <path class="cls-8" d="m143.59,404.67s2.96-1.23,7.25-2.62"/>
    <path class="cls-8" d="m161.99,390.61s13.52-4.33,29.77,6.54"/>
    <path class="cls-5" d="m231.78,182.51c19.81,5.96,26.35,21.55,26.35,21.55,0,0,4.79,12.46,4.32,21.08-.47,8.62-7.66,17.25-8.15,20.11s.48,10.54.48,13.42-2.41,3.83-5.23,3.35c-1.66-.26-3.27-.74-4.8-1.44-3.35,4.71-7.21,9.05-11.5,12.93-4.3,3.6-9.43.99-14.14-2.62,0,0-5.02,4.96-5.02,11.65-.03,3.88.45,7.74,1.44,11.5,0,0-16.32-14.78-22.49-24.36-6.17-9.59-6.23-24.38-6.23-24.43,0-4.63,2.8-9.43,2.62-14.39-.22-7.85-3.16-15.2-1.18-23.04,1.49-5.5,4.11-10.63,7.69-15.05,8.87-11.09,22.47-14.29,35.83-10.27Z"/>
    <path class="cls-1" d="m214.06,262.02c-1.91-4.79-3.35-10.06-3.35-10.06,0,0-1.44,11.5.47,17.25.98,2.94,2.34,6.63,3.43,9.53.85-2.93,2.39-5.62,4.47-7.85-2.01-2.76-3.69-5.74-5.02-8.88Z"/>
    <path class="cls-8" d="m250.24,242.45l-2.39,4.79s-5.75-2.39-6.71-4.32"/>
    <path class="cls-10" d="m254.08,238.13s0-5.75-9.59-5.75"/>
    <path class="cls-1" d="m258.13,204.06s-6.54-15.59-26.35-21.55c-13.37-4.03-26.98-.82-35.87,10.21-3.58,4.41-6.2,9.53-7.69,15.01-1.99,7.85.95,15.2,1.18,23.04.02,1.81-.23,3.61-.72,5.35,6.2.77,15.82-2.03,23.54-8.63,3.88,1.34,8.07,1.47,12.02.38,13.37-4.32,8.85-18.49,26.09-19.45,8.11-.46,7.08-.16,10.07,2.41-1.16-3.9-2.26-6.77-2.26-6.77Z"/>
    <path class="cls-5" d="m216.45,228.78s-.59-9.43-7.04-7.94-9.97,9.93-8.21,17.38,10.57,5.96,10.57,5.96"/>
    <path class="cls-1" d="m188.19,217.95s-7.66,12.02-23.92,21.08c-16.26,9.06-25.87,28.77-25.87,38.32-.05,5.6,2.21,10.98,6.25,14.86,0,0,1.91-11.5,7.66-17.72,5.75-6.23,13.42-12.93,13.42-12.93,0,0-2.41,9.57,8.13,14.39,10.54,4.81,22.99,12.45,24.43,18.68.86,3.62,1.34,7.31,1.44,11.02,0,0,8.63-12.93,5.75-28.77s-11.02-21.55-12.93-34.49c-1.91-12.93-4.37-24.43-4.37-24.43Z"/>
    <path class="cls-7" d="m164.53,315.75s9.9,21.23,21.78,36.19c11.88,14.96,22.52,25.49,26.01,25.32,3.49-.17,50.19-22.69,58.54-27.28s18.4-11.46,18.4-11.46c0,0,10.57-1.49,12.71-3.24s10.12-7.85,10.12-7.85c0,0,7.85,1.66,11.3,1.48,3.45-.18,5.05-1.01,3.13-1.66s-4.36-1.31-4.36-1.31c0,0-1.66-9.35-3.5-10.97s-10.17-2.82-12.65-3.05-12.1,7.65-15.31,10.27c-2.97,2.78-5.73,5.78-8.24,8.97l-59.89,8.75s-20.93-41.03-22.9-43.45-9.4-10.61-20.3-11.09c-10.89-.48-12.87,8.68-12.87,8.68"/>
    <path class="cls-5" d="m324.95,337.53c-.73,0-1.4-.41-1.74-1.06l-14.05-26.95c-.5-.96-.13-2.15.83-2.65.96-.5,2.15-.13,2.65.83l14.05,26.9c.47.95.1,2.11-.84,2.62-.27.18-.58.28-.9.31Z"/>
    <path class="cls-5" d="m289.26,338.52s10.57-1.49,12.71-3.24,10.12-7.85,10.12-7.85c0,0,7.85,1.66,11.3,1.48,3.45-.18,5.05-1.01,3.13-1.66s-4.36-1.31-4.36-1.31c0,0-1.66-9.35-3.5-10.97s-10.17-2.82-12.65-3.05-12.1,7.65-15.31,10.27c-2.97,2.78-5.73,5.78-8.24,8.97l-59.89,8.75c-2.01-4.74-4.35-9.33-6.98-13.75l-34.24,19.05c1.6,2.31,3.26,4.59,4.96,6.74,11.88,14.95,22.52,25.49,26.01,25.32s50.19-22.69,58.54-27.28c8.34-4.59,18.4-11.47,18.4-11.47Z"/>
    <path class="cls-5" d="m308.23,315.44s6.74.6,8.03,1.4,3.64,7.3,3.64,7.3"/>
    <line class="cls-8" x1="322.16" y1="325.92" x2="313.14" y2="321.26"/>
    <path class="cls-5" d="m446.39,474.53l-10.03,136.01h4.8s20.05-136.45,20.05-134.71-14.82-1.31-14.82-1.31Z"/>
    <path class="cls-1" d="m446.39,474.53l-.84,11.34h14.07c.85-5.62,1.41-9.15,1.54-9.9-.76,1.45-14.78-1.44-14.78-1.44Z"/>
    <path class="cls-5" d="m543.6,474.53l10.03,136.01h-4.8s-20.05-136.45-20.05-134.71,14.82-1.31,14.82-1.31Z"/>
    <path class="cls-1" d="m544.44,485.87l-.84-11.34s-14.03,2.89-14.79,1.44c.14.69.71,4.28,1.56,9.9h14.07Z"/>
    <path class="cls-3" d="m553.63,345.49h-.43c-4.8,0-8.71,3.87-8.74,8.67-.09,16.54-.73,52.56-4.36,70.62-4.79,23.97-5.23,28.34-5.23,28.34,0,0,16.14-16.52,23.11-50.52,6.97-34,6.54-57.11,6.54-57.11l-6.11-.43-4.79.43Z"/>
    <path class="cls-3" d="m561.15,345.24c-4.29.15-7.83,3.41-8.32,7.68-1.67,14.92-5.96,48.89-12.28,70.18-8.29,27.9-31.39,32.25-44.91,33.56-9.87.95-44.17,3.54-61.94,4.87-6.12.48-10.84,5.57-10.85,11.71h0s51.44,9.59,84.13,7.42c32.7-2.17,49.27,2.17,57.11-20.93,7.85-23.1,6.97-51.88,6.54-71.5-.56-14.44-1.87-28.85-3.92-43.16l-5.56.18Z"/>
    <path class="cls-5" d="m202.97,474.53l10.02,136.01h-4.79s-20.06-136.45-20.06-134.71,14.83-1.31,14.83-1.31Z"/>
    <path class="cls-1" d="m203.74,485l-.77-10.46s-14.03,2.89-14.79,1.44c.13.65.64,3.92,1.43,9.08l14.14-.05Z"/>
    <path class="cls-5" d="m105.74,474.53l-10.02,136.01h4.79s20.06-136.45,20.06-134.71-14.83-1.31-14.83-1.31Z"/>
    <path class="cls-1" d="m105.74,474.53l-.77,10.46h14.14c.78-5.14,1.31-8.42,1.43-9.08-.73,1.5-14.79-1.39-14.79-1.39Z"/>
    <path class="cls-3" d="m95.73,345.49h.43c4.82,0,8.72,3.91,8.72,8.72h0c.09,16.54.73,52.56,4.36,70.62,4.8,23.97,5.23,28.34,5.23,28.34,0,0-16.13-16.57-23.11-50.57-6.98-34-6.54-57.11-6.54-57.11l6.11-.43,4.8.43Z"/>
    <path class="cls-3" d="m88.19,345.24c4.29.13,7.83,3.4,8.32,7.66,1.69,14.92,5.98,48.89,12.29,70.18,8.28,27.9,31.39,32.25,44.9,33.56,9.87.95,44.17,3.54,61.94,4.87,6.12.47,10.85,5.57,10.87,11.71h0s-51.45,9.59-84.15,7.42c-32.7-2.17-49.25,2.17-57.1-20.93s-6.98-51.87-6.54-71.49c.55-14.44,1.86-28.85,3.92-43.16l5.55.18Z"/>
  </g>
  <g id="freepik--Floor--inject-344">
    <line class="cls-8" x1="17.79" y1="610.55" x2="605" y2="610.55"/>
  </g>
</svg>