<?xml version="1.0" encoding="UTF-8"?>
<svg id="Layer_1" data-name="Layer 1" xmlns="http://www.w3.org/2000/svg" viewBox="0 0 612 612">
  <defs>
    <style>
      .cls-1, .cls-2, .cls-3, .cls-4, .cls-5, .cls-6, .cls-7, .cls-8, .cls-9 {
        stroke: #273339;
      }

      .cls-1, .cls-2, .cls-3, .cls-5, .cls-7, .cls-8, .cls-9 {
        stroke-miterlimit: 10;
      }

      .cls-1, .cls-10 {
        fill: #e07084;
      }

      .cls-11 {
        opacity: .7;
      }

      .cls-11, .cls-10, .cls-12, .cls-13 {
        stroke-width: 0px;
      }

      .cls-11, .cls-12, .cls-4, .cls-5, .cls-13 {
        fill: #fff;
      }

      .cls-11, .cls-13 {
        isolation: isolate;
      }

      .cls-2 {
        fill: #273339;
      }

      .cls-3 {
        stroke-width: 2px;
      }

      .cls-3, .cls-4, .cls-6, .cls-9 {
        stroke-linecap: round;
      }

      .cls-3, .cls-6, .cls-7, .cls-8, .cls-9 {
        fill: none;
      }

      .cls-4, .cls-6 {
        stroke-linejoin: round;
      }

      .cls-13 {
        opacity: .55;
      }

      .cls-7 {
        stroke-width: 3px;
      }
    </style>
  </defs>
  <g id="freepik--background-simple--inject-242">
    <path class="cls-10" d="m569.27,160.01C535.45,79.34,479.36,20.83,420.67,7.24l-1.31-.3c-86.6-19.06-169.59,132.18-195.29,154.82-25.7,22.65-156.37,35.7-186.47,109.53-30.09,73.83-46.99,195.28,2.93,285.78,49.92,90.5,183.53,10.73,240.8,25.01,43.36,10.82,88.19,19.51,132.47,22.7,39.27,2.83,84.89,7.99,118.7-31.09,29.71-34.34,34.91-85.22,47.62-136.67,8.16-33.06,20.49-63.42,21.59-99.69,1.86-63.22-10.63-125.31-32.44-177.33Z"/>
    <path class="cls-11" d="m569.27,160.01C535.45,79.34,479.36,20.83,420.67,7.24l-1.31-.3c-86.6-19.06-169.59,132.18-195.29,154.82-25.7,22.65-156.37,35.7-186.47,109.53-30.09,73.83-46.99,195.28,2.93,285.78,49.92,90.5,183.53,10.73,240.8,25.01,43.36,10.82,88.19,19.51,132.47,22.7,39.27,2.83,84.89,7.99,118.7-31.09,29.71-34.34,34.91-85.22,47.62-136.67,8.16-33.06,20.49-63.42,21.59-99.69,1.86-63.22-10.63-125.31-32.44-177.33Z"/>
  </g>
  <g id="freepik--Wall--inject-242">
    <line class="cls-8" x1="167.08" y1="108.95" x2="167.08" y2="499.56"/>
    <line class="cls-8" x1="530.94" y1="108.95" x2="530.94" y2="499.56"/>
    <line class="cls-8" x1="-116.46" y1="230.05" x2="739.95" y2="230.05"/>
    <line class="cls-8" x1="353.25" y1="108.95" x2="353.25" y2="499.56"/>
    <line class="cls-8" x1="-116.46" y1="401.91" x2="739.95" y2="401.91"/>
  </g>
  <g id="freepik--Window--inject-242">
    <rect class="cls-12" x="274.94" y="70.46" width="218.07" height="347.93"/>
    <path class="cls-8" d="m303.53,69.81c-.46,44.76-.46,89.27,0,134.29"/>
    <line class="cls-8" x1="274.94" y1="88.85" x2="274.94" y2="364.98"/>
    <line class="cls-8" x1="303.53" y1="243.91" x2="303.53" y2="402.09"/>
    <path class="cls-8" d="m333.36,282.88c.2,44.74.2,91.21,0,134.96"/>
    <path class="cls-8" d="m361.95,321.86c.65,32.88.65,63.86,0,96.34"/>
    <path class="cls-8" d="m390.55,362.48v55.16"/>
    <path class="cls-8" d="m420.39,402.28v15.81"/>
    <path class="cls-8" d="m333.36,69.68c.2,33.27.2,64.26,0,97.93"/>
    <line class="cls-8" x1="361.33" y1="204.1" x2="361.33" y2="244.74"/>
    <path class="cls-8" d="m361.33,69.84v55.5"/>
    <path class="cls-8" d="m389.92,69.87v18.98"/>
    <line class="cls-8" x1="390.55" y1="165.96" x2="390.55" y2="283.71"/>
    <line class="cls-8" x1="420.39" y1="125.34" x2="420.39" y2="322.69"/>
    <path class="cls-8" d="m448.36,69.98c-.1,110.45-.1,220.66,0,330.65"/>
    <path class="cls-8" d="m463.28,70.18v17.01"/>
    <line class="cls-8" x1="463.28" y1="363.31" x2="463.28" y2="400.62"/>
    <path class="cls-8" d="m477.58,69.98c-.28,110.45-.28,220.66,0,330.65"/>
    <line class="cls-8" x1="448.36" y1="126.17" x2="333.36" y2="126.17"/>
    <line class="cls-8" x1="333.36" y1="402.28" x2="275.04" y2="402.28"/>
    <line class="cls-8" x1="303.53" y1="363.31" x2="274.6" y2="363.31"/>
    <line class="cls-8" x1="303.53" y1="89.68" x2="274.94" y2="89.68"/>
    <line class="cls-8" x1="418.51" y1="165.96" x2="303.53" y2="165.96"/>
    <line class="cls-8" x1="418.51" y1="283.71" x2="303.53" y2="283.71"/>
    <line class="cls-8" x1="447.11" y1="322.69" x2="333.56" y2="322.69"/>
    <path class="cls-8" d="m492.43,322.7h-14.25"/>
    <path class="cls-8" d="m492.79,361.65c-43.08.83-88.09.83-131.46,0"/>
    <path class="cls-8" d="m492.5,400.62c-34.08.59-68.87.59-101.62,0"/>
    <line class="cls-8" x1="477.36" y1="283.71" x2="447.73" y2="283.71"/>
    <line class="cls-8" x1="390.55" y1="204.93" x2="275.55" y2="204.93"/>
    <line class="cls-8" x1="478.19" y1="165.96" x2="447.73" y2="165.96"/>
    <line class="cls-8" x1="446.5" y1="204.93" x2="419.76" y2="204.93"/>
    <path class="cls-8" d="m492.83,204.93h-14.64"/>
    <line class="cls-8" x1="446.5" y1="243.08" x2="419.76" y2="243.08"/>
    <line class="cls-8" x1="420.4" y1="226.5" x2="391.17" y2="226.5"/>
    <line class="cls-8" x1="390.55" y1="243.08" x2="274.94" y2="243.08"/>
    <path class="cls-8" d="m492.83,243.08h-14.64"/>
    <path class="cls-8" d="m492.56,88.04c-42.85-.56-86.39-.56-130.61,0"/>
    <path class="cls-8" d="m492.62,126.17h-15.67"/>
    <rect class="cls-7" x="274.94" y="70.46" width="218.07" height="347.93"/>
  </g>
  <g id="freepik--Table--inject-242">
    <rect class="cls-5" x="9.45" y="449.61" width="8.75" height="110.08"/>
    <rect class="cls-5" x="21.5" y="449.61" width="8.75" height="110.08"/>
    <rect class="cls-5" x="131.73" y="449.61" width="8.75" height="110.08"/>
    <rect class="cls-5" x="119" y="449.61" width="8.75" height="110.08"/>
    <rect class="cls-5" x="9.45" y="427.97" width="131.02" height="24.73"/>
    <rect class="cls-5" x="127.88" y="427.97" width="12.59" height="24.73"/>
    <rect class="cls-5" x="108.57" y="385.1" width="7.78" height="5.36"/>
    <path class="cls-5" d="m130.08,422.38l-9.09-9.55c-2.82-2.97-4.39-6.91-4.39-11.01v-10.2h-8.76v10.2c0,4.1-1.57,8.04-4.4,11.01l-9.09,9.55c-1.19,1.25-1.14,3.23.11,4.42.58.56,1.36.86,2.16.86h31.26c1.73,0,3.12-1.4,3.12-3.13,0-.8-.31-1.57-.86-2.15h-.05Z"/>
    <path class="cls-1" d="m120.99,412.83c-.43-.47-.84-.96-1.21-1.47h-15.13c-.37.52-.77,1.01-1.21,1.47l-9.09,9.55c-1.19,1.25-1.14,3.23.11,4.42.58.56,1.36.86,2.16.86h31.26c1.73,0,3.12-1.4,3.12-3.13,0-.8-.31-1.57-.86-2.15l-9.14-9.55Z"/>
    <rect class="cls-5" x="106.39" y="389.23" width="11.92" height="4.62" rx="1.3" ry="1.3"/>
    <path class="cls-1" d="m50.2,416.65s-5.36-6.38-18.25-10.2c-7.47-2.37-15.42-2.81-23.11-1.28,0,0,5.1-11.48,19.7-9.49,14.6,1.99,20.67,7.54,21.9,12.65.79,2.73.7,5.64-.24,8.32Z"/>
    <path class="cls-1" d="m53.12,416.65s13.62-10.2,25.29-12.65c11.67-2.45,19.7,1.28,19.7,1.28,0,0-6.81-8.03-22.38-9.73-15.57-1.7-23.84,17.94-22.61,21.11Z"/>
    <path class="cls-1" d="m54.81,405.71s3.83-6.81-8.02-16.06c-11.85-9.25-21.41-7.05-27-5.6-3.52.96-6.88,2.44-9.97,4.39,0,0,12.64,4.13,22.61,8.26s19.46,15.3,19.46,15.3l2.92-6.3Z"/>
    <path class="cls-1" d="m53.6,410.81s3.16-19.69,8.02-22.85c4.86-3.16,11.48-3.41,18.73-.98s14.11,5.36,14.11,5.36c0,0-13.14-1.95-21.68,3.16-8.54,5.11-19.18,15.32-19.18,15.32Z"/>
    <path class="cls-8" d="m53.91,408.39s-8.76-31.14-9.73-75.41c-.97-44.27,18.42-45.99,18.42-45.99"/>
    <path class="cls-8" d="m68.19,312.3s-14.35,7.54-15.81,36.25,1.28,62.26,1.28,62.26c0,0,1.94-35.02,8.02-54,6.08-18.98,14.35-19.46,14.35-19.46"/>
    <path class="cls-5" d="m81.35,307.13c3.83-5.83,0-9.59-5.82-5.82-1.45-6.8-6.77-6.8-8.23,0-5.83-3.83-9.59,0-5.8,5.82-6.8,1.45-6.8,6.77,0,8.23-3.83,5.83,0,9.59,5.8,5.82,1.45,6.78,6.77,6.78,8.23,0,5.83,3.83,9.59,0,5.82-5.82,6.8-1.45,6.8-6.77,0-8.23Z"/>
    <circle class="cls-1" cx="71.43" cy="311.23" r="2.81"/>
    <path class="cls-5" d="m90.89,333.09c3.83-5.83,0-9.59-5.82-5.82-1.45-6.78-6.77-6.78-8.23,0-5.83-3.83-9.59,0-5.82,5.82-6.78,1.45-6.78,6.77,0,8.23-3.83,5.83,0,9.59,5.82,5.82,1.45,6.78,6.77,6.78,8.23,0,5.83,3.83,9.59,0,5.82-5.82,6.73-1.45,6.73-6.77,0-8.23Z"/>
    <circle class="cls-1" cx="80.91" cy="337.2" r="2.81"/>
    <path class="cls-5" d="m75.74,281.16c3.83-5.83,0-9.59-5.82-5.82-1.45-6.8-6.77-6.8-8.23,0-5.83-3.83-9.59,0-5.82,5.82-6.78,1.45-6.78,6.77,0,8.23-3.83,5.83,0,9.59,5.82,5.8,1.45,6.8,6.77,6.8,8.23,0,5.83,3.83,9.59,0,5.82-5.8,6.78-1.45,6.78-6.77,0-8.23Z"/>
    <circle class="cls-1" cx="65.81" cy="285.27" r="2.81"/>
    <path class="cls-8" d="m44.76,315.46s8.42,10.52,9.82,38.95c.78,18.81.45,37.64-.98,56.41"/>
    <path class="cls-5" d="m54.68,311.34c3.83-5.83,0-9.59-5.82-5.82-1.45-6.78-6.77-6.78-8.23,0-5.83-3.83-9.59,0-5.82,5.82-6.78,1.45-6.78,6.77,0,8.23-3.83,5.83,0,9.59,5.82,5.82,1.45,6.78,6.77,6.78,8.23,0,5.83,3.83,9.59,0,5.82-5.82,6.78-1.45,6.78-6.77,0-8.23Z"/>
    <path class="cls-1" d="m47.53,315.46c0-1.56-1.25-2.82-2.81-2.83s-2.82,1.25-2.83,2.81,1.25,2.82,2.81,2.83c0,0,.02,0,.03,0,1.55,0,2.8-1.26,2.81-2.81Z"/>
    <rect class="cls-5" x="24.41" y="410.15" width="56.92" height="17.51"/>
    <rect class="cls-5" x="69.98" y="410.15" width="11.35" height="17.51"/>
  </g>
  <g id="freepik--Candles--inject-242">
    <circle class="cls-13" cx="137.08" cy="306.88" r="28.16"/>
    <rect class="cls-5" x="123.77" y="314.31" width="25.89" height="30.47"/>
    <path class="cls-5" d="m137.08,313.64s-5.47-2.61-5.66-8.52c-.19-5.9,5.25-11.13,5.25-11.13,2.44,2.39,4.08,5.48,4.69,8.84.79,5.24-4.29,10.81-4.29,10.81Z"/>
    <rect class="cls-2" x="110.34" y="342.15" width="54.71" height="13.43"/>
    <circle class="cls-13" cx="204.87" cy="217.38" r="28.16" transform="translate(-42.52 384.78) rotate(-80.78)"/>
    <rect class="cls-5" x="191.55" y="224.79" width="25.89" height="30.47"/>
    <path class="cls-5" d="m204.87,224.13s-5.47-2.61-5.66-8.52c-.19-5.9,5.25-11.13,5.25-11.13,2.44,2.4,4.08,5.48,4.71,8.84.78,5.25-4.3,10.81-4.3,10.81Z"/>
    <rect class="cls-2" x="178.12" y="252.63" width="54.71" height="13.43"/>
    <circle class="cls-13" cx="553.74" cy="227.38" r="28.16"/>
    <rect class="cls-5" x="540.43" y="234.79" width="25.89" height="30.47"/>
    <path class="cls-5" d="m553.77,234.13s-5.47-2.61-5.65-8.52,5.24-11.13,5.24-11.13c2.44,2.39,4.09,5.48,4.71,8.84.8,5.25-4.3,10.81-4.3,10.81Z"/>
    <rect class="cls-2" x="527.01" y="262.63" width="54.71" height="13.43"/>
  </g>
  <g id="freepik--character-2--inject-242">
    <polygon class="cls-5" points="268.29 559.91 284.19 481.86 303.09 481.86 301.49 559.91 343.47 559.91 349.1 481.05 239.01 480.22 233.44 559.91 268.29 559.91"/>
    <path class="cls-2" d="m296.72,191.67s18.63,6.94,22.31,21.45c3.67,14.51-4.97,29.24-4.54,32.7.43,3.46,5.62,3.9,6.49,1.73.87-2.17,1.95,2.38.43,6.5s-6.93,8.01-14.3,6.93-13.21,1.08-17.97-13.65c-4.76-14.73-.65-21.87-1.73-28.38-1.08-6.5-4.77-17.32-5.2-24.69s11.69-4.32,14.51-2.6Z"/>
    <path class="cls-5" d="m285.21,185.18s3.28-5.42,6.3-6.07c3.02-.65,7.59,7.65,7.15,10.41-.43,2.75-7.79,3.24-7.79,3.24l-5.66-7.58Z"/>
    <path class="cls-2" d="m257.73,255.58s-21.44,10.83-22.74,15.16c-1.3,4.34-.65,42.01,3.89,51.55,4.54,9.54,10.41,29.66,10.41,33.16s-13.48,140.43-13.48,140.43h115.23s-.38-85.18-6.82-103.42c-6.44-18.24-21.23-50.03-22.1-53.5-.87-3.47,3.9-63.03,2.82-67.15s-14.95-13.43-19.28-16.24c-2.73-1.83-5.21-4.01-7.36-6.5,0,0-3.04-4.77-7.14-4.55-4.11.22-33.41,11.06-33.41,11.06Z"/>
    <path class="cls-5" d="m261.2,177.19c-6.24,1.04-12.04,3.9-16.68,8.2-10.14,9.22-9.53,21.81-7.55,32.36,2.78,14.86,11.84,28.54,14.91,32.84,3.07,4.3,13.06,12.64,16.44,11.11,0,0,3.69,13.82,5.84,11.99s3.99-13.84,3.99-13.84c0,0,8.6-5.83,10.45-8.29s4.3-5.54,4.3-5.54l-1.84-14.44s6.76-4,5.54-11.68c-1.22-7.68-4.92-7.37-4.92-7.37,0,0,3.07-17.85-6.45-27.36-6.22-6.42-15.19-9.4-24.01-7.98Z"/>
    <path class="cls-2" d="m285.21,185.18c-6.22-6.42-15.19-9.4-24.01-7.98-6.24,1.04-12.04,3.9-16.68,8.2-10.09,9.17-10.01,21.8-7.58,32.22v-4.92s-1.73-9.96,10.83-13.65,19.27,0,22.96,4.77,10.61,16.02,14.03,13.65c3.42-2.37,2.9-5.1,6.86-4.92.05,0,3.12-17.83-6.4-27.36Z"/>
    <path class="cls-2" d="m268.32,261.7s4.36-1.15,11.48-8.72l-9.31,15.81-2.17-7.09Z"/>
    <path class="cls-8" d="m258.16,243.02s1.73,3.46,4.34,2.37c1.47-.57,2.74-1.54,3.67-2.81"/>
    <path class="cls-8" d="m259.47,249.72s4.77,3.47,9.53-1.73"/>
    <path class="cls-8" d="m265.74,231.96s5.64,2.38,8.24-1.5"/>
    <path class="cls-8" d="m246.9,233.69s5.19,2.82,8.44-.43"/>
    <path class="cls-3" d="m262.93,224.82c3.56-1.34,7.48-1.34,11.04,0"/>
    <path class="cls-3" d="m252.53,225.68s-5.62-2.55-8.44,1.73"/>
    <path class="cls-2" d="m313.4,268.57s-5.2-2.55-7.59,11.04c-2.38,13.6-4.54,44.36-4.54,44.36,0,0,13-1.94,19.05-1.94s13,3.02,13,3.02c0,0,1.95-21.68.22-36.39s-11.69-23.39-16.45-24.23"/>
    <path class="cls-5" d="m223.73,322.29s-.22,16.24,0,20.79c.22,4.55-3.04,12.35-.87,20.15,2.17,7.81,7.36,53.56,8.01,55.01s.87,5.64-.22,9.32-7.36,10.83-3.25,11.48c4.11.65,10.41-.22,13.21-2.55,2.81-2.33,6.29-5.42,7.37-7.79l1.08-2.38s-2.38,7.14-1.08,7.58,4.11-1.28,4.76-6.06c.65-4.78-1.94-9.32-3.24-11.26s-4.12-3.69-6.72-8.46c-2.6-4.77,1.73-29.24,2.17-39.42.43-10.18-.87-19.7-.65-22.96.04-3.61-.11-7.23-.43-10.83l-4.99-12.56s-6.06-5.9-15.15-.05Z"/>
    <path class="cls-4" d="m235.21,415.86s-4.12,4.97-9.32,6.06-8.44,1.28-7.36,3.25,6.71,1.08,8.44.65,3.04-.87,3.04-.87l5.2-9.09Z"/>
    <path class="cls-5" d="m302.79,321.21l-6.07,30.1-26.21,29.46c-3.47,3.9-28.38,28.16-32.06,31.63-3.69,3.47-13,17.55-13.65,17.98s-8.66,8.01-7.14,9.53,10.2-.87,11.91-1.52,1.95.87,5.42-.87,7.58-7.14,8.66-7.58c3.39-1.16,5.98-3.92,6.94-7.37.65-2.8,1.5-5.55,2.55-8.23,0,0,40.72-29.46,49.39-34.43,8.67-4.97,17.75-14.73,18.19-16.45s9.32-43.36,9.32-43.36c0,0-11.02-7.13-27.25,1.11Z"/>
    <path class="cls-2" d="m234.99,270.74s-5.64.42-8.93,15.8c-3.29,15.38-2.37,35.71-2.37,35.71,0,0,5.41-2.38,8.44-2.38s6.71,2.38,6.71,2.38c0,0-2.37-14.73-3.46-25.51"/>
    <polygon class="cls-5" points="285.46 295.43 285.24 300.62 300.62 302.14 301.27 296.95 285.46 295.43"/>
    <path class="cls-6" d="m229.57,438.39s8.29-8.56,10.88-11.72"/>
    <path class="cls-6" d="m223.21,439.32c.21-.9.71-1.71,1.43-2.3,3.8-3.19,7.27-6.76,10.36-10.64"/>
    <path class="cls-6" d="m217.66,439.9s3.24-3.18,6.38-6.62c3.14-3.44,6.9-7.49,6.9-7.49"/>
  </g>
  <g id="freepik--character-1--inject-242">
    <rect class="cls-2" x="108.73" y="512.02" width="541.77" height="47.66"/>
    <rect class="cls-5" x="102.29" y="487.98" width="555.11" height="33.5" rx="7" ry="7"/>
    <rect class="cls-5" x="102.29" y="504.73" width="555.11" height="16.76" rx="7" ry="7"/>
    <path class="cls-5" d="m147.58,472.39s-10.46-3.29-16.44-.29-5.1,11.36-3,15.85c2.1,4.49,6.29,5.97,14.03,6.27,7.74.31,15.56,1.2,24.52,1.2s41.56-2.4,41.56-2.4c0,0,8.67-1.2,10.2-8.37,1.53-7.17.29-9.87-6.27-12.27-6.57-2.4,1.49-.89-17.34.6s-35,0-47.26-.6Z"/>
    <path class="cls-8" d="m140.41,488.84s-11.67-3-8.38-4.78,5.98,4.18,20.04,5.38c14.05,1.2,47.25-1.49,47.25-1.49,0,0,15.84-6.58,16.15-3.6s-12.82,4.78-12.82,4.78"/>
    <path class="cls-5" d="m198.3,435.4s8.47,1.54,16.17,3.09c4.58.92,9.21,1.52,13.88,1.8,0,0,11.3-10.01,35.71-11.3,24.41-1.29,45.91,14.37,58.3,12.06,12.38-2.31,18.7-6.47,52.6-12.12,0,0,5.7,3.65,9.81,23.94,2.5,12.85,3.53,25.94,3.07,39.03h-126.87s-10.53-2.05-22.34-11.04c-11.81-8.99-15.15-11.49-20.8-12.77-3.54-.78-7.16-1.13-10.79-1.03,0,0,1.28-13.86-1.28-19s-7.45-12.65-7.45-12.65Z"/>
    <path class="cls-2" d="m209.34,445.13l-2.08,10.88c.15,3.65.07,7.31-.24,10.96,3.63-.1,7.25.25,10.79,1.03,3.66.83,6.38,2.22,11.03,5.54-5.34-7.55-19.5-28.4-19.5-28.4Z"/>
    <path class="cls-5" d="m171.33,417.94s-16.95-3.34-29.27,3.09c-12.32,6.43-15.67,20.55-11.82,32.87,3.85,12.32,17.22,19,25.69,20.55,8.47,1.54,24.91,3.34,34.15,2.31,9.25-1.03,22.85-6.16,24.4-11.81,1.54-5.65,2.31-9.25-5.1-19.78-4.48-6.32-10.38-11.51-17.22-15.15,0,0-.77-5.1-3.07-6.93-2.31-1.82-17.75-5.14-17.75-5.14Z"/>
    <path class="cls-2" d="m171.33,417.94s-16.95-3.34-29.27,3.09c-12.32,6.43-15.67,20.55-11.82,32.87,3.16,10.1,12.68,16.4,20.69,19.19.1-1.52.05-3.04-.14-4.55-.77-5.9,3.34-18.49,12.59-28.25,9.25-9.76,15.41-11.3,17.2-12.59,1.8-1.29-4.11-2.82-4.11-3.83,0-.66,1.42-2.75,2.41-4.13-3.97-1.02-7.55-1.8-7.55-1.8Z"/>
    <path class="cls-5" d="m163.37,414.6c-8.98,7.19-15.97,16.57-20.29,27.23-6.67,17.2-5.39,26.96-5.39,26.96l2.55,1.56c3.25,2.01,6.92,3.25,10.73,3.62l5,.47c-1.88-9.78-1.17-19.88,2.05-29.31,5.39-14.88,20.9-25.44,20.9-25.44l-15.55-5.09Z"/>
    <path class="cls-9" d="m181.61,440.29s-8.48,4.11-5.65,11.81"/>
    <path class="cls-9" d="m172.36,463.65s-6.16,5.39-1.8,10.53"/>
    <path class="cls-8" d="m183.91,452.87s5.1-2.32,3.09-8.74"/>
    <path class="cls-8" d="m178.26,473.41s5.65-1.28,2.55-8.72"/>
    <path class="cls-8" d="m193.42,458c1.67,2.14,1.56,5.17-.26,7.19"/>
    <path class="cls-8" d="m200.86,452.87s5.39,10.01-1.03,15.41"/>
    <path class="cls-5" d="m242.98,437.71s-13.86,2.55-15.41,16.69c-1.54,14.14,47.52,26.78,47.52,26.78,0,0-33.91,4.62-39.04,4.62s-27.48-4.62-29.33-4.11c-1.85.51-17.97,9.76-21.06,12.06s-5.39,4.88-3.09,5.1,10.53,1.54,11.3,1.54,2.05,2.05,7.45,1.02c5.39-1.03,15.41-3.07,15.41-3.07,0,0,.78.77,9.77.26,5.09-.26,10.15-.86,15.15-1.8,0,0,42.37,4.88,63.17,1.02,20.8-3.86,27.48-3.83,26.45-6.93-1.03-3.1-55.41-43.22-67.22-48.32"/>
    <line class="cls-8" x1="193.93" y1="500.38" x2="218.32" y2="491.64"/>
    <line class="cls-8" x1="188.8" y1="499.35" x2="211.91" y2="487.54"/>
    <line class="cls-8" x1="182.63" y1="498.84" x2="205.48" y2="484.45"/>
    <line class="cls-8" x1="275.09" y1="481.12" x2="297.69" y2="475.98"/>
    <path class="cls-1" d="m146.19,481.03c1.88-2.46,4.61-4.14,7.65-4.72,4.92-.79,12.97,5.5,13.57,5.7s-1.77,2.55-5.31,5.89c-2.06,1.97-4.8,3.1-7.65,3.15-2.4-1.08-4.91-1.94-7.47-2.55-3.14-.59-4.32,1.96-4.72-1.57s3.93-5.9,3.93-5.9Z"/>
    <path class="cls-1" d="m145.4,485.55s4.32-5.5,2.55-10.61c-1.77-5.11-5.1-9.23-5.31-10.02s-2.74,2.55-6.68,6.68-5.5,9.04-3.72,11.99c1.77,2.95,6.48,5.31,6.48,5.31l6.68-3.34Z"/>
    <path class="cls-1" d="m138.72,488.89s-1.77-8.65-6.48-10.8c-4.23-1.77-9.08-1.18-12.75,1.57-2.75,2.16-4.32,6.68-4.91,7.08s.59-.4,5.31,1.76c4.33,1.89,9.02,2.83,13.75,2.75,4.11,0,5.09-2.36,5.09-2.36Z"/>
    <path class="cls-1" d="m138.72,488.89s-5.7-1.96-9.42-.4c-3.72,1.57-7.08,6.1-8.06,7.87s-1.57,2.74-1.57,2.74c0,0,5.31.6,10.8,1.19s9.63-2.55,9.82-5.51,0-5.5-1.57-5.89Z"/>
    <path class="cls-1" d="m138.72,488.89c1.81-1.81,4.15-2.98,6.68-3.34,4.51-.78,11.01,2.55,13.16,5.7,1.51,2.35,2.76,4.85,3.74,7.46-2.82,1.6-5.99,2.48-9.23,2.55-6.1.4-11.2.98-14.16-5.1-2.96-6.08-.19-7.27-.19-7.27Z"/>
    <path class="cls-1" d="m625.67,480.46s-15.06-2.3-20.79-14.76c-3.25-7.1-8.39-6.72-12.17-3.83s-15.47,2.79-20.51,2.79-23.5-7.97-39.03-12.59c-15.52-4.62-30.61,1.68-37.76,3.83s-10.9,2.1-15.94,2.95c-5.04.84-39.13-20.6-70.3-26.32-25.62-4.71-33.76-4.2-40.81-3.14-4.01.51-7.99,1.25-11.91,2.22l-9.04,2.55v125.55h296.01v-70.39l-17.75-8.86Z"/>
    <line class="cls-9" x1="368.38" y1="492.33" x2="368.38" y2="530.44"/>
    <line class="cls-9" x1="374.18" y1="503.1" x2="374.18" y2="516.36"/>
    <line class="cls-9" x1="473.61" y1="491.5" x2="473.61" y2="533.76"/>
    <line class="cls-9" x1="481.07" y1="508.9" x2="481.07" y2="522.98"/>
    <line class="cls-9" x1="465.32" y1="509.73" x2="465.32" y2="476.58"/>
    <line class="cls-9" x1="581.32" y1="505.58" x2="581.32" y2="533.76"/>
    <line class="cls-9" x1="586.3" y1="496.47" x2="586.3" y2="520.51"/>
  </g>
  <g id="freepik--Floor--inject-242">
    <line class="cls-8" x1="-119.39" y1="529.68" x2="746.79" y2="529.68"/>
  </g>
</svg>