<svg width="28" height="21" viewBox="0 0 28 21" fill="none" xmlns="http://www.w3.org/2000/svg">
<path d="M17.6797 20.6445C17.3921 20.6445 17.1045 20.5419 16.8774 20.3219C16.4384 19.8966 16.4384 19.1926 16.8774 18.7674L25.2638 10.6427L16.8774 2.51804C16.4384 2.09275 16.4384 1.3888 16.8774 0.963505C17.3164 0.538207 18.043 0.538207 18.482 0.963505L27.6708 9.86541C28.1097 10.2907 28.1097 10.9947 27.6708 11.42L18.482 20.3219C18.255 20.5419 17.9673 20.6445 17.6797 20.6445Z" fill="white"/>
<path d="M26.6125 11.7424H1.13534C0.514689 11.7424 0 11.2438 0 10.6425C0 10.0413 0.514689 9.54263 1.13534 9.54263H26.6125C27.2331 9.54263 27.7478 10.0413 27.7478 10.6425C27.7478 11.2438 27.2331 11.7424 26.6125 11.7424Z" fill="white"/>
</svg>
