<svg width="44" height="82" viewBox="0 0 44 82" fill="none" xmlns="http://www.w3.org/2000/svg">
<path fill-rule="evenodd" clip-rule="evenodd" d="M42.9625 1.2875C43.2535 1.57779 43.4844 1.92263 43.642 2.30229C43.7995 2.68195 43.8806 3.08895 43.8806 3.5C43.8806 3.91105 43.7995 4.31805 43.642 4.69771C43.4844 5.07737 43.2535 5.42221 42.9625 5.7125L7.66875 41L42.9625 76.2875C43.5493 76.8743 43.8789 77.6701 43.8789 78.5C43.8789 79.3298 43.5493 80.1257 42.9625 80.7125C42.3757 81.2993 41.5798 81.6289 40.75 81.6289C39.9202 81.6289 39.1243 81.2993 38.5375 80.7125L1.0375 43.2125C0.746479 42.9222 0.515586 42.5774 0.358045 42.1977C0.200505 41.818 0.119415 41.411 0.119415 41C0.119415 40.589 0.200505 40.1819 0.358045 39.8023C0.515586 39.4226 0.746479 39.0778 1.0375 38.7875L38.5375 1.2875C38.8278 0.99648 39.1726 0.765587 39.5523 0.608047C39.9319 0.450506 40.339 0.369413 40.75 0.369413C41.161 0.369413 41.5681 0.450506 41.9477 0.608047C42.3274 0.765587 42.6722 0.99648 42.9625 1.2875Z" fill="black"/>
</svg>
