<svg width="55" height="39" viewBox="0 0 55 39" fill="none" xmlns="http://www.w3.org/2000/svg">
<path d="M34.728 39C34.1631 39 33.5981 38.7998 33.1521 38.3708C32.2897 37.5415 32.2897 36.1688 33.1521 35.3395L49.6254 19.4964L33.1521 3.65335C32.2897 2.82402 32.2897 1.45133 33.1521 0.621999C34.0144 -0.207333 35.4417 -0.207333 36.304 0.621999L54.3533 17.9807C55.2156 18.8101 55.2156 20.1827 54.3533 21.0121L36.304 38.3708C35.858 38.7998 35.293 39 34.728 39Z" fill="#EE98A7"/>
<path d="M52.2745 21.6409H2.23014C1.011 21.6409 0 20.6686 0 19.4961C0 18.3236 1.011 17.3513 2.23014 17.3513H52.2745C53.4936 17.3513 54.5046 18.3236 54.5046 19.4961C54.5046 20.6686 53.4936 21.6409 52.2745 21.6409Z" fill="#EE98A7"/>
</svg>
