<svg width="50" height="51" viewBox="0 0 50 51" fill="none" xmlns="http://www.w3.org/2000/svg">
<path d="M50 25.7988C50 11.9879 38.8016 0.798828 25 0.798828C11.1891 0.798828 0 11.9879 0 25.7988C0 38.2738 9.13906 48.6176 21.0938 50.491V33.027H14.7453V25.8004H21.0938V20.2895C21.0938 14.0254 24.8203 10.566 30.5328 10.566C33.2688 10.566 36.1328 11.0535 36.1328 11.0535V17.2051H32.975C29.875 17.2051 28.9062 19.1348 28.9062 21.1113V25.7988H35.8391L34.725 33.0254H28.9062V50.4895C40.8516 48.616 50 38.2723 50 25.7973V25.7988Z" fill="white"/>
</svg>
