<svg width="25" height="18" viewBox="0 0 25 18" fill="none" xmlns="http://www.w3.org/2000/svg">
<path d="M24.0453 5.94375C24.2281 5.79844 24.5 5.93437 24.5 6.16406V15.75C24.5 16.9922 23.4922 18 22.25 18H2.75C1.50781 18 0.5 16.9922 0.5 15.75V6.16875C0.5 5.93438 0.767188 5.80312 0.954688 5.94844C2.00469 6.76406 3.39688 7.8 8.17813 11.2734C9.16719 11.9953 10.8359 13.5141 12.5 13.5047C14.1734 13.5188 15.875 11.9672 16.8266 11.2734C21.6078 7.8 22.9953 6.75938 24.0453 5.94375ZM12.5 12C13.5875 12.0187 15.1531 10.6312 15.9406 10.0594C22.1609 5.54531 22.6344 5.15156 24.0688 4.02656C24.3406 3.81562 24.5 3.4875 24.5 3.14062V2.25C24.5 1.00781 23.4922 0 22.25 0H2.75C1.50781 0 0.5 1.00781 0.5 2.25V3.14062C0.5 3.4875 0.659375 3.81094 0.93125 4.02656C2.36563 5.14687 2.83906 5.54531 9.05938 10.0594C9.84688 10.6312 11.4125 12.0187 12.5 12Z" fill="white"/>
</svg>