<svg width="73" height="73" viewBox="0 0 73 73" fill="none" xmlns="http://www.w3.org/2000/svg">
<path d="M44.7078 8.75021C43.6468 8.75021 42.6292 8.32872 41.879 7.57846C41.1287 6.82821 40.7072 5.81064 40.7072 4.74962C40.7072 3.68859 41.1287 2.67103 41.879 1.92077C42.6292 1.17051 43.6468 0.749023 44.7078 0.749023H68.7114C69.7724 0.749023 70.79 1.17051 71.5402 1.92077C72.2905 2.67103 72.712 3.68859 72.712 4.74962V28.7532C72.712 29.8142 72.2905 30.8318 71.5402 31.582C70.79 32.3323 69.7724 32.7538 68.7114 32.7538C67.6504 32.7538 66.6328 32.3323 65.8825 31.582C65.1323 30.8318 64.7108 29.8142 64.7108 28.7532V14.407L27.5333 51.5846C26.7788 52.3133 25.7682 52.7165 24.7193 52.7074C23.6703 52.6983 22.6669 52.2776 21.9252 51.5358C21.1834 50.7941 20.7627 49.7907 20.7536 48.7417C20.7445 47.6928 21.1477 46.6822 21.8764 45.9277L59.0539 8.75021H44.7078ZM0.701294 16.7514C0.701294 14.6293 1.54427 12.5942 3.04479 11.0937C4.5453 9.59319 6.58043 8.75021 8.70248 8.75021H28.7054C29.7665 8.75021 30.784 9.1717 31.5343 9.92196C32.2845 10.6722 32.706 11.6898 32.706 12.7508C32.706 13.8118 32.2845 14.8294 31.5343 15.5796C30.784 16.3299 29.7665 16.7514 28.7054 16.7514H8.70248V64.7585H56.7096V44.7555C56.7096 43.6945 57.1311 42.677 57.8813 41.9267C58.6316 41.1764 59.6492 40.755 60.7102 40.755C61.7712 40.755 62.7888 41.1764 63.539 41.9267C64.2893 42.677 64.7108 43.6945 64.7108 44.7555V64.7585C64.7108 66.8806 63.8678 68.9157 62.3673 70.4162C60.8668 71.9167 58.8316 72.7597 56.7096 72.7597H8.70248C6.58043 72.7597 4.5453 71.9167 3.04479 70.4162C1.54427 68.9157 0.701294 66.8806 0.701294 64.7585V16.7514Z" fill="white"/>
</svg>
