<svg width="50" height="51" viewBox="0 0 50 51" fill="none" xmlns="http://www.w3.org/2000/svg">
<path d="M48.5741 35.9763L37.6364 31.2887C37.1692 31.0896 36.6499 31.0476 36.1567 31.1692C35.6635 31.2907 35.2232 31.5691 34.902 31.9626L30.0582 37.8806C22.4562 34.2964 16.3384 28.1786 12.7541 20.5766L18.6722 15.7328C19.0664 15.4121 19.3455 14.9718 19.467 14.4784C19.5886 13.985 19.5462 13.4654 19.346 12.9984L14.6585 2.06066C14.4388 1.55715 14.0504 1.14604 13.5602 0.898239C13.0699 0.650435 12.5085 0.581463 11.9729 0.703217L1.81644 3.04701C1.29999 3.16627 0.839219 3.45705 0.509321 3.87191C0.179422 4.28677 -0.000118968 4.80119 5.91437e-08 5.33123C5.91437e-08 30.3805 20.3031 50.6445 45.3133 50.6445C45.8435 50.6449 46.3582 50.4654 46.7732 50.1355C47.1883 49.8056 47.4792 49.3447 47.5985 48.8281L49.9423 38.6717C50.0633 38.1334 49.9928 37.5698 49.7431 37.0778C49.4934 36.5859 49.08 36.1964 48.5741 35.9763Z" fill="white"/>
</svg>
