<svg width="59" height="68" viewBox="0 0 59 68" fill="none" xmlns="http://www.w3.org/2000/svg">
<path fill-rule="evenodd" clip-rule="evenodd" d="M46.3147 10.5024C48.5539 13.0708 51.5847 14.9381 55.0353 15.6694C56.1084 15.9006 57.2293 16.0263 58.3954 16.0263V27.5415C52.4241 27.5415 46.8902 25.629 42.3816 22.3921V45.8095C42.3816 57.5107 32.8669 67.0179 21.1908 67.0179C15.0814 67.0179 9.55999 64.4043 5.68975 60.2501C2.1613 56.4527 0 51.3812 0 45.8095C0 34.2792 9.2358 24.8801 20.6781 24.6313V33.6338C20.6832 33.6354 20.6882 33.6369 20.6932 33.6384V24.6137C20.7787 24.6137 20.8603 24.6099 20.942 24.6062L20.9421 24.6062C21.0238 24.6024 21.1054 24.5986 21.1908 24.5986C22.1684 24.5986 23.1184 24.6765 24.0508 24.8022V36.5662C23.1485 36.2873 22.186 36.1164 21.1908 36.1164C15.8579 36.1164 11.5202 40.4566 11.5202 45.7945C11.5202 47.9105 12.2038 49.8557 13.3548 51.4415C10.2762 49.8255 8.16268 46.5886 8.16268 42.8692C8.16268 39.8845 9.5188 37.2118 11.6468 35.4353C9.51013 37.2118 8.14761 39.8901 8.14761 42.8817C8.14761 46.6012 10.2612 49.823 13.3398 51.4566C15.1115 53.8843 17.9564 55.4877 21.1908 55.4877C26.4006 55.4877 30.6603 51.3334 30.8463 46.1664L30.8614 0H39.2879C39.4716 0.980561 39.744 1.93 40.0965 2.83948C39.7473 1.93076 39.4798 0.982173 39.303 0.00251389H42.3816C42.3816 4.01324 43.8573 7.68265 46.3096 10.4991C46.3113 10.5002 46.313 10.5013 46.3147 10.5024ZM17.8307 64.0927C29.5219 64.0927 39.0216 54.5704 39.0216 42.8842C39.0216 54.5704 29.5068 64.0927 17.8307 64.0927Z" fill="black"/>
</svg>
