<svg width="84" height="69" viewBox="0 0 84 69" fill="none" xmlns="http://www.w3.org/2000/svg">
<path d="M83.84 8.75001C80.76 10.1354 77.44 11.0458 74 11.4813C77.52 9.38334 80.24 6.05834 81.52 2.06043C78.2 4.03959 74.52 5.42501 70.64 6.21668C67.48 2.81251 63.04 0.833344 58 0.833344C48.6 0.833344 40.92 8.43334 40.92 17.8146C40.92 19.1604 41.08 20.4667 41.36 21.6938C27.12 20.9813 14.44 14.2125 6.00003 3.96043C4.52003 6.45418 3.68003 9.38334 3.68003 12.4708C3.68003 18.3688 6.68003 23.5938 11.32 26.5625C8.48003 26.5625 5.84003 25.7708 3.52003 24.5833C3.52003 24.5833 3.52003 24.5833 3.52003 24.7021C3.52003 32.9354 9.44003 39.8229 17.28 41.3667C15.84 41.7625 14.32 41.9604 12.76 41.9604C11.68 41.9604 10.6 41.8417 9.56003 41.6438C11.72 48.3333 18 53.3208 25.56 53.4396C19.72 58.0313 12.32 60.7229 4.24003 60.7229C2.88003 60.7229 1.52003 60.6438 0.160034 60.4854C7.76003 65.3146 16.8 68.125 26.48 68.125C58 68.125 75.32 42.2375 75.32 19.7938C75.32 19.0417 75.32 18.3292 75.28 17.5771C78.64 15.2021 81.52 12.1938 83.84 8.75001Z" fill="black"/>
</svg>
