<svg width="84" height="68" viewBox="0 0 84 68" fill="none" xmlns="http://www.w3.org/2000/svg">
<path d="M83.68 7.91667C80.6 9.30208 77.28 10.2125 73.84 10.6479C77.36 8.55 80.08 5.225 81.36 1.22708C78.04 3.20625 74.36 4.59167 70.48 5.38333C67.32 1.97917 62.88 0 57.84 0C48.44 0 40.76 7.6 40.76 16.9812C40.76 18.3271 40.92 19.6333 41.2 20.8604C26.96 20.1479 14.28 13.3792 5.84 3.12708C4.36 5.62083 3.52 8.55 3.52 11.6375C3.52 17.5354 6.52 22.7604 11.16 25.7292C8.32 25.7292 5.68 24.9375 3.36 23.75C3.36 23.75 3.36 23.75 3.36 23.8687C3.36 32.1021 9.28 38.9896 17.12 40.5333C15.68 40.9292 14.16 41.1271 12.6 41.1271C11.52 41.1271 10.44 41.0083 9.4 40.8104C11.56 47.5 17.84 52.4875 25.4 52.6063C19.56 57.1979 12.16 59.8896 4.08 59.8896C2.72 59.8896 1.36 59.8104 0 59.6521C7.6 64.4812 16.64 67.2917 26.32 67.2917C57.84 67.2917 75.16 41.4042 75.16 18.9604C75.16 18.2083 75.16 17.4958 75.12 16.7437C78.48 14.3687 81.36 11.3604 83.68 7.91667Z" fill="#EE98A7"/>
</svg>
