<?xml version="1.0" encoding="UTF-8"?>
<svg id="Layer_1" data-name="Layer 1" xmlns="http://www.w3.org/2000/svg" viewBox="0 0 612 612">
  <defs>
    <style>
      .cls-1, .cls-2, .cls-3, .cls-4, .cls-5, .cls-6, .cls-7, .cls-8, .cls-9, .cls-10, .cls-11, .cls-12 {
        stroke: #273339;
      }

      .cls-1, .cls-2, .cls-3, .cls-6, .cls-7, .cls-8, .cls-9, .cls-10, .cls-11, .cls-12 {
        stroke-linecap: round;
        stroke-linejoin: round;
      }

      .cls-1, .cls-2, .cls-5, .cls-13 {
        fill: #273339;
      }

      .cls-2, .cls-4, .cls-11 {
        stroke-width: .75px;
      }

      .cls-3, .cls-14 {
        fill: #d2d2d2;
      }

      .cls-4, .cls-5 {
        stroke-miterlimit: 10;
      }

      .cls-4, .cls-8, .cls-9, .cls-10 {
        fill: none;
      }

      .cls-15 {
        isolation: isolate;
        opacity: .7;
      }

      .cls-15, .cls-14, .cls-16, .cls-13 {
        stroke-width: 0px;
      }

      .cls-15, .cls-7 {
        fill: #fff;
      }

      .cls-16, .cls-6, .cls-11 {
        fill: #e07084;
      }

      .cls-8 {
        stroke-width: 1px;
      }

      .cls-10 {
        stroke-width: 1px;
      }

      .cls-12 {
        fill: #9b9c9c;
      }
    </style>
  </defs>
  <g id="freepik--background-simple--inject-107">
    <path class="cls-16" d="m258.65,608.59S22.09,476.96,27.09,462.81c5.01-14.15,34.15-16.67,30.03-26.67C53,426.15-.4,134.65,13.76,117.13,27.93,99.61,323.63-5.33,344.46,3c20.82,8.33-10.01,38.31-10.01,38.31,0,0,257.42,103.34,262.41,114.96,4.99,11.61-28.32,15.83-30.82,16.65s24.15,35.04,25.83,59.97c1.68,24.94-24.16,303.21-32.53,329.09-8.37,25.88-24.15,25.03-27.53,18.32-3.38-6.71-3.34-16.65-3.34-16.65,0,0-238.15,53.25-269.8,44.93Z"/>
    <path class="cls-15" d="m258.65,608.59S22.09,476.96,27.09,462.81c5.01-14.15,34.15-16.67,30.03-26.67C53,426.15-.4,134.65,13.76,117.13,27.93,99.61,323.63-5.33,344.46,3c20.82,8.33-10.01,38.31-10.01,38.31,0,0,257.42,103.34,262.41,114.96,4.99,11.61-28.32,15.83-30.82,16.65s24.15,35.04,25.83,59.97c1.68,24.94-24.16,303.21-32.53,329.09-8.37,25.88-24.15,25.03-27.53,18.32-3.38-6.71-3.34-16.65-3.34-16.65,0,0-238.15,53.25-269.8,44.93Z"/>
  </g>
  <g id="freepik--Floor--inject-107">
    <line class="cls-9" y1="562.69" x2="607.06" y2="562.69"/>
  </g>
  <g id="freepik--Plant--inject-107">
    <path class="cls-11" d="m504.28,378.36s-3.08,8.46-9.61,9.61c-6.53,1.15-18.07-11.54-10.77-18.07,7.3-6.53,17.31,3.84,20.38,8.46Z"/>
    <path class="cls-11" d="m514.27,336.84s-9.61,23.45-5.77,35.04c3.84,11.59,27.68,20.02,34.6,5.01s-8.46-36.12-14.21-40.74-12.69-3.14-14.62.7Z"/>
    <path class="cls-11" d="m570.39,346.84s-16.53,15.02-18.44,30.03c-1.91,15.02,9.22,20.37,20.75,18.46,11.52-1.91,17.31-31.19,13.9-44.65-3.4-13.45-16.2-3.84-16.2-3.84Z"/>
    <path class="cls-11" d="m573.47,429.87s-18.46.78-19.22,9.61c-.76,8.83,8.07,10.76,16.9,3.08,8.83-7.68,10-12.3,2.31-12.69Z"/>
    <path class="cls-4" d="m554.55,441.58s14.53-6.62,21.1-7.8"/>
    <path class="cls-11" d="m577.58,487.71s-13.56-12.51-20.37-6.86c-6.81,5.66-1.9,13.31,9.75,14.16,11.65.85,15.77-1.58,10.62-7.31Z"/>
    <path class="cls-4" d="m555.94,482.51s15.02,5.63,20.41,9.46"/>
    <path class="cls-11" d="m506.08,484.02s18.68-17.29,28.08-9.45,2.68,18.34-13.43,19.52-21.73-2.19-14.65-10.07Z"/>
    <path class="cls-4" d="m535.93,476.91s-20.66,7.76-28.17,13.03"/>
    <path class="cls-11" d="m527.78,448.32s-1.91,9.22-8.83,12.68c-6.92,3.45-19.22-3.84-12.69-15.02,6.53-11.17,18.01-2.26,21.52,2.34Z"/>
    <path class="cls-11" d="m511.58,419.49s-3.45-7.7-16.9-2.69c-13.45,5.01-18.84,12.68-10.39,15.37,8.46,2.69,27.29-12.68,27.29-12.68Z"/>
    <path class="cls-4" d="m509.01,419.14s-14.25,1.54-21.95,8.08"/>
    <path class="cls-11" d="m550.02,327.23s2.3,5.39,6.92,4.23c4.62-1.16,5.77-8.07,13.06-6.14,7.3,1.93,13.45,10.37,13.45,6.53s-9.22-13.84-19.6-13.84-13.45,4.23-13.84,9.22Z"/>
    <path class="cls-4" d="m511.58,419.49s16.55-3.18,23.45,15.2c.68,1.84,1.25,3.72,1.73,5.62"/>
    <path class="cls-11" d="m580.65,401.69s3.47-7.7,16.92-2.69c13.45,5.01,18.83,12.69,10.37,15.38s-27.29-12.69-27.29-12.69Z"/>
    <path class="cls-4" d="m583.73,402.19s13.86-.76,20.42,7.32"/>
    <path class="cls-4" d="m580.65,401.69c-3.89-.55-7.85,0-11.45,1.56"/>
    <path class="cls-4" d="m520.4,387.9c-8.11-8.28-16.12-9.53-16.12-9.53,0,0-11.84-3.13-16.47,1.1"/>
    <line class="cls-4" x1="522.05" y1="345.32" x2="521.33" y2="342.1"/>
    <path class="cls-4" d="m540.77,515.24s1.71-66.19,0-86.34c-1.71-20.15-9.77-43.66-9.77-43.66l-8.22-36.53"/>
    <line class="cls-4" x1="574.93" y1="359.53" x2="576.41" y2="356.35"/>
    <path class="cls-4" d="m544.79,515.17s.58-60.37,2.88-77.58c2.3-17.21,11.49-44.22,11.49-44.22l14.1-30.21"/>
    <path class="cls-4" d="m554.55,441.58s-4.02,34.62-6.32,73.68"/>
    <path class="cls-4" d="m535.03,515.17s1.15-55.21-1.15-62.66c-2.3-7.46-6.16-4.18-6.16-4.18,0,0-10.62,1.25-14.48,7.41"/>
    <path class="cls-4" d="m537.67,444.62c3,16.83.23,70.61.23,70.61"/>
    <path class="cls-4" d="m565.95,405.05c-4.09,2.93-7.15,7.07-8.76,11.84-6.89,18.38-6.11,98.36-6.11,98.36"/>
    <path class="cls-4" d="m522.4,390.09c4.31,5.21,7.62,11.18,9.75,17.61,9.2,26.43,12.64,94.85,10.91,107.47"/>
    <path class="cls-4" d="m545.74,414.81c-.55,33.35-.95,100.35-.95,100.35"/>
    <path class="cls-4" d="m545.81,410.66c.38-22.05.83-43.62,1.25-55.23,1.14-29.86,2.93-28.19,2.93-28.19,0,0,2.13-6.69,14.06-5.93"/>
    <path class="cls-11" d="m531.11,435.85s-9.61-8.57-5.77-12.79c3.84-4.22,27.67-7.31,34.59-1.83,6.92,5.48-8.45,13.2-14.21,14.89s-12.69,1.13-14.6-.28Z"/>
    <path class="cls-4" d="m539.98,428.83c-.13.83-.21,1.66-.21,2.5"/>
    <path class="cls-4" d="m543.29,418.82c-1,2.05-1.84,4.18-2.5,6.37"/>
    <path class="cls-11" d="m531.11,491.87s-9.61-8.57-5.77-12.78c3.84-4.2,27.67-7.31,34.59-1.83,6.92,5.48-8.45,13.2-14.21,14.89-5.77,1.69-12.69,1.13-14.6-.29Z"/>
    <path class="cls-4" d="m543.29,474.85s-3.52,7.03-3.52,12.51"/>
    <path class="cls-11" d="m538.26,468.18s-6.52-5.82-3.92-8.68,18.77-5.01,23.49-1.25-5.73,8.96-9.65,10.11c-3.92,1.15-8.62.78-9.92-.18Z"/>
    <path class="cls-4" d="m546.55,456.62s-2.39,4.78-2.39,8.53"/>
    <rect class="cls-2" x="529.23" y="505.64" width="26.01" height="57.68"/>
  </g>
  <g id="freepik--Picture--inject-107">
    <rect class="cls-9" x="141.23" y="24.52" width="301.55" height="215.57"/>
    <polyline class="cls-9" points="151.59 174.16 151.59 230.91 432.41 230.91 432.41 67.63"/>
    <polyline class="cls-9" points="432.41 62.36 432.41 33.71 151.59 33.71 151.59 167.58"/>
    <path class="cls-9" d="m151.59,33.71s59.22,26.7,55.72,49.45c-3.5,22.75-54.23,19.24-54.23,19.24"/>
    <path class="cls-9" d="m235.19,131.6c-36.29-1.56-63.55.24-83.59,3.22"/>
    <path class="cls-9" d="m432.41,197.63c-16.77-16.4-55.06-45.42-125.45-58.62-11.41-2.14-23.65-3.85-36.78-5.01-9.38-.83-18.28-1.48-26.7-1.95"/>
    <path class="cls-9" d="m398.9,122.75c-22.42,5.39-51.5,8.68-80.17,1.25-17.25-4.37-33.25-12.67-46.76-24.24-27.79-23.77-22.3-46.95-5.98-66.08"/>
    <path class="cls-9" d="m432.41,111.89c-8.77,3.62-17.77,6.69-26.93,9.17"/>
    <path class="cls-9" d="m357.71,62.89c4.91-9.57,9.43-19.24,13.44-29.18"/>
    <path class="cls-9" d="m214.26,230.91c30.63-25.29,63.58-56.31,92.7-91.91,4.01-4.91,7.95-9.91,11.8-15.02,13.25-17.37,25.17-35.73,35.65-54.91"/>
    <path class="cls-9" d="m394.81,230.91c-17.77-23.52-46.47-50.6-80.53-42.08-24.49,6.12-30.26,23.77-28.78,42.08"/>
    <path class="cls-9" d="m180.87,187.69c9.41,13.66,28.11,17.1,41.77,7.69,13.66-9.41,17.1-28.11,7.69-41.77-9.41-13.66-28.11-17.1-41.77-7.69-12.06,8.31-16.37,24.11-10.2,37.39"/>
    <circle class="cls-10" cx="381.3" cy="86.73" r="13.05" transform="translate(156.09 406.4) rotate(-67.65)"/>
    <circle class="cls-8" cx="388.49" cy="190.19" r="11.25" transform="translate(-20.7 330.41) rotate(-45)"/>
    <circle class="cls-9" cx="302.12" cy="93.93" r="7.65"/>
  </g>
  <g id="freepik--character-3--inject-107">
    <ellipse class="cls-12" cx="459.8" cy="256.69" rx="49.19" ry="19.34"/>
    <rect class="cls-1" x="454.29" y="474.07" width="9.81" height="82.41"/>
    <rect class="cls-3" x="417.36" y="556.02" width="80.8" height="5.19"/>
    <rect class="cls-7" x="391.97" y="391.55" width="134.46" height="58.86"/>
    <rect class="cls-7" x="402.59" y="466.37" width="114.61" height="11.17"/>
    <rect class="cls-7" x="402.59" y="444.87" width="114.61" height="22.29"/>
    <path class="cls-7" d="m394.44,393.37c-7.13-9.37-26.63-1.74-20.26,7.92,7.7,11.57,13.17,24.48,16.12,38.06,5.93,28.78.99,37.45,5.93,38.16,4.94.71,18.77,0,18.77,0,0,0-2.97-38.16-10.9-61.93-3.17-9.65-5.89-17.28-9.66-22.22Z"/>
    <path class="cls-7" d="m525.4,393.37c7.14-9.37,26.63-1.74,20.27,7.92-7.71,11.57-13.18,24.48-16.12,38.06-5.94,28.78-.99,37.45-5.94,38.16-4.96.71-18.77,0-18.77,0,0,0,2.98-38.16,10.9-61.93,3.17-9.65,5.89-17.28,9.66-22.22Z"/>
    <path class="cls-6" d="m440.47,255.2s-1.25.96-2.2-3.04c-.95-4,0-14.06,6.34-20.02,6.34-5.96,27.04-9.66,40.14-2.9,13.1,6.76,16.97,19.19,17.38,29.29.41,10.1.41,15.59-11.04,22.76s-17.66,6.07-21.66,4.69c-4-1.38-4.13-19.73-14.34-24.41s-14.63-6.37-14.63-6.37Z"/>
    <path class="cls-6" d="m478.13,275.06s.08-.35.16-1c.69-5.64-.03-11.36-2.1-16.65-3.75-9.66-18.89-11.86-25.65-9.66s-9.8,5.01-10.01,7.51c-.09,2.22.05,4.43.43,6.62,0,0,11.44-12.69,19.45-8.97s11.59,7.72,12.51,13.38,1.1,11.86,2.34,12.84,2.6.09,2.88-4.05Z"/>
    <path class="cls-3" d="m415.98,332.45l-19.72,33.3c-2.93,2.5-5.64,5.25-8.11,8.21-3.84,4.67-3.75,7.71-1.53,8.83,2.23,1.13,11.26,1.73,11.26,1.73,0,0,9.27-.85,10.6-5.49.9-2.97,2.21-5.8,3.9-8.41l11.69-14.49,4.74-23.02-12.84-.65Z"/>
    <path class="cls-9" d="m399.9,367.04s8.35,2.39,8.47,7.19"/>
    <path class="cls-6" d="m430.33,309.58s-7.67.58-9.7,4.19-11.04,23.87-11.04,23.87l21.41,3.15-.68-31.22Z"/>
    <path class="cls-3" d="m507,332.57l18.18,34.21c2.8,2.65,5.37,5.53,7.68,8.61,3.6,4.86,3.32,7.88,1.08,8.91s-11.36,1.15-11.36,1.15c0,0-9.21-1.33-10.3-6.02-.75-3.02-1.93-5.91-3.49-8.6l-10.91-15.02-3.75-23.2,12.88-.05Z"/>
    <path class="cls-9" d="m521.53,367.88s-8.46,1.96-8.83,6.76"/>
    <path class="cls-3" d="m519.65,377.52s4.13-1.8,6.09-.86,2.38,10.92,1.68,11.26c-2.45.93-4.96,1.7-7.51,2.31-.94,0-7.35-3.12-6.54-4.55s3.85-6.26,3.85-6.26c.69-.77,1.51-1.42,2.43-1.9Z"/>
    <path class="cls-3" d="m532.79,378s6.12,1.25,5.72,2.79-1.08,6.01-2.01,7.51-4.33,1.61-4.33,1.61l.63-11.91Z"/>
    <path class="cls-3" d="m538.48,380.79c1.06,1.15,1.91,2.47,2.5,3.92.46,1.65,1.4,4.4-.25,4.87-1.65.46-2.24-2.72-2.63-3.6l-.39-.89.76-4.29Z"/>
    <path class="cls-3" d="m526.76,376.94s5.58-1.13,6.01,1.06c.43,2.19.44,10.65-.6,11.89s-3.04,2.13-3.69,0c-.65-2.13-1.71-12.95-1.71-12.95Z"/>
    <path class="cls-3" d="m520.86,377s5.22-1.61,5.89-.06,2.73,12.28,1.71,12.98-2.5,2.15-3.55-.29c-1.11-3.24-2.03-6.54-2.75-9.89"/>
    <path class="cls-3" d="m522.78,376.41s-3.52.7-4.45,1.83-4.3,6.26-4.91,7.41.41,3.42,1.88,4.57c1.91,1.52,4.02,2.78,6.26,3.75,1.03.15,3.22-.58,2.5-2.04-1.58-2.26-3.29-4.43-5.12-6.49"/>
    <path class="cls-6" d="m487.1,309.7c2.88-.73,5.93-.15,8.33,1.59,4.05,2.93,15.99,23.2,15.99,23.2l-16.89,6.08-7.43-30.87Z"/>
    <path class="cls-6" d="m448.7,279.91s1.93,15.23-.7,22.05c-2.63,6.82-17.67,7.62-17.67,7.62,0,0-6.04,37.04-5.16,45.3.89,8.26,8.47,15.49,9.1,16.95.45,1.05-.65,11.19-2.28,12.86-12.45,12.94-34.82,41.47-7.87,60.8,0,0,13.3,1.93,20.47,1.58h41.73c8.63.02,16.51-4.89,20.3-12.65l.15-.3c4.72-10.01-5.01-35.04-18.77-48.29-3.39-3.27,0-14,0-14-.39-1.38,10.7-13.53,9.22-22.9-1.74-11.05-10.14-39.19-10.14-39.19,0,0-10.59.48-14.44-3.38-3.85-3.85-3.68-13.68-3.68-13.68l-20.27-12.78Z"/>
    <path class="cls-3" d="m462.92,398.88s8.36,2.92,17.29,17.52c8.93,14.6,6.61,28.78,4.67,29.92-1.94,1.14-19.43.59-19.43.59l-16.9.39s3.69-45.7,14.38-48.41Z"/>
    <path class="cls-3" d="m473.61,307.1c-.34-.22-.66-.48-.95-.78-3.84-3.84-3.67-13.64-3.67-13.64l-20.3-12.78s1.93,15.23-.7,22.05c-.97,2.06-2.68,3.68-4.78,4.55,2.62,3.75,9.32,12.09,16.84,12.44,6.67.3,11.3-7.16,13.55-11.85Z"/>
    <path class="cls-13" d="m460.61,299.19s-7.85,8.58-12.39,9.57-5.01-2.25-5.01-2.25c0,0,5.99-2.29,5.99-8.62l11.4,1.3Z"/>
    <path class="cls-3" d="m463.97,250.23s10.21,3.99,12,12.69c1.79,8.7.14,14.2.14,14.2,0,0,3.87-.69,4.42,2.9.55,3.59-2.62,5.38-4.83,6.48-1.18.65-2.52.93-3.85.83-2.97,4.6-6.76,8.62-11.17,11.86-6.89,4.83-8.83,3.44-12.83.14s-8.15-12.28-8.7-16.83c-.55-4.55,1.65-10.9,1.8-12.28.15-1.38-2.21-8.55,1.1-14.62,3.32-6.07,14.01-8.28,21.92-5.38Z"/>
    <path class="cls-9" d="m447.7,289.26s5.24,2.63,10.01-.55"/>
    <path class="cls-9" d="m455.51,265.67s7.03-3.44,10.9,3.18"/>
    <path class="cls-9" d="m448.61,266.22s-3.18-2.89-6.76-.96"/>
    <path class="cls-13" d="m459.41,274.33c0,1.25-.58,2.21-1.25,2.21s-1.25-.99-1.25-2.21.58-2.2,1.25-2.2,1.25.99,1.25,2.2Z"/>
    <ellipse class="cls-13" cx="445.85" cy="273.13" rx="1.3" ry="2.21"/>
    <path class="cls-9" d="m449.98,273.73s.6,2.01-.21,2.82-3,2.62-1.4,4.22,5.01,2.62,7.03.6"/>
    <polygon class="cls-1" points="488 385.8 431.98 384.67 434.26 371.79 488 371.79 488 385.8"/>
    <path class="cls-3" d="m400.38,375.96s-4.23-1.54-6.13-.48-1.68,11.05-.96,11.26c2.5.79,5.04,1.43,7.62,1.91.94,0,7.13-3.59,6.26-5.01s-4.24-5.97-4.24-5.97c-.73-.73-1.6-1.31-2.54-1.73Z"/>
    <path class="cls-3" d="m387.32,377.27s-6.02,1.68-5.53,3.14,1.45,5.93,2.5,7.35,4.39,1.34,4.39,1.34l-1.36-11.82Z"/>
    <path class="cls-3" d="m381.79,380.41c-.98,1.22-1.74,2.59-2.25,4.07-.35,1.68-1.11,4.49.56,4.84s2.06-2.85,2.4-3.75l.33-.9-1.04-4.25Z"/>
    <path class="cls-3" d="m393.26,375.82s-5.64-.76-5.93,1.45.24,10.65,1.35,11.82,3.17,1.93,3.69-.21.89-13.06.89-13.06Z"/>
    <path class="cls-3" d="m399.14,375.51s-5.31-1.25-5.88.31-1.95,12.43-.89,13.06c1.06.64,2.62,1.99,3.53-.51.9-3.29,1.6-6.64,2.11-10.01"/>
    <path class="cls-3" d="m397.21,375.05s3.55.48,4.57,1.54,4.69,6.03,5.36,7.08-.19,3.43-1.58,4.68-5.01,3.89-6.04,4.1-3.25-.36-2.59-1.88c1.44-2.35,3-4.63,4.69-6.81"/>
    <path class="cls-3" d="m456.78,420.89s9.51-3.25,13.05,4.63-1.63,22.3-1.63,32.08.26,20.93-3.27,36.16c-3.53,15.23-3.27,38.79-3.27,38.79,0,0,5.44,9.79,3.75,17.94-1.69,8.16-4.89,12.51-7.61,12.24s-7.88-6.79-8.16-17.39c-.28-10.6,0-9.52-.28-25.84-.25-12.43-1.34-24.82-3.27-37.1-1.08-7.07-1.9-13.86-2.72-22.02-.81-8.16-1.31-41.93,13.38-39.49Z"/>
    <path class="cls-1" d="m459.22,550.18c-5.16,1.9-9.51-4.89-9.51-4.89.28,10.6,5.43,17.12,8.16,17.39s5.98-4.08,7.61-12.24c.56-3.73.22-7.55-1-11.12-.4,3.47-1.61,9.51-5.26,10.86Z"/>
    <path class="cls-3" d="m468.2,403.58s-8.2-9.4-16.63-8.43c-8.43.96-13.5,18.08-18.56,31.28-5.06,13.2-5.79,25.55-7.96,37.54-2.16,11.99-12.05,29.41-15.19,34.24-3.14,4.83-13.01,16.63-16.39,19.52s-8.2,5.01-6.02,6.26c2.18,1.25,9.87,1.93,15.67.49,5.79-1.44,10.6-3.38,11.81-5.31l1.25-.96.66-.49.38,1.64,6.89-3.94s.23-2.95.23-6.13-1.54-3.28-1.1-7.23,11.72-19.93,17.63-29.46c5.91-9.52,21.6-37.63,22.87-61.68"/>
    <path class="cls-1" d="m403.12,524.59c5.78-1.45,10.6-3.38,11.81-5.31l1.25-.96.66-.49.38,1.64,6.89-3.94s.23-2.95.23-6.13c0-2.26-.78-2.98-1.06-4.62-4.78,4.49-12.86,11.66-17.19,13.23-4.75,1.71-8.23-1.38-9.71-3.08-.92,1.02-1.9,1.98-2.92,2.9-3.37,2.89-8.2,5.01-6.02,6.26,2.18,1.25,9.89,1.94,15.68.5Z"/>
    <path class="cls-9" d="m421.97,412.2c5.53-4.98,12.47-8.11,19.86-8.97"/>
    <path class="cls-9" d="m462.92,398.88s16.98,2.98,31.66,18.48"/>
    <path class="cls-9" d="m479.08,402.69s13.86,2.5,21.75,10.87"/>
    <path class="cls-9" d="m427.97,401.32s10.6-1.9,15.22-.28"/>
    <path class="cls-3" d="m410.61,256.69c0-10.69,22.02-19.36,49.19-19.36s49.21,8.68,49.21,19.36c0,.66-.09,1.31-.25,1.95,11.32-27.03-1.42-58.11-28.45-69.43-27.03-11.32-58.11,1.42-69.43,28.45-5.49,13.11-5.49,27.87,0,40.98-.17-.64-.27-1.29-.28-1.95Z"/>
    <path class="cls-5" d="m459.8,186.74c-27.53,0-49.85,23.52-49.85,52.55,0,4.55.56,9.08,1.68,13.49,4.6-8.76,24.43-15.44,48.17-15.44s43.57,6.63,48.17,15.44c1.12-4.41,1.68-8.94,1.68-13.49,0-29.03-22.32-52.55-49.85-52.55Z"/>
    <path class="cls-14" d="m496.9,241.13c3.54,1.54,6.83,3.6,9.76,6.12,3.45-22.4-7.54-44.55-27.47-55.36,14.06,12.22,20.76,30.86,17.71,49.24h0Z"/>
    <path class="cls-7" d="m510.63,253.3c-1.43-10.75-23.64-19.27-50.83-19.27s-49.4,8.53-50.83,19.27c.53,1.81,1.16,3.6,1.89,5.34-.16-.64-.25-1.29-.25-1.95,0-10.69,22.02-19.36,49.19-19.36s49.21,8.68,49.21,19.36c0,.66-.09,1.31-.25,1.95.72-1.75,1.34-3.53,1.86-5.34Z"/>
  </g>
  <g id="freepik--character-2--inject-107">
    <ellipse class="cls-12" cx="275.58" cy="256.69" rx="49.19" ry="19.34"/>
    <rect class="cls-1" x="271.51" y="475.11" width="9.81" height="81.37"/>
    <rect class="cls-3" x="234.58" y="556.02" width="80.8" height="5.19"/>
    <rect class="cls-7" x="209.19" y="391.55" width="134.46" height="58.86"/>
    <rect class="cls-7" x="219.8" y="466.37" width="114.61" height="11.17"/>
    <rect class="cls-7" x="219.8" y="444.87" width="114.61" height="22.29"/>
    <path class="cls-7" d="m211.67,393.37c-7.14-9.37-26.64-1.74-20.27,7.92,7.7,11.57,13.17,24.48,16.12,38.06,5.94,28.78.99,37.45,5.94,38.16,4.96.71,18.77,0,18.77,0,0,0-2.97-38.16-10.89-61.93-3.18-9.65-5.91-17.28-9.67-22.22Z"/>
    <path class="cls-7" d="m342.59,393.37c7.14-9.37,26.64-1.74,20.27,7.92-7.7,11.57-13.17,24.48-16.12,38.06-5.94,28.78-.99,37.45-5.94,38.16-4.96.71-18.77,0-18.77,0,0,0,2.97-38.16,10.89-61.93,3.22-9.65,5.92-17.28,9.67-22.22Z"/>
    <path class="cls-6" d="m294.39,256.71s1.25.98,2.21-3.03c.96-4,0-14.06-6.34-20.02-6.34-5.96-27.04-9.66-40.14-2.9-13.1,6.76-16.97,19.17-17.38,29.24s-.41,15.59,11.04,22.76c11.45,7.17,17.66,6.07,21.66,4.69s4.13-19.73,14.34-24.43c10.21-4.69,14.62-6.32,14.62-6.32Z"/>
    <path class="cls-6" d="m256.74,276.58s-.08-.35-.16-1c-.7-5.64.02-11.36,2.09-16.65,3.75-9.66,18.91-11.86,25.66-9.66s9.79,5.01,10.01,7.51c.1,2.22-.04,4.44-.41,6.63,0,0-11.45-12.7-19.45-8.97-8,3.73-11.59,7.72-12.51,13.38s-1.1,11.86-2.34,12.83-2.62.08-2.89-4.05Z"/>
    <path class="cls-7" d="m303.19,316.89s11.11-1.49,15.2,6.67c4.09,8.16,18.58,59,13.13,63.48s-11.84-3.93-23.42-22.71c-2.75-4.45-6.26-44.46-6.26-44.46,0,0-.24-1.1,1.35-2.98Z"/>
    <path class="cls-6" d="m263.76,285.04s1.91,15.22-.7,22.05c-2.62,6.83-8.92,7.51-12.07,8.57-1.81.63-3.69,1.05-5.59,1.25,0,0-6.13,29.73-5.26,37.95.88,8.22,7.7,17.32,6.83,21.7-.86,4.38-3.5,8.4-15.58,21.68s-11.36,39.37,7.7,47.24c0,0,13.3,1.93,20.47,1.58h57.03c6.2-2.35,11.25-7,14.11-12.98,4.73-10.01-.88-25.03-6.12-35.34-5.24-10.31-10.85-17.52-14.53-25.89-3.68-8.37,4.03-12.94,2.1-23.96-1.93-11.02-10.5-33.78-10.5-33.78,0,0-10.14.18-13.99-3.68-3.85-3.85-3.68-13.64-3.68-13.64l-20.23-12.75Z"/>
    <path class="cls-1" d="m255.3,413.35s16.27-4.59,27.99-3.67c11.72.93-1.36,15.55-7.37,18.29-6.01,2.74-21.07-11.42-20.62-14.63Z"/>
    <path class="cls-7" d="m253.56,334.2h43.03l-2.23-19.77c-2.46-.36-4.78-1.39-6.69-2.98-3.85-3.84-3.68-13.64-3.68-13.64l-20.23-12.78s1.91,15.22-.7,22.05c-2.05,5.32-6.33,6.92-9.61,7.86l.11,19.26Z"/>
    <path class="cls-13" d="m275.73,299.22l-11.81,5.17s1.04-12.36-.21-19.34,12.02,14.18,12.02,14.18Z"/>
    <path class="cls-7" d="m270.94,251.76s-10.2,3.99-12,12.69c-1.8,8.7-.14,14.2-.14,14.2,0,0-3.85-.69-4.4,2.9s2.62,5.37,4.83,6.48c1.18.65,2.52.93,3.85.83,2.97,4.6,6.76,8.62,11.17,11.86,6.89,4.83,8.83,3.44,12.83.14,3.99-3.3,8.15-12.28,8.76-16.83s-1.66-10.9-1.8-12.28,2.21-8.55-1.1-14.62c-3.32-6.07-14.16-8.28-22-5.38Z"/>
    <path class="cls-9" d="m284.74,269.96s.55,11.26,1.93,12.83,3.32,1.93,2.5,3.3-5.01,1.11-5.01,1.11"/>
    <path class="cls-9" d="m287.22,290.78s-5.24,2.63-10.01-.55"/>
    <path class="cls-9" d="m270.94,278.23s5.01,1.93,8.01-1.93"/>
    <path class="cls-9" d="m279.36,267.2s-7.03-3.44-10.9,3.18"/>
    <path class="cls-9" d="m286.28,267.75s3.18-2.89,6.76-.96"/>
    <path class="cls-9" d="m287.36,275.89c1.89.96,4.19.56,5.66-.98"/>
    <path class="cls-9" d="m273.29,279.47s2.89.41,4.28-1.38"/>
    <path class="cls-9" d="m289.02,276.86s.96.69,3.58-.41"/>
    <line class="cls-9" x1="289.51" y1="362.38" x2="294.18" y2="360.49"/>
    <line class="cls-9" x1="266.05" y1="371.91" x2="285.88" y2="363.86"/>
    <line class="cls-9" x1="274.72" y1="371.58" x2="283.4" y2="368.21"/>
    <path class="cls-9" d="m254.93,397.01c9.6-3.39,29.42-8.5,48.74-1.79"/>
    <path class="cls-9" d="m249.01,399.4s.94-.45,2.63-1.14"/>
    <path class="cls-9" d="m295.63,389.79c2.08.38,4.12.96,6.09,1.73"/>
    <path class="cls-9" d="m275.21,389.59c5.35-.72,10.75-.85,16.13-.39"/>
    <path class="cls-7" d="m272.58,417.44s-4.47-7.14-14.05-4.69-15.62,13.39-9.6,29.46c6.02,16.07,34.36,69.15,39.27,77.18,4.91,8.03,5.36,18.52,4.68,26.78-.67,5.37,2.24,10.54,7.17,12.76,2.23,1.11,8.03-7.37,7.81-15.39-.23-8.02-4.91-18.77-7.36-23.65s-9.15-25.03-12.28-39.49-10.49-45.05-12.28-52.42-2.03-8.71-3.37-10.54Z"/>
    <path class="cls-1" d="m303.59,542.19c-3.34,2.5-10.49,1.78-10.49,1.78h-.08c0,.76-.09,1.5-.15,2.23-.65,5.35,2.25,10.51,7.17,12.73,2.23,1.11,8.03-7.37,7.81-15.39-.14-5.01-1.99-10.99-3.97-16,.93,5.51,1.79,13.13-.3,14.67Z"/>
    <path class="cls-7" d="m305.65,426.2c-2.41-5.28-6.24-9.78-11.06-13-3.24-2.13-7.21-3.85-11.26-3.48-9.82.89-15.39,9.15-5.13,28.78,10.26,19.63,37.48,89.89,38.79,94.36s-3.57,9.37-8.03,14.94-12.28,8.26-8.92,11.16,9.37,2.9,17.62-.68c8.25-3.58,16.07-8.7,17.86-11.82,1.79-3.13-4.02-13.6-6.69-19.62-2.68-6.02-8.26-31.02-9.82-45.96-1.43-13.09-5.97-38.88-13.34-54.68Z"/>
    <path class="cls-1" d="m334.09,538.4c-7.27,11.11-22.7,15.39-22.7,15.39l-4.74-3.62c-4.35,4-9.46,6.26-6.63,8.76,3.34,2.9,9.37,2.9,17.62-.68,8.25-3.58,16.07-8.7,17.86-11.82.84-1.48,0-4.55-1.4-8.03Z"/>
    <path class="cls-7" d="m245.34,316.89s-11.12-1.49-15.2,6.67c-4.08,8.16-12.84,49.2-7.38,53.68,5.46,4.48,15.94-2.92,17.31-7.97s6.61-49.43,6.61-49.43c0,0,.26-1.08-1.33-2.95Z"/>
    <path class="cls-3" d="m284.12,332.94c-1.29-.04-2.31-1.12-2.26-2.41.02-.74.4-1.43,1.01-1.85l28.9-19.53c1.06-.72,2.51-.44,3.23.62s.44,2.51-.62,3.23h0l-28.92,19.55c-.4.27-.87.41-1.35.4Z"/>
    <path class="cls-7" d="m225.08,370.62s5.26-7.77,17.52-12.83c12.26-5.06,23.34-12.84,24.11-13.76s3.5-11.26,4.28-13.61,11.66-4.28,11.66-4.28c0,0,6.03,3.32,6.81,3.89s3.12,4.87.98,6.42-7.4,2.34-7.4,2.34c0,0-2.72,6.41-4.86,8.95-2.14,2.54-9.53,5.83-9.53,5.83,0,0-26.64,27.03-31.49,32.08-4.85,5.06-11.72,3.28-13.86.94-2.14-2.34-1.5-15.13-1.5-15.13"/>
    <path class="cls-9" d="m275.36,339.36s6.41-4.89,7.76-5.01,7.68.84,7.68.84"/>
    <path class="cls-9" d="m274.18,334.72s7.85-3.45,8.43-3.45,8.01,1.94,8.01,1.94"/>
    <path class="cls-9" d="m273.42,331.1s7.67-2.87,8.95-2.69c2.58.84,5.11,1.82,7.58,2.94"/>
    <path class="cls-7" d="m323.82,317.02c-.78-2.25-1.33-4.57-1.66-6.93-.3-3-1.25-5.72-3.15-3.15s-1.05,6.62-.9,7.07c.15.45,5.72,3.02,5.72,3.02Z"/>
    <path class="cls-7" d="m323.82,317.02s-5.12-3.17-7.51-4.37-6.17-.6-6.92,1.05c-.41.75-.66,1.57-.76,2.41,0,0-2.1,1.35-2.25,2.7s-.15,2.57-.15,2.57c-.72.55-1.21,1.36-1.35,2.25v1.96s-1.36,2.1-.9,3.15c.72,1.51,1.87,2.76,3.3,3.62,1.25.45,1.35-1.35,1.35-1.35,0,0,2.11,1.25,5.73,2.85,3.62,1.6,5.72,2.5,5.72,2.5,0,0-.15,9.18-1.05,20.47-.9,11.29-.9,21.53,2.7,27.25,3.6,5.72,7.83,5.87,9.79,2.87s6.18-16.42,4.52-25.75c-1.66-9.33-7.51-28-8.88-31.76-1.38-3.75-3.33-12.44-3.33-12.44Z"/>
    <path class="cls-3" d="m226.4,256.69c0-10.69,22.02-19.36,49.19-19.36s49.19,8.67,49.19,19.36c0,.66-.09,1.31-.25,1.95,11.32-27.03-1.42-58.11-28.45-69.43-27.03-11.32-58.11,1.42-69.43,28.45-5.49,13.11-5.49,27.87,0,40.98-.16-.64-.25-1.29-.25-1.95Z"/>
    <path class="cls-5" d="m275.58,186.74c-27.53,0-49.85,23.52-49.85,52.55.02,4.55.6,9.07,1.74,13.48,4.6-8.76,24.43-15.44,48.17-15.44s43.57,6.63,48.17,15.44c1.12-4.41,1.68-8.94,1.68-13.49-.06-29.02-22.39-52.54-49.91-52.54Z"/>
    <path class="cls-14" d="m312.69,241.13c3.54,1.54,6.83,3.6,9.76,6.12,3.46-22.39-7.5-44.53-27.4-55.36,14.03,12.23,20.71,30.88,17.64,49.24Z"/>
    <path class="cls-7" d="m326.41,253.3c-1.43-10.75-23.64-19.27-50.83-19.27s-49.4,8.53-50.83,19.27c.53,1.81,1.16,3.6,1.89,5.34-.16-.64-.25-1.29-.25-1.95,0-10.69,22.02-19.36,49.19-19.36s49.19,8.67,49.19,19.36c0,.66-.09,1.31-.25,1.95.72-1.75,1.36-3.53,1.89-5.34Z"/>
  </g>
  <g id="freepik--character-1--inject-107">
    <ellipse class="cls-12" cx="91.37" cy="256.69" rx="49.19" ry="19.34"/>
    <rect class="cls-1" x="88.73" y="474.07" width="9.81" height="82.41"/>
    <rect class="cls-3" x="51.79" y="556.02" width="80.8" height="5.19"/>
    <rect class="cls-7" x="26.4" y="391.55" width="134.46" height="58.86"/>
    <rect class="cls-7" x="37.01" y="466.37" width="114.61" height="11.17"/>
    <rect class="cls-7" x="37.01" y="444.87" width="114.61" height="22.29"/>
    <path class="cls-7" d="m28.88,393.37c-7.14-9.37-26.63-1.74-20.26,7.92,7.71,11.57,13.19,24.48,16.14,38.06,5.94,28.78.99,37.45,5.94,38.16,4.96.71,18.77,0,18.77,0,0,0-2.98-38.16-10.9-61.93-3.2-9.65-5.93-17.28-9.7-22.22Z"/>
    <path class="cls-7" d="m159.9,393.37c7.14-9.37,26.63-1.74,20.26,7.92-7.7,11.57-13.16,24.48-16.1,38.06-5.94,28.78-1,37.45-5.94,38.16-4.94.71-18.77,0-18.77,0,0,0,2.98-38.16,10.9-61.93,3.1-9.65,5.83-17.28,9.66-22.22Z"/>
    <path class="cls-6" d="m63.4,242.89s-10.41,12.15-9.53,23.42c.88,11.27,8.85,23.42,14.69,26.2s37.54,1.91,43.38-.51,17.18-14.93,17.52-23.09c.34-8.16-6.26-22.72-14.58-31.41s-27.53-6.77-36.96-4.17c-5.69,1.66-10.74,4.98-14.51,9.55Z"/>
    <path class="cls-6" d="m70,279.15s.7-13.53,5.01-19.43c4.3-5.91,17.69-7.81,26.2-5.89,8.51,1.91,11.26,6.26,12.51,11.26s.53,12.68.53,12.68c0,0-2.95-16.49-10.94-18.23s-22.91-.86-25.16,5.91c-2.25,6.77-2.08,15.79-4.5,15.97-1.54-.02-2.94-.88-3.64-2.25Z"/>
    <polygon class="cls-1" points="73.04 527.9 67.39 544.01 69 544.81 75.23 534.31 73.04 527.9"/>
    <path class="cls-7" d="m121.65,414.02s9.94-4.82,16.74,4.27c6.81,9.08-.85,34.9-2.26,38.3s-25.8,57.18-30.34,65.07-3.98,17.66-4.83,22.16c-.85,4.5,3.04,11.91,4.74,13.89s3.67,2.5,3.75,4.04-8.13,1.63-11.92.81-7.04-4.74-8.13-7.86-5.83-9.9-8.67-13.69-9.48-9.76-7.73-13.15c1.75-3.39,12.61-7.18,15.59-9.75s11.14-20.71,13.05-39.32c1.91-18.61,4.6-26.99,4.6-26.99h-15.43l30.84-37.79Z"/>
    <path class="cls-1" d="m109.5,561.79c-.14-1.49-2.1-2.05-3.75-4.04-1.77-2.38-3.12-5.03-4.02-7.86-1.24-.04-2.47.27-3.54.89-1.29.83-2.65,1.54-4.05,2.14,0,0-5.81-16.07-9.48-21.87-1.88-2.95-3.49-5.86-4.63-8.11-3.15,1.64-6.08,3.35-6.93,5.01-1.75,3.39,4.88,9.36,7.73,13.15,2.85,3.79,7.58,10.57,8.67,13.69s4.34,7.04,8.13,7.86c3.79.81,12.01.65,11.87-.85Z"/>
    <path class="cls-9" d="m106.85,449.49s5.27-16.73,12.41-25.38"/>
    <path class="cls-5" d="m83.57,301.37s.7,10.57.53,13.7-2.43,3.13-2.43,3.13c-3.33-1.12-6.75-1.96-10.22-2.5-5.11-.69-14.62-1.15-17.87,4.88-2.7,5.01-26.67,66.32-23.77,67.51,0,0,1.9.78,8.86,3.75,6.96,2.98,11.26-6.54,11.26-6.54l9.79-5.88s-2.31,12.75-2.5,15.54-1.16,7.88-1.16,7.88h79.81l.23-28.3,14.85-6.26s-5.54-33.78-10.5-43.68c-4.75-9.52-11.36-8.93-17.86-8.93-3.51-.12-7.02.34-10.39,1.35l-2.09.46c-1.2-2.47-2.21-5.03-3.02-7.66-1.16-3.94-1.85-7.19-1.85-7.19l-21.66-1.25Z"/>
    <path class="cls-7" d="m149.12,359.33s6.51,16.1,4.86,23.55-11.9,10.51-16.55,7.51c-4.65-3-.83-16.97,1.65-31.04s8.1-6.59,10.05-.01Z"/>
    <path class="cls-7" d="m81.63,318.2s15.42,14.82,19.78,12.9c2.98-1.25,7.12-9,9.42-13.76l-.73.16c-1.2-2.47-2.21-5.03-3.02-7.66-1.16-3.94-1.85-7.19-1.85-7.19l-21.67-1.28s.7,10.57.53,13.7-2.47,3.13-2.47,3.13Z"/>
    <polygon class="cls-13" points="93.5 307.59 83.9 313 83.54 301.37 93.5 307.59"/>
    <path class="cls-7" d="m82.32,257.46c-3.63,1.8-6.39,4.99-7.63,8.85-1.46,4.06-2.17,8.36-2.09,12.68,0,0-4.86-3.99-4.86,2.08s2.95,7.28,4.52,7.63c.91.21,1.86.21,2.78,0,0,0,2.77,9.55,5.89,12.33s11.97,10.92,18.39,8.85c6.42-2.08,10.76-8.8,13.03-13.19s2.09-15.62,1.56-22.9-2.43-13.36-8.85-15.97c-6.42-2.6-18.07-2.78-22.75-.35Z"/>
    <path class="cls-9" d="m114.26,277.77s2.94-2.95,3.12.86-2.94,9.55-2.94,9.55l-.18-10.41Z"/>
    <path class="cls-9" d="m94.12,292.86c1.86,1.28,4.39.99,5.91-.69"/>
    <path class="cls-9" d="m90.13,297.72s8.67,3.3,11.97-.86"/>
    <path class="cls-13" d="m89.91,281.84c0,1.25-.7,2.18-1.56,2.18s-1.55-.98-1.55-2.18.69-2.16,1.55-2.16,1.56.98,1.56,2.16Z"/>
    <path class="cls-13" d="m105.06,281.84c0,1.25-.7,2.18-1.56,2.18s-1.56-.98-1.56-2.18.7-2.16,1.56-2.16,1.56.98,1.56,2.16Z"/>
    <path class="cls-9" d="m82.67,276.9s5.56-3.64,9.89-.86"/>
    <path class="cls-9" d="m99.68,275.68s5.38-2.6,8.85,1.04"/>
    <path class="cls-3" d="m65.93,327.45s4.04,10.2,4.43,18.28-2.31,31.16-2.31,31.16c0,0,17.52,4.42,22.89,6.72,5.37,2.3,20.02,6.73,20.02,6.73l-1.35-49.8s-27.88-11.16-31.53-11.92c-4.02-.61-8.07-1-12.14-1.16Z"/>
    <path class="cls-3" d="m109.59,340.54s20.77-12.13,24.43-12.7c3.65-.58,16.35-3.47,16.35-3.47,0,0-1.35,35.59-1.35,41.77s.2,8.65.2,8.65c0,0-31.16,9.23-38.28,15.58l-1.35-49.83Z"/>
    <line class="cls-9" x1="114.23" y1="370.65" x2="130.41" y2="364.12"/>
    <line class="cls-9" x1="114.23" y1="377.45" x2="127.81" y2="371.96"/>
    <path class="cls-9" d="m140.33,340.89s-10.17-9.92-14.35-5.48-.79,20.37,6.78,25.85,9.66,2.87,9.92-4.7"/>
    <path class="cls-9" d="m120.24,337.5s-4.7,4.18-3.4,6.78c1.3,2.6,4.44,4.18,2.88,6.79s-6.01,2.62-5.48,5.48,3.65,2.62,2.6,4.44-3.13.78-2.87,3.65l.26,2.88"/>
    <path class="cls-9" d="m128.85,350.02c1.6,1.39,2.78,3.2,3.4,5.23.62,1.94.8,3.99.51,6.01l4.44-4.44"/>
    <path class="cls-9" d="m72.45,333.6l3.13,19.06,28.78,11.49-1.05-19.85s-24.33-10.99-30.86-10.7Z"/>
    <line class="cls-9" x1="91.51" y1="363.86" x2="103.78" y2="368.56"/>
    <line class="cls-9" x1="88.38" y1="369.87" x2="104.04" y2="374.83"/>
    <path class="cls-9" d="m133.81,348.98c.08-1.23.52-2.4,1.25-3.39.89-1.12,2.23-1.79,3.65-1.83,0,0,.05,6.78-4.91,5.22Z"/>
    <path class="cls-9" d="m135.64,362.82c-4.77,5.45-8.33,11.84-10.45,18.77"/>
    <path class="cls-7" d="m153.33,342.56c-2.26,1.1-4.44,2.36-6.53,3.75-.82.82-.81,2.14,0,2.96.04.04.09.08.13.12.89.64,8.76-2.05,9.71-2.69,1.07-.62,1.43-2,.8-3.06-.11-.19-.25-.36-.41-.51-1.28-1.59-3.07-.44-3.7-.56Z"/>
    <path class="cls-7" d="m153.33,348.06c-2.26,1.1-4.44,2.35-6.53,3.75-.81.81-.81,2.13,0,2.94.04.04.09.09.14.13.89.64,8.76-2.05,9.71-2.69,1.07-.62,1.43-2,.8-3.06-.11-.19-.25-.36-.41-.51-1.28-1.56-3.07-.41-3.7-.55Z"/>
    <path class="cls-7" d="m154.48,353.62c-1.9.91-3.73,1.94-5.48,3.1-.68.69-.68,1.79,0,2.48.04.03.07.07.11.1.75.54,7.3-1.71,8.16-2.25.89-.53,1.19-1.68.66-2.57-.09-.16-.21-.31-.35-.43-1.06-1.26-2.57-.3-3.1-.43Z"/>
    <path class="cls-7" d="m153.98,358.63c-1.97.74-3.88,1.61-5.73,2.6-.74.62-.84,1.72-.23,2.47.03.04.07.08.1.11.7.6,7.42-1.05,8.32-1.51.94-.44,1.33-1.56.89-2.5-.08-.16-.18-.32-.3-.45-.89-1.33-2.53-.5-3.05-.71Z"/>
    <polygon class="cls-1" points="203.57 500.58 212.86 511.78 214.62 510.5 209.34 500.1 203.57 500.58"/>
    <path class="cls-7" d="m144.76,387.27s5.99,0,11.45,11.72c5.46,11.72,44.16,69.75,53.74,76.6,9.58,6.86,25.63,6.81,28.08,6.81s8.76-3.82,8.76.28-10.09,12-17.18,15.02c-7.09,3.02-19.34,1.91-22.07,3s-4.64-.28-6.01-4.37c-1.36-4.09-2.5-13.35-9.81-21.27s-22.09-20.45-28.08-23.99c-5.99-3.54-22.42-17.19-26.26-26.45-3.84-9.26-10.64-22.9-10.64-22.9,0,0,10.11-14.18,18.02-14.45Z"/>
    <path class="cls-1" d="m246.72,482.68c0-4.09-6.26-.28-8.76-.28-.69,0-2.44,0-4.8-.15-.86,1.59-2.2,4.38-2.01,6.42l.28,3s-18.27,5.18-26.72,3c-1.55-.4-2.89-.76-4.03-1.08.28,1.05.51,1.96.75,2.7,1.36,4.09,3.28,5.46,6.01,4.37s15.02,0,22.07-3c7.06-3,17.22-10.9,17.22-14.99Z"/>
    <path class="cls-6" d="m132.76,387.27s-66.24,3.82-79.06,10.64c-12.81,6.82-13.93,21.53-10.36,35.16,3.57,13.63,21.81,22.9,23.96,24.26s13.39,11.41,13.39,11.41l15.02-18.27s45.81-59.42,47.44-61.31l1.64-1.9s-8.21-.81-12.02.01Z"/>
    <line class="cls-9" x1="65.43" y1="454.05" x2="87.24" y2="454.05"/>
    <path class="cls-7" d="m60.96,367.73l4.08-20.83s10.57-4.23,11.94-4.23,1.8.9.9,2.41-7.85,3.17-8.46,3.63-1.25,4.68-1.25,4.68c0,0,6.18-3.18,7.09-3.48s8.46,3.18,9.06,3.63.6,1.5-.45,2.26l-1.06.75c.56.9.77,1.97.6,3.02-.45,1.25-2.26,1.96-2.26,1.96,0,0,3.75,2.41,3.33,3.75s-7.09-.15-8.01-.3-2.41,6.34-6.03,8.91c-2.36,1.69-4.63,3.5-6.79,5.43,0,0-13.09,14.34-19.58,18.44s-12.99,1.81-15.02-3.02c-2.03-4.83-.15-10.11,5.59-14.79,5.74-4.68,26.33-12.24,26.33-12.24Z"/>
    <path class="cls-7" d="m68.07,358.97s6.94-4.83,8.3-4.68c2.21.61,4.38,1.36,6.49,2.26"/>
    <path class="cls-7" d="m68.56,363.95s6.49-3.47,7.4-3.47c1.78.26,3.54.61,5.28,1.05"/>
    <path class="cls-3" d="m42.18,256.69c0-10.69,22.02-19.36,49.19-19.36s49.19,8.67,49.19,19.36c0,.66-.09,1.31-.25,1.95,11.59-26.97-.88-58.23-27.86-69.82-26.97-11.59-58.23.88-69.82,27.86-2.89,6.72-4.36,13.96-4.32,21.28-.01,7.1,1.39,14.13,4.12,20.68-.16-.64-.25-1.29-.25-1.95Z"/>
    <path class="cls-5" d="m91.37,186.74c-27.53,0-49.85,23.52-49.85,52.55,0,4.55.56,9.08,1.68,13.49,4.6-8.76,24.43-15.44,48.17-15.44s43.57,6.63,48.17,15.44c1.12-4.41,1.68-8.94,1.68-13.49,0-29.03-22.32-52.55-49.85-52.55Z"/>
    <path class="cls-14" d="m128.47,241.13c3.54,1.54,6.83,3.6,9.76,6.12,3.44-22.41-7.58-44.57-27.53-55.36,14.06,12.22,20.76,30.86,17.71,49.24h.06Z"/>
    <path class="cls-7" d="m142.2,253.3c-1.43-10.75-23.64-19.27-50.83-19.27s-49.4,8.53-50.83,19.27c.53,1.81,1.16,3.6,1.89,5.34-.16-.64-.25-1.29-.25-1.95,0-10.69,22.02-19.36,49.19-19.36s49.19,8.67,49.19,19.36c0,.66-.09,1.31-.25,1.95.72-1.75,1.36-3.53,1.89-5.34Z"/>
  </g>
</svg>