<?xml version="1.0" encoding="UTF-8"?>
<svg id="Layer_1" data-name="Layer 1" xmlns="http://www.w3.org/2000/svg" xmlns:xlink="http://www.w3.org/1999/xlink" viewBox="0 0 612 612">
  <defs>
    <style>
      .cls-1 {
        opacity: .8;
      }

      .cls-1, .cls-2, .cls-3, .cls-4, .cls-5, .cls-6 {
        stroke-width: 0px;
      }

      .cls-1, .cls-3 {
        isolation: isolate;
      }

      .cls-1, .cls-3, .cls-5, .cls-7 {
        fill: #fff;
      }

      .cls-8, .cls-9, .cls-10, .cls-11, .cls-7, .cls-12 {
        stroke-linecap: round;
        stroke-linejoin: round;
      }

      .cls-8, .cls-9, .cls-13, .cls-11, .cls-7, .cls-12 {
        stroke: #273339;
      }

      .cls-8, .cls-13, .cls-6 {
        fill: #273339;
      }

      .cls-9 {
        stroke-width: .75px;
      }

      .cls-9, .cls-10, .cls-2, .cls-12 {
        fill: none;
      }

      .cls-10 {
        stroke: #fff;
      }

      .cls-14 {
        clip-path: url(#clippath-1);
      }

      .cls-13 {
        stroke-miterlimit: 10;
      }

      .cls-3 {
        opacity: .5;
      }

      .cls-4, .cls-11 {
        fill: #e07084;
      }

      .cls-15 {
        clip-path: url(#clippath);
      }
    </style>
    <clipPath id="clippath">
      <path class="cls-2" d="m223.67,285.45s10.68-10.7,14.24-19.16c3.56-8.46-1.33-18.71-9.79-28.96-8.46-10.25-28.5-36.54-28.5-36.54,0,0-8.03-21.83-23.59-18.28-15.57,3.56-19.59,42.34-19.16,53.02s15.14,35.66,20.07,54.46c4.94,18.8-5.63,41.55-7.08,64.55,31.86,1.64,60.57-8.99,71.22-13.55-7.18-22.51-17.42-55.54-17.42-55.54Z"/>
    </clipPath>
    <clipPath id="clippath-1">
      <path class="cls-2" d="m180.48,192.76s-12.91-.45-17.36,11.15c-4.45,11.6,3.56,45.45,4.88,54.35,1.33,8.91,9.8,44.12,12.08,52.14,2.28,8.03,4.45,21.39,7.11,21.39s27.62,5.35,54.32,2.23,62.34-5.8,62.34-5.8l28.93.9c3.45-1.92-18.28-14.22-37.83-10.25-8.63,1.73-52.54-6.68-62.33-7.58-9.79-.9-22.77-5.77-22.77-5.77,0,0-11.13-58.37-11.13-63.28s-3.56-24.51-3.56-24.51"/>
    </clipPath>
  </defs>
  <g id="freepik--background-simple--inject-66">
    <path class="cls-4" d="m462.74,38.99s-89.98-55.21-193.21-13.25c-103.23,41.95-169.03,151.08-224.38,238C-10.21,350.66-1.79,451.17,63.15,508.43s123.79,1.7,224.95,17.34c101.16,15.64,125.79,36.46,219.02-10.32,93.22-46.78,131.18-191.22,82.26-312.39-48.92-121.17-126.64-164.07-126.64-164.07Z"/>
    <path class="cls-1" d="m462.74,38.99s-89.98-55.21-193.21-13.25c-103.23,41.95-169.03,151.08-224.38,238C-10.21,350.66-1.79,451.17,63.15,508.43s123.79,1.7,224.95,17.34c101.16,15.64,125.79,36.46,219.02-10.32,93.22-46.78,131.18-191.22,82.26-312.39-48.92-121.17-126.64-164.07-126.64-164.07Z"/>
    <rect class="cls-5" x="294.31" y="55.12" width="94.02" height="167.57"/>
    <rect class="cls-5" x="294.31" y="262.55" width="94.02" height="167.57"/>
    <rect class="cls-5" x="181.07" y="55.12" width="94.02" height="167.57"/>
    <rect class="cls-5" x="181.07" y="262.55" width="94.02" height="167.57"/>
    <rect class="cls-5" x="67.82" y="55.12" width="94.02" height="167.57"/>
    <rect class="cls-5" x="67.82" y="262.55" width="94.02" height="167.57"/>
  </g>
  <g id="freepik--Mirror--inject-66">
    <path class="cls-4" d="m468.47,68.2v283.07h130.33V68.2h-130.33Zm117.51,269.26h-104.7V82.11h104.74l-.03,255.35Z"/>
    <path class="cls-5" d="m495.17,71.39c0-5.31-4.32-9.61-9.63-9.6-5.31,0-9.61,4.32-9.6,9.63,0,5.3,4.31,9.6,9.61,9.6,5.31,0,9.61-4.3,9.61-9.61v-.02Z"/>
    <circle class="cls-5" cx="530.43" cy="71.39" r="9.61"/>
    <circle class="cls-5" cx="575.29" cy="71.39" r="9.61"/>
    <path class="cls-5" d="m495.17,343.83c0-5.31-4.3-9.61-9.61-9.61-5.31,0-9.61,4.3-9.61,9.61,0,5.31,4.3,9.61,9.61,9.61s9.61-4.3,9.61-9.61h0Z"/>
    <circle class="cls-5" cx="530.43" cy="343.83" r="9.61"/>
    <circle class="cls-5" cx="575.29" cy="343.83" r="9.61"/>
    <path class="cls-5" d="m599.82,106.65c0-5.31-4.3-9.61-9.61-9.61-5.31,0-9.61,4.3-9.61,9.61,0,5.31,4.3,9.61,9.61,9.61s9.61-4.3,9.61-9.61h0Z"/>
    <circle class="cls-5" cx="590.26" cy="154.72" r="9.61"/>
    <circle class="cls-5" cx="590.26" cy="202.81" r="9.61"/>
    <circle class="cls-5" cx="590.26" cy="250.88" r="9.61"/>
    <path class="cls-5" d="m599.82,298.95c0-5.31-4.32-9.61-9.63-9.6-5.31,0-9.61,4.32-9.6,9.63,0,5.3,4.31,9.6,9.61,9.6,5.31,0,9.61-4.32,9.61-9.63Z"/>
    <path class="cls-5" d="m484.49,106.65c0-5.31-4.3-9.61-9.61-9.61-5.31,0-9.61,4.3-9.61,9.61,0,5.31,4.3,9.61,9.61,9.61s9.61-4.3,9.61-9.61h0Z"/>
    <circle class="cls-5" cx="474.87" cy="154.72" r="9.61"/>
    <circle class="cls-5" cx="474.87" cy="202.81" r="9.61"/>
    <circle class="cls-5" cx="474.87" cy="250.88" r="9.61"/>
    <path class="cls-5" d="m484.49,298.95c0-5.31-4.32-9.61-9.63-9.6-5.31,0-9.61,4.32-9.6,9.63,0,5.3,4.31,9.6,9.61,9.6,5.31,0,9.61-4.3,9.61-9.61v-.02Z"/>
  </g>
  <g id="freepik--Plant--inject-66">
    <path class="cls-4" d="m91.35,487.24c-3.79,4.37-6.34,9.67-7.39,15.36l-14.84,8.34v-39.35l.28.41,23.65-17.26c2.99.47,14.46,1.73,24.92-3.87,12.08-6.54,21.01-28.95,21.01-28.95,0,0-28.95-3.26-38.75,8.87-5.37,6.3-8.24,14.36-8.04,22.65l-23.06,16.88v-29.1c8.74-4.08,15.19-11.86,17.57-21.21,4.19-16.35-18.21-48.55-18.21-48.55,0,0-23.35,33.14-18.68,49.95,2.22,9.16,8.88,16.6,17.74,19.8v63l-16.64-13.81c.38-3.31.67-13.7-8.63-24.16-11.2-12.6-41.08-11.67-41.08-11.67,0,0,12.6,25.22,23.34,33.62,9.39,7.34,22.33,4.35,25.46,3.45l17.5,14.6v19.14h-25.98l10.62,66.37h31.86l10.62-66.37h-25.49v-12.74l16.29-9.13c3.97,1.09,15.05,3.37,25.55-1.88,13.07-6.54,23.82-20.54,23.82-20.54,0,0-31.29-7.87-43.43,6.14Z"/>
    <path class="cls-3" d="m91.35,487.24c-3.79,4.37-6.34,9.67-7.39,15.36l-14.84,8.34v-39.35l.28.41,23.65-17.26c2.99.47,14.46,1.73,24.92-3.87,12.08-6.54,21.01-28.95,21.01-28.95,0,0-28.95-3.26-38.75,8.87-5.37,6.3-8.24,14.36-8.04,22.65l-23.06,16.88v-29.1c8.74-4.08,15.19-11.86,17.57-21.21,4.19-16.35-18.21-48.55-18.21-48.55,0,0-23.35,33.14-18.68,49.95,2.22,9.16,8.88,16.6,17.74,19.8v63l-16.64-13.81c.38-3.31.67-13.7-8.63-24.16-11.2-12.6-41.08-11.67-41.08-11.67,0,0,12.6,25.22,23.34,33.62,9.39,7.34,22.33,4.35,25.46,3.45l17.5,14.6v19.14h-25.98l10.62,66.37h31.86l10.62-66.37h-25.49v-12.74l16.29-9.13c3.97,1.09,15.05,3.37,25.55-1.88,13.07-6.54,23.82-20.54,23.82-20.54,0,0-31.29-7.87-43.43,6.14Z"/>
  </g>
  <g id="freepik--Characters--inject-66">
    <polygon class="cls-8" points="412.81 575.37 411.68 594.58 407.54 594.58 404.52 578.39 412.81 575.37"/>
    <path class="cls-8" d="m361.63,590.06s-3.45,2.64.38,3.76,17.26,0,21.47,0,9.79-8.63,15.81-12.08c6.02-3.45,15.07-5.26,16.95-6.78s.76-3.76-4.88-3.76-15.07,3.76-21.85,9.04c-6.07,4.26-13.02,7.09-20.33,8.28-2.56.28-5.08.8-7.54,1.54Z"/>
    <path class="cls-8" d="m422.59,587.42s.21,7.23,3.02,8.04c2.81.81,7.84,3.02,12.88-2.02,2.81-2.81,4.42-8.04,4.42-17.26.02-5.37-.25-10.74-.79-16.09-10.99,4.88-18.47,15.34-19.52,27.32Z"/>
    <path class="cls-7" d="m403.05,163.71s-20.71-2.26-30.9,1.88c-10.18,4.14-29,23.35-30.88,25.23-1.88,1.88-30.5,19.59-30.5,19.59l-30.14-41.05s0-13.19-7.53-18.83c-7.53-5.64-15.45-6.04-18.47-2.26-3.02,3.78-5.26,12.43-4.88,14.31s7.91,3.45,7.91,3.45c0,0,5.64,7.54,8.28,9.04,2.64,1.5,6.78,3.45,6.78,3.45,0,0,10.55,29.76,17.69,41.06,7.15,11.31,8.63,15.81,12.43,16.95,3.8,1.14,41.42-19.97,47.47-22.61s17.69-8.63,17.69-8.63c0,0-6.39,15.28-6.39,19.09s6.04,12.43,8.63,15.45c2.59,3.02,3.45,9.04,3.45,9.04,0,0-1.88,11.29-2.64,20.33s-12.08,17.26-15.83,48.21c-3.75,30.95-1.5,53.85,6.4,79.85,7.91,25.99,8.61,30.79,8.61,30.79,0,0,1.14,27.5,4.9,45.58,3.76,18.09,15.64,71.18,15.28,77.21-.36,6.02-17.54,29.34-21.68,32.38s-8.28,5.66-7.16,6.78,15.07.38,20.71-.76c5.64-1.14,10.17-10.17,16.93-13.17,6.77-3,12.81-3.45,12.81-9.04s-5.18-10.55-5.64-20.33c-.47-9.79-.76-65.14-.76-65.14,0,0,22.23,61.76,24.16,70.04,1.93,8.28-8.28,29.01-7.16,35.78,1.12,6.77,6.78,6.78,14.31,1.52,7.53-5.26,6.04-37.97,4.9-47.47-1.14-9.49-7.91-50.47-8.63-76.45-.72-25.98-10.93-40.68-10.93-40.68,0,0,22.61-51.23,25.61-72.3,2.8-22.33.45-45-6.89-66.28-4.3-11.8-5.6-24.48-3.78-36.9,0-2.64,14.31-26.75,18.47-46.71,4.16-19.95,3.76-24.16-2.64-32.02s-50.02-6.4-50.02-6.4Z"/>
    <path class="cls-8" d="m374,579.14s4.9,1.88,6.04,10.55c0,0,1.88.76,5.64-1.5,0,0,.9-11.63-6.02-15.07-2.65,1.12-4.71,3.31-5.66,6.02Z"/>
    <path class="cls-8" d="m424.11,580.28c5.29-1.71,11.07-1.02,15.81,1.88l1.5-6.02s-3.45-6.78-15.81-2.64l-1.5,6.78Z"/>
    <path class="cls-11" d="m403.05,163.71s-20.71-2.26-30.9,1.88c-10.18,4.14-29,23.35-30.88,25.23-1.88,1.88-30.5,19.59-30.5,19.59l-9.56-12.96c-1.97,3.23-4.49,6.08-7.44,8.44-2.66,1.67-5.57,2.89-8.63,3.61,1.52,3.42,3.25,6.75,5.18,9.96,7.16,11.29,8.63,15.81,12.43,16.95s41.42-19.97,47.47-22.61,17.69-8.63,17.69-8.63c0,0-6.28,15.41-6.28,19.23s6.04,12.43,8.63,15.45c2.59,3.02,3.45,9.04,3.45,9.04,0,0-1.88,11.29-2.64,20.33-.72,8.63-10.99,16.55-15.22,43.94,7.11,5.71,22.44,15.05,46.86,15.53,15.52.22,31-1.66,46.02-5.61-.91-12.72-3.46-25.27-7.59-37.33-4.3-11.8-5.6-24.48-3.78-36.9,0-2.64,14.31-26.75,18.45-46.71,4.14-19.95,3.78-24.16-2.62-32.02-6.4-7.85-50.12-6.42-50.12-6.42Z"/>
    <path class="cls-12" d="m392.13,237.07s4.94,10.7,25.53,13.17"/>
    <line class="cls-12" x1="367.98" y1="205.16" x2="363.1" y2="185.57"/>
    <line class="cls-12" x1="447.33" y1="223.47" x2="435.78" y2="209.06"/>
    <path class="cls-12" d="m257.63,165.98s2.26-1.5,1.88-6.78"/>
    <path class="cls-7" d="m276.81,154.79s-4.49-12.44-7.13-12.81c-2.64-.36-8.63,0-14.31,0s-2.64,2.62,1.12,3.76,10.18,2.26,10.18,2.26l2.62,1.5"/>
    <path class="cls-8" d="m447.31,311.27c-17.62,3.56-35.81,3.33-53.33-.67-12.05-2.66-23.87-6.24-35.37-10.72-1.6,5.74-2.75,11.59-3.45,17.5-3.76,30.88-1.5,53.85,6.4,79.85,7.91,25.99,8.7,30.84,8.7,30.84,0,0,1.14,27.5,4.9,45.58,2.26,10.89,7.89,42.31,12.77,62.38,5.18,1.55,10.13,1.55,18.18-1.83-.26-19.73-.45-52.64-.45-52.64,0,0,10.58,29.34,17.76,50.35,5.66.89,11.44.39,16.86-1.47-2.4-16.57-6.54-45.46-7.13-65.45-.74-25.99-10.93-40.68-10.93-40.68,0,0,22.61-51.23,25.61-72.3,1.77-13.53,1.59-27.25-.54-40.73Z"/>
    <path class="cls-10" d="m401.52,472.17c1.14,3.45,1.86,5.66,1.86,5.66"/>
    <path class="cls-10" d="m395.86,331.69s-9.41,84.37-5.64,101.32c2.07,9.37,5.89,22.09,8.89,31.59"/>
    <path class="cls-10" d="m442.54,314.85s1.73,32.38-6.13,61.27c-5.3,18.32-13.9,35.52-25.37,50.75,0,0,6.99,2.64,3.45,5.26-3.54,2.62,2.62,3.45,2.62,3.45,0,0,6.13,5.26,8.75,19.26,2.62,14,8.75,48.14,8.75,48.14"/>
    <line class="cls-10" x1="395.13" y1="335.66" x2="381.27" y2="324.44"/>
    <path class="cls-7" d="m402.64,146.4c-.52,6.72-1.53,13.39-3.04,19.95-2.26,9.04-10.17,28.62-9.03,34.28,1.14,5.66,16.93-4.14,26.36-15.45s11.31-19.21,10.55-25.61c-.76-6.4-6.4-20.33-13.57-20.33s-11.27,7.16-11.27,7.16Z"/>
    <path class="cls-8" d="m414.31,143.38s.38,16.57,8.63,21.09,25.23,4.9,31.26,10.55c6.02,5.64,16.57,39.16,17.71,36.25s0-18.47-6.4-31.64c-6.4-13.17-12.08-15.07-8.28-28.26s3.11-45.34-5.28-65.16c-4.63-10.96-36.52-16.57-48.21-12.08-6.76,2.53-12.72,6.82-17.26,12.43,0,0-11.69-2.26-11.69,5.28s9.79,16.95,16.95,16.95,6.78-18.09,13.19-10.55c6.4,7.54,4.13,35.71,9.39,45.14Z"/>
    <path class="cls-10" d="m422.14,91.39c2.01,4.94,3.08,10.21,3.14,15.53.91,19.83-2.31,38.3,4.61,47.05,6.92,8.75,18.04,8.28,26.77,14.72"/>
    <path class="cls-10" d="m416.05,84.26c1.14.49,2.14,1.24,2.93,2.19"/>
    <path class="cls-10" d="m433.59,81.04s5.54,10.6,5.54,29.53-6.46,35.99-1.85,43.36c3.19,4.71,7.68,8.39,12.91,10.62"/>
    <path class="cls-8" d="m394.42,141.55s.74,13.55-5.28,21.83c-6.02,8.28-15.07,15.83-10.93,25.61,4.14,9.79,5.66,10.55,6.04,6.02s-1.52-8.63,8.63-15.81c10.15-7.18,11.31-25.61,11.69-33.52.38-7.91-8.34-7.96-10.15-4.14Z"/>
    <path class="cls-7" d="m402.64,89.15s-10.55,6.78-12.43,13.55c-1.88,6.77-2.64,23.73-1.14,31.26,1.5,7.53,5.28,15.07,12.81,15.83,7.53.76,12.43-6.4,12.43-6.4,0,0-1.88-27.5-1.88-38.42s-9.79-15.81-9.79-15.81Z"/>
    <path class="cls-11" d="m441.42,203.69l19.97,48.97s-1.14,3.76-23.73,6.4c-22.59,2.64-36.52.38-40.3-.38s-10.55-9.79-15.05-10.55c-4.38-.49-8.79-.62-13.19-.38-3.45,0-3.76,2.26-2.26,3.76,1.3,1.04,2.87,1.69,4.52,1.9l.74,1.5s-8.63-.76-9.41,1.88,2.64,4.9,4.14,5.18,4.52,6.4,6.78,8.28,8.28,1.9,15.81,1.9c4.68-.02,9.35-.53,13.93-1.52,0,0,23.35,3.78,45.96,5.28,22.61,1.5,41.8-4.14,43.69-6.4,1.88-2.26-16.57-49.35-21.09-58.37s-9.04-33.52-16.57-38.42c-7.53-4.9-15.83-.76-15.83-.76"/>
    <path class="cls-12" d="m461.39,252.6s8.85-6.21,18.83,1.73"/>
    <path class="cls-7" d="m366.81,262.01c1.5.38,4.52,6.4,6.78,8.28s8.28,1.9,15.81,1.9c4.68-.02,9.35-.53,13.93-1.52,0,0,23.35,3.78,45.96,5.28,2.14.14,4.25.21,6.32.22.17-.67.33-1.36.45-2.11,1.1-6.12-.34-12.43-3.99-17.47-4.77,1.08-9.6,1.88-14.46,2.4-22.59,2.64-36.52.38-40.3-.38s-10.55-9.79-15.05-10.55c-4.38-.49-8.79-.62-13.19-.38-3.45,0-3.76,2.26-2.26,3.76,1.3,1.04,2.87,1.69,4.52,1.9l.74,1.5s-8.63-.76-9.41,1.88,2.69,4.9,4.14,5.26Z"/>
    <path class="cls-6" d="m369.56,244.33l5.83-1.53h0l2.36,9.02c.38,1.47-.49,2.97-1.96,3.35l-.53.14c-1.47.38-2.97-.49-3.35-1.96l-2.36-9.02h.02Z"/>
    <line class="cls-12" x1="372.12" y1="254.87" x2="382.67" y2="252.98"/>
    <path class="cls-11" d="m231.68,340.25s41.42-10.68,80.59-12.08c39.16-1.4,53.51,4.02,57.43,12.48s-1.73,23.16-17.36,31.19c-15.64,8.03-84.14,14.26-110.86,6.68-26.72-7.58-19.64-32.02-9.79-38.27Z"/>
    <path class="cls-7" d="m156.71,421.89s1.73,74.53-4.13,116.52c-4.35,30.81-10.65,48.5-10.05,51.47.6,2.97,6.49,2.36,10.63.59s14.19-53.84,17.14-101.15c2.95-47.31,1.17-67.44,1.17-67.44h-14.77Z"/>
    <path class="cls-8" d="m160.27,421.89s1.73,74.53-4.14,116.52c-4.33,30.81-10.63,48.5-10.05,51.47s6.51,2.36,10.63.59,14.19-53.84,17.14-101.15c2.95-47.31,1.19-67.44,1.19-67.44h-14.77Z"/>
    <path class="cls-7" d="m291.36,421.89s-1.73,74.53,4.14,116.52c4.33,30.81,10.63,48.5,10.05,51.47-.59,2.97-6.51,2.36-10.63.59-4.13-1.78-14.19-53.84-17.14-101.15-2.95-47.31-1.19-67.44-1.19-67.44h14.77Z"/>
    <path class="cls-8" d="m294.92,421.89s-1.73,74.53,4.13,116.52c4.35,30.81,10.65,48.5,10.05,51.47s-6.49,2.36-10.63.59-14.19-53.84-17.14-101.15-1.17-67.44-1.17-67.44h14.77Z"/>
    <path class="cls-7" d="m177.41,421.89s1.73,74.53-4.14,116.52c-4.33,30.81-10.63,48.5-10.05,51.47s6.51,2.36,10.63.59c4.13-1.78,14.19-53.84,17.14-101.15,2.95-47.31,1.19-67.44,1.19-67.44h-14.77Z"/>
    <path class="cls-8" d="m180.95,421.89s1.73,74.53-4.13,116.52c-4.35,30.81-10.65,48.5-10.06,51.47s6.51,2.36,10.65.59,14.19-53.84,17.14-101.15c2.95-47.31,1.17-67.44,1.17-67.44h-14.77Z"/>
    <path class="cls-11" d="m199.62,200.79s20.02,26.29,28.5,36.54,13.34,20.49,9.79,28.96c-3.56,8.47-14.24,19.16-14.24,19.16,0,0,20.02,64.61,23.59,74.41,3.57,9.8.88,29.86-4.45,36.09-5.33,6.23-27.17,14.26-48.09,9.8-20.92-4.45-26.27-27.62-24.94-50.8,1.33-23.18,12.08-46.34,7.13-65.05-4.95-18.71-19.59-43.67-20.04-54.37-.45-10.7,3.57-49.45,19.16-53.02,15.59-3.57,23.59,18.28,23.59,18.28Z"/>
    <path class="cls-5" d="m223.67,285.45s10.68-10.7,14.24-19.16c3.56-8.46-1.33-18.71-9.79-28.96-8.46-10.25-28.5-36.54-28.5-36.54,0,0-8.03-21.83-23.59-18.28-15.57,3.56-19.59,42.34-19.16,53.02s15.14,35.66,20.07,54.46c4.94,18.8-5.63,41.55-7.08,64.55,31.86,1.64,60.57-8.99,71.22-13.55-7.18-22.51-17.42-55.54-17.42-55.54Z"/>
    <g class="cls-15">
      <g>
        <path class="cls-4" d="m208.01,292.99c0-8.63,9.32-15.78,10.77-27.96,1.45-12.19-20.8-33-20.8-33,0,0-26.55-19.45-38.99-18.8-1.41,7.35-2.11,14.82-2.07,22.3.45,10.7,15.14,35.66,20.04,54.37,4.9,18.71-5.63,41.55-7.08,64.55,17.29.66,34.56-1.52,51.14-6.46-1.33-11.32-13.01-47.41-13.01-55.01Z"/>
        <path class="cls-3" d="m208.01,292.99c0-8.63,9.32-15.78,10.77-27.96,1.45-12.19-20.8-33-20.8-33,0,0-26.55-19.45-38.99-18.8-1.41,7.35-2.11,14.82-2.07,22.3.45,10.7,15.14,35.66,20.04,54.37,4.9,18.71-5.63,41.55-7.08,64.55,17.29.66,34.56-1.52,51.14-6.46-1.33-11.32-13.01-47.41-13.01-55.01Z"/>
      </g>
    </g>
    <path class="cls-12" d="m223.67,285.45s10.68-10.7,14.24-19.16c3.56-8.46-1.33-18.71-9.79-28.96-8.46-10.25-28.5-36.54-28.5-36.54,0,0-8.03-21.83-23.59-18.28-15.57,3.56-19.59,42.34-19.16,53.02s15.14,35.66,20.07,54.46c4.94,18.8-5.63,41.55-7.08,64.55,31.86,1.64,60.57-8.99,71.22-13.55-7.18-22.51-17.42-55.54-17.42-55.54Z"/>
    <line class="cls-12" x1="198.73" y1="242.23" x2="201.87" y2="219.45"/>
    <path class="cls-7" d="m215.64,100.13s7.13,10.7,10.25,16.93c3.12,6.23.43,8.47.88,11.15.45,2.68,8.03,7.58,8.03,10.68s-3.12,6.25-3.12,6.25c0,4.78-.44,9.56-1.33,14.26-1.35,5.35-3.57,8.46-6.25,8.46s-14.24-3.56-17.36.45-8.89,27.62-8.89,29.34,9.79,14.71,9.79,14.71c0,0-2.68-1.73-12.08-11.58s-16.93-13.38-13.81-19.61-.9-28.96-4.45-40.99c-3.56-12.03,7.13-23.61,12.91-28.51s20.11-11.53,25.44-11.53Z"/>
    <path class="cls-5" d="m180.48,192.76s-12.91-.45-17.36,11.15c-4.45,11.6,3.56,45.45,4.88,54.35,1.33,8.91,9.8,44.12,12.08,52.14,2.28,8.03,4.45,21.39,7.11,21.39s27.62,5.35,54.32,2.23,62.34-5.8,62.34-5.8l28.93.9c3.45-1.92-18.28-14.22-37.83-10.25-8.63,1.73-52.54-6.68-62.33-7.58-9.79-.9-22.77-5.77-22.77-5.77,0,0-11.13-58.37-11.13-63.28s-3.56-24.51-3.56-24.51"/>
    <g class="cls-14">
      <g>
        <path class="cls-4" d="m194.34,314.52c-6.46-6.46-17.26-71.01-17.93-92.52-.54-16.16,3.76-23.41,5.95-26.03l-1.88-3.21s-12.91-.45-17.36,11.15c-4.45,11.6,3.56,45.45,4.88,54.35,1.33,8.91,9.8,44.12,12.08,52.14,2.28,8.03,4.45,21.39,7.11,21.39s27.62,5.35,54.32,2.23c14.58-1.73,31.79-3.28,44.45-4.35l.22-.1s-85.39-8.51-91.84-15.05Z"/>
        <path class="cls-3" d="m194.34,314.52c-6.46-6.46-17.26-71.01-17.93-92.52-.54-16.16,3.76-23.41,5.95-26.03l-1.88-3.21s-12.91-.45-17.36,11.15c-4.45,11.6,3.56,45.45,4.88,54.35,1.33,8.91,9.8,44.12,12.08,52.14,2.28,8.03,4.45,21.39,7.11,21.39s27.62,5.35,54.32,2.23c14.58-1.73,31.79-3.28,44.45-4.35l.22-.1s-85.39-8.51-91.84-15.05Z"/>
      </g>
    </g>
    <path class="cls-12" d="m180.48,192.76s-12.91-.45-17.36,11.15c-4.45,11.6,3.56,45.45,4.88,54.35,1.33,8.91,9.8,44.12,12.08,52.14,2.28,8.03,4.45,21.39,7.11,21.39s27.62,5.35,54.32,2.23,62.34-5.8,62.34-5.8l28.93.9c3.45-1.92-18.28-14.22-37.83-10.25-8.63,1.73-52.54-6.68-62.33-7.58-9.79-.9-22.77-5.77-22.77-5.77,0,0-11.13-58.37-11.13-63.28s-3.56-24.51-3.56-24.51"/>
    <path class="cls-7" d="m294.9,318.87c-4.61.38-9.24.2-13.81-.52,1.28,3.78,1.38,7.86.29,11.7,12.86-1.1,22.44-1.83,22.44-1.83l28.93.9c3.4-1.92-18.3-14.22-37.85-10.25Z"/>
    <path class="cls-11" d="m191.17,362.09s35.16-11.58,88.15-12.91c52.99-1.33,84.58,20.49,84.58,29.84s-26.27,94.93-34.73,113.18c-1.73,3.62-9.8,28.98-10.24,34.31s3.11,23.18,6.23,35.66c3.12,12.48,9.79,16.93,7.56,19.16s-4.88,2.23-11.56-1.73-14.71-16.48-18.71-22.27-11.13-14.71-16.92-21.83c-5.78-7.13,4-12.93,8.46-16.05s12.46-9.36,14.69-18.71c2.23-9.36,8.47-79.76,10.25-90.01,1.51-7.82,3.44-15.55,5.78-23.16,0,0-52.54,11.58-85.92,16.03s-35.63,6.68-58.32-4.9"/>
    <path class="cls-9" d="m193.55,394.99s7.59,3.8,36.07,0c28.48-3.8,72.18-16.16,83.57-19.95s.95,2.85,7.61,2.85h14.24s-2.85-.95-.95,4.75,10.44,4.75,7.59,7.61-20.89,57.98-26.58,77.93"/>
    <path class="cls-7" d="m332.73,581.33c2.23-2.23-4.45-6.7-7.56-19.16s-6.7-30.31-6.23-35.71c.28-3.37,3.59-14.65,6.44-23.46-8.73-1.16-13.31-5.18-15.66-8.63-.4,2.93-.74,5.18-1.04,6.32-2.23,9.36-10.24,15.53-14.69,18.71-4.45,3.18-14.24,8.92-8.46,16.05s12.91,16.03,16.92,21.83c4,5.8,12.08,18.26,18.71,22.27,6.63,4,9.39,4,11.56,1.78Z"/>
    <path class="cls-7" d="m319.13,531.19c-1.91-.1-3.77.64-5.09,2.02-1.74,1.68-3.38,3.46-4.9,5.33-4.65-1.8-8.56-5.09-11.13-9.36-1.55-2.9-3.18-6.4-4.54-9.44-4.63,3.19-13.5,8.82-7.92,15.69,5.78,7.13,12.91,16.03,16.92,21.83,4,5.8,12.08,18.26,18.71,22.27,6.63,4,9.34,4.02,11.56,1.73s-4.45-6.7-7.56-19.16c-2.62-10.18-4.63-20.5-6.04-30.91Z"/>
    <path class="cls-11" d="m341.19,350.51s0,30.74,7.13,46.79c7.13,16.05,33.85,57.93,36.95,70.77,3.11,12.84-1.73,25.89-3.11,32.54-1.38,6.65-2.23,11.13,5.33,12.08,7.56.95,17.36,6.68,23.59,12.93,6.23,6.25,17.81,8.91,22.71,8.91s6.68-2.68-9.36-18.26c-4.99-4.87-14.69-22.28-18.26-27.19s-11.56-48.57-16.47-69.96c-4.9-21.39-13.36-61.93-16.02-70.44-2.66-8.51-5.33-13.81-15.53-16.05"/>
    <path class="cls-7" d="m424.46,516.27c-4.99-4.87-14.69-22.28-18.26-27.19-1.59-2.21-4.11-12.27-6.82-24.61-4.28,2.45-9.1,3.83-14.03,4,2.95,12.81-1.86,25.56-3.18,32.19-1.31,6.63-2.23,11.13,5.33,12.08,7.56.95,17.36,6.68,23.59,12.93,6.23,6.25,17.81,8.91,22.71,8.91s6.68-2.73-9.36-18.31Z"/>
    <path class="cls-7" d="m433.81,534.54c4.88,0,6.68-2.68-9.36-18.26-4.49-4.37-13.72-19.68-17.14-25.46-1.36.56-2.53,1.51-3.35,2.73-1.59,2.38-2.93,4.92-4,7.58-5.29-3.26-10.41-6.79-15.34-10.58-.91,4.06-1.95,7.56-2.45,10.13-1.35,6.68-2.23,11.13,5.33,12.08,7.56.95,17.36,6.68,23.59,12.93,6.23,6.25,17.85,8.85,22.71,8.85Z"/>
    <path class="cls-7" d="m312.06,421.89s-1.73,74.53,4.13,116.52c4.35,30.81,10.65,48.5,10.05,51.47-.6,2.97-6.49,2.36-10.63.59s-14.19-53.84-17.14-101.15c-2.95-47.31-1.17-67.44-1.17-67.44h14.77Z"/>
    <path class="cls-8" d="m315.6,421.89s-1.73,74.53,4.14,116.52c4.33,30.81,10.63,48.5,10.05,51.47s-6.51,2.36-10.63.59-14.19-53.84-17.14-101.15-1.19-67.44-1.19-67.44h14.77Z"/>
    <path class="cls-8" d="m148.91,233.39s23.73,64.64,9.49,172.05h22.78s6.65-117.87-10.44-173.95l-21.83,1.9Z"/>
    <path class="cls-7" d="m142.99,233.39s23.75,64.64,9.49,172.05h22.73s6.65-117.87-10.36-173.95l-21.87,1.9Z"/>
    <rect class="cls-7" x="151.9" y="401.63" width="174.61" height="26.62"/>
    <rect class="cls-8" x="181.55" y="401.63" width="144.95" height="26.62"/>
    <path class="cls-8" d="m220.82,92.58s-7.01,24.16-13.38,33.78c-4.07,5.92-9.55,10.74-15.93,14.03,0,0,5.73,20.4,4.45,38.27-1.28,17.86-14.02,16.57-27.39,38.89-13.38,22.32-3.81,63.12-9.56,73.96-5.75,10.84-33.49-18.99-41.42-46.6-7.09-24.67,12.95-42.82,33.14-70.77,12.08-16.67-7.01-47.83-2.55-60.57,4.45-12.74,24.84-23.59,41.42-28.07s30.59,1.97,31.22,7.08Z"/>
    <path class="cls-10" d="m139.32,222.02c-8.04,8.04-14.07,17.59-10.11,30.98,6.9,23.3,24.65,33.57,28.76,15.07"/>
    <path class="cls-10" d="m205.2,89.2s1.38,23.99-10.96,41.8c-12.34,17.81-17.8,23.3-15.05,42.49,1.38,9.72-10.36,19.87-21.92,32.21-3.12,3.31-7.09,6.58-11.08,10.03"/>
    <path class="cls-10" d="m184.5,107.76c1.66,5.53,2.17,11.35,1.52,17.09-2.05,19.87-13,17.81-15.05,29.46-2.05,11.65,2.73,21.94-.69,29.48s-34.92,18.5-47.26,35.63"/>
    <path class="cls-10" d="m177.13,94.69c1.46,1.5,2.73,3.18,3.78,4.99"/>
    <path class="cls-7" d="m199.62,141.55s-6.23-12.91-10.25-8.01c-4.02,4.9,1.73,16.93,4.9,19.61,1.41,1.28,3.59,1.18,4.88-.23.18-.2.34-.43.47-.67,0,0,1.73,8.46,5.78,11.13"/>
    <path class="cls-7" d="m238.2,145.83l31.17,6.2c2.02.4,3.98-.92,4.38-2.94,0-.04.02-.08.02-.12h0c.32-2.03-1.07-3.94-3.1-4.26-.05,0-.09-.01-.14-.02l-31.74-3.66-.59,4.8Z"/>
    <path class="cls-13" d="m238.2,145.83c-2.67,1.23-5.5,2.07-8.41,2.49-2.97,0-4.66-2.49-3.88-7.4s3.68-4.47,5.4-4.37,7.47,4.49,7.47,4.49l-.59,4.8Z"/>
    <path class="cls-7" d="m270.44,154.31s-4.14-2.26-8.63-4.9-10.93-4.52-9.79.38,8.28,6.02,10.55,9.41,5.64,11.69,13.17,13.19"/>
  </g>
  <g id="freepik--Floor--inject-66">
    <rect class="cls-6" x="30.23" y="590.32" width="543.13" height="10.36"/>
  </g>
</svg>