<svg width="176" height="160" viewBox="0 0 176 160" fill="none" xmlns="http://www.w3.org/2000/svg">
<path d="M82.5331 41.8997C69.1216 35.9392 51.2401 47.8602 46.7695 62.7619C42.2989 77.6633 49.7499 102.996 69.1216 111.937C88.4936 120.878 106.375 108.956 98.9247 98.5255C73.5922 95.5451 57.2006 68.7224 64.6513 55.3112C72.102 41.9 95.9443 47.8602 82.5331 41.8997Z" fill="#EE98A7"/>
<path d="M115.316 85.1139C131.708 71.7028 122.767 41.8997 109.356 38.9193C95.9446 35.9388 89.9838 43.3899 100.415 52.3304C113.826 62.7615 97.4345 83.6234 87.0037 82.1335C87.0037 82.1335 98.9247 98.5251 115.316 85.1139Z" fill="#EE98A7"/>
<path d="M87.0034 33.2554C101.905 27.2949 112.336 29.9784 121.277 38.9193C125.747 25.5081 110.846 3.15573 84.023 0.175317C57.2003 -2.80509 31.8682 32.9588 43.7891 50.8406C46.7695 44.8798 64.6513 28.7851 87.0034 33.2554Z" fill="#EE98A7"/>
<path d="M37.8287 76.1731C12.4962 82.1335 9.8767 106.965 15.4766 122.367C21.4371 138.759 16.9668 150.68 24.4175 153.66C31.4724 156.484 55.7104 158.131 76.5726 159.621C97.4348 161.111 113.826 143.229 107.866 122.367C48.2598 132.798 37.8287 89.5842 37.8287 76.1731Z" fill="#EE98A7"/>
<path d="M32.1179 72.9423C32.1179 72.9423 32.863 63.2563 35.8434 58.0409C34.3532 56.5507 32.863 50.5902 32.863 50.5902C32.863 50.5902 31.3728 43.8846 31.3728 38.6693C20.1966 36.434 0.824598 50.5902 0.0798375 52.8255C-0.665265 55.0608 3.80501 80.3933 13.491 81.1384C23.9224 72.9423 32.1179 72.9423 32.1179 72.9423Z" fill="#EE98A7"/>
<path d="M167.471 52.3305C154.06 24.0176 128.727 29.9784 128.727 29.9784C128.727 29.9784 130.218 37.4291 127.237 41.8994C142.139 58.291 131.707 92.0666 118.794 96.0425C163.498 115.414 173.432 76.1727 174.922 70.2123C176.412 64.2518 170.452 59.7815 167.471 52.3305Z" fill="#EE98A7"/>
<path d="M155.352 105.88C147.703 111.299 126.047 109.853 113.628 103.395C114.123 108.36 109.158 116.311 106.675 116.806C116.113 120.781 125.054 138.165 109.16 156.545C115.618 163.001 141.943 158.035 157.343 148.099C159.849 146.483 163.798 130.217 164.793 120.781C166.112 108.284 167.276 97.4338 155.352 105.88Z" fill="#EE98A7"/>
<path d="M87.9985 65.2442C81.5232 67.0108 77.5852 63.0992 80.0501 58.789C82.0381 55.3109 81.8516 51.7109 77.0697 54.3184C67.1336 60.2789 73.0972 77.1655 85.5159 75.6753C102.402 69.7148 94.9515 54.3184 90.4812 54.8131C86.0109 55.3078 93.4616 63.754 87.9985 65.2442Z" fill="#EE98A7"/>
</svg>
