<svg width="742" height="163" viewBox="0 0 742 163" fill="none" xmlns="http://www.w3.org/2000/svg">
<path d="M82.5331 41.8997C69.1216 35.9392 51.2401 47.8602 46.7695 62.7619C42.2989 77.6633 49.7499 102.996 69.1216 111.937C88.4936 120.878 106.375 108.956 98.9247 98.5255C73.5922 95.5451 57.2006 68.7224 64.6513 55.3112C72.102 41.9 95.9443 47.8602 82.5331 41.8997Z" fill="#EE98A7"/>
<path d="M115.316 85.1139C131.708 71.7028 122.767 41.8997 109.356 38.9193C95.9446 35.9388 89.9838 43.3899 100.415 52.3304C113.826 62.7615 97.4345 83.6234 87.0037 82.1335C87.0037 82.1335 98.9247 98.5251 115.316 85.1139Z" fill="#EE98A7"/>
<path d="M87.0034 33.2554C101.905 27.2949 112.336 29.9784 121.277 38.9193C125.747 25.5081 110.846 3.15573 84.023 0.175317C57.2003 -2.80509 31.8682 32.9588 43.7891 50.8406C46.7695 44.8798 64.6513 28.7851 87.0034 33.2554Z" fill="#EE98A7"/>
<path d="M37.8287 76.1731C12.4962 82.1335 9.8767 106.965 15.4766 122.367C21.4371 138.759 16.9668 150.68 24.4175 153.66C31.4724 156.484 55.7104 158.131 76.5726 159.621C97.4348 161.111 113.826 143.229 107.866 122.367C48.2598 132.798 37.8287 89.5842 37.8287 76.1731Z" fill="#EE98A7"/>
<path d="M32.1179 72.9423C32.1179 72.9423 32.863 63.2563 35.8434 58.0409C34.3532 56.5507 32.863 50.5902 32.863 50.5902C32.863 50.5902 31.3728 43.8846 31.3728 38.6693C20.1966 36.434 0.824598 50.5902 0.0798375 52.8255C-0.665265 55.0608 3.80501 80.3933 13.491 81.1384C23.9224 72.9423 32.1179 72.9423 32.1179 72.9423Z" fill="#EE98A7"/>
<path d="M167.471 52.3305C154.06 24.0176 128.727 29.9784 128.727 29.9784C128.727 29.9784 130.218 37.4291 127.237 41.8994C142.139 58.291 131.707 92.0666 118.794 96.0425C163.498 115.414 173.432 76.1727 174.922 70.2123C176.412 64.2518 170.452 59.7815 167.471 52.3305Z" fill="#EE98A7"/>
<path d="M155.352 105.88C147.703 111.299 126.047 109.853 113.628 103.395C114.123 108.36 109.158 116.311 106.675 116.806C116.113 120.781 125.054 138.165 109.16 156.545C115.618 163 141.943 158.035 157.343 148.099C159.849 146.483 163.798 130.217 164.793 120.781C166.112 108.284 167.276 97.4338 155.352 105.88Z" fill="#EE98A7"/>
<path d="M87.9986 65.2442C81.5232 67.0108 77.5852 63.0992 80.0501 58.789C82.0381 55.3109 81.8516 51.7109 77.0697 54.3184C67.1336 60.2789 73.0972 77.1655 85.5159 75.6753C102.402 69.7148 94.9515 54.3184 90.4812 54.8131C86.0109 55.3078 93.4616 63.754 87.9986 65.2442Z" fill="#EE98A7"/>
<path d="M230.624 63.248L231.264 59.92C230.923 55.312 227.808 53.008 221.92 53.008C218.507 53.008 215.52 54.2453 212.96 56.72C210.485 59.1093 209.248 61.6693 209.248 64.4C209.248 67.0453 210.357 69.392 212.576 71.44C214.88 73.4027 217.611 75.1947 220.768 76.816C224.011 78.352 227.211 80.0587 230.368 81.936C233.611 83.728 236.341 86.0747 238.56 88.976C240.864 91.8773 242.016 95.1627 242.016 98.832C242.016 106.427 239.029 112.4 233.056 116.752C227.083 121.104 220.64 123.28 213.728 123.28C206.816 123.28 201.056 122.043 196.448 119.568C191.84 117.008 189.536 113.168 189.536 108.048C189.536 105.317 190.475 102.843 192.352 100.624C194.229 98.4053 196.917 97.296 200.416 97.296C201.781 97.296 203.019 97.68 204.128 98.448C205.237 99.216 205.92 100.24 206.176 101.52C206.176 102.8 205.408 103.44 203.872 103.44C200.971 103.44 199.52 104.677 199.52 107.152C199.605 109.968 200.928 112.528 203.488 114.832C206.133 117.136 209.803 118.288 214.496 118.288C219.275 118.288 223.328 116.667 226.656 113.424C230.069 110.181 231.776 106.256 231.776 101.648C231.776 98.576 230.624 95.8027 228.32 93.328C226.016 90.8533 223.243 88.7627 220 87.056C216.757 85.264 213.472 83.472 210.144 81.68C206.901 79.888 204.128 77.712 201.824 75.152C199.52 72.592 198.368 69.6907 198.368 66.448C198.368 60.7307 200.8 56.1653 205.664 52.752C210.613 49.3387 216.203 47.632 222.432 47.632C226.613 47.632 230.411 48.4853 233.824 50.192C237.237 51.8987 238.987 54.5013 239.072 58C239.072 60.048 238.56 61.7547 237.536 63.12C236.512 64.4853 235.104 65.168 233.312 65.168C231.605 65.168 230.709 64.528 230.624 63.248ZM264.866 122.64C260.087 122.64 256.29 120.848 253.474 117.264C250.658 113.595 249.25 109.456 249.25 104.848C249.25 95.5467 251.213 88.5067 255.138 83.728C259.063 78.9493 264.141 76.56 270.37 76.56C273.271 76.56 275.661 77.3707 277.538 78.992C279.415 80.528 280.354 82.6613 280.354 85.392C280.354 90.512 278.178 94.8213 273.826 98.32C269.559 101.733 264.311 103.525 258.082 103.696C258.423 107.024 259.533 109.925 261.41 112.4C263.373 114.789 265.634 115.984 268.194 115.984C270.754 115.984 273.058 115.387 275.106 114.192C277.154 112.997 279.031 111.291 280.738 109.072C284.322 104.379 287.394 99.0453 289.954 93.072C290.637 91.536 291.149 90.4267 291.49 89.744C291.917 89.0613 292.343 88.72 292.77 88.72C293.282 88.72 293.538 89.0613 293.538 89.744C293.538 94.0107 290.935 100.411 285.73 108.944C280.098 118.075 273.143 122.64 264.866 122.64ZM258.082 100.624C263.117 99.7707 266.786 98.1493 269.09 95.76C271.479 93.3707 272.674 90.256 272.674 86.416C272.674 82.576 271.437 80.656 268.962 80.656C265.975 80.656 263.458 82.7467 261.41 86.928C259.362 91.024 258.253 95.5893 258.082 100.624ZM297.886 88.592L304.926 87.824C305.609 87.824 306.206 88.208 306.718 88.976C307.23 89.744 307.486 90.5547 307.486 91.408C307.486 92.2613 307.187 95.1627 306.59 100.112C306.078 105.061 305.822 108.987 305.822 111.888C305.822 114.704 306.078 116.112 306.59 116.112C308.041 116.027 310.046 114.235 312.606 110.736C315.166 107.152 317.683 102.587 320.158 97.04C322.718 91.4933 324.254 88.72 324.766 88.72C325.363 88.72 325.662 89.0613 325.662 89.744C325.662 92.1333 324.425 95.9307 321.95 101.136C315.209 115.472 309.534 122.64 304.926 122.64C301.598 122.64 299.081 121.957 297.374 120.592C296.777 119.995 296.478 116.283 296.478 109.456C296.478 102.629 297.203 96.784 298.654 91.92C293.705 91.92 290.249 90.3413 288.286 87.184C287.262 85.5627 286.75 83.728 286.75 81.68C286.75 79.632 287.177 77.84 288.03 76.304C288.883 74.768 290.078 74 291.614 74C293.235 74 294.686 74.8533 295.966 76.56C297.331 78.1813 298.014 80.016 298.014 82.064C298.014 84.112 297.417 86.16 296.222 88.208C296.563 88.464 297.118 88.592 297.886 88.592ZM334.991 122.64C330.212 122.64 326.415 120.848 323.599 117.264C320.783 113.595 319.375 109.456 319.375 104.848C319.375 95.5467 321.338 88.5067 325.263 83.728C329.188 78.9493 334.266 76.56 340.495 76.56C343.396 76.56 345.786 77.3707 347.663 78.992C349.54 80.528 350.479 82.6613 350.479 85.392C350.479 90.512 348.303 94.8213 343.951 98.32C339.684 101.733 334.436 103.525 328.207 103.696C328.548 107.024 329.658 109.925 331.535 112.4C333.498 114.789 335.759 115.984 338.319 115.984C340.879 115.984 343.183 115.387 345.231 114.192C347.279 112.997 349.156 111.291 350.863 109.072C354.447 104.379 357.519 99.0453 360.079 93.072C360.762 91.536 361.274 90.4267 361.615 89.744C362.042 89.0613 362.468 88.72 362.895 88.72C363.407 88.72 363.663 89.0613 363.663 89.744C363.663 94.0107 361.06 100.411 355.855 108.944C350.223 118.075 343.268 122.64 334.991 122.64ZM328.207 100.624C333.242 99.7707 336.911 98.1493 339.215 95.76C341.604 93.3707 342.799 90.256 342.799 86.416C342.799 82.576 341.562 80.656 339.087 80.656C336.1 80.656 333.583 82.7467 331.535 86.928C329.487 91.024 328.378 95.5893 328.207 100.624ZM366.859 115.088L366.987 119.056C366.987 121.445 366.304 122.64 364.939 122.64C362.891 122.64 360.928 122.384 359.051 121.872C357.174 121.275 356.235 120.507 356.235 119.568C356.235 118.544 356.448 115.173 356.875 109.456C357.387 103.653 357.643 99.3013 357.643 96.4V88.848C357.643 84.752 358.07 82.2773 358.923 81.424C359.776 80.5707 361.27 79.3333 363.403 77.712C365.622 76.0907 367.2 75.28 368.139 75.28C369.163 75.28 369.803 75.4507 370.059 75.792C370.315 76.1333 370.443 76.7733 370.443 77.712C370.443 82.2347 369.59 86.5013 367.883 90.512C367.456 95.376 367.243 98.7467 367.243 100.624C367.584 100.112 369.376 97.2107 372.619 91.92C375.862 86.6293 378.592 82.7467 380.811 80.272C383.115 77.7973 385.163 76.56 386.955 76.56C388.747 76.56 390.326 77.1573 391.691 78.352C393.142 79.5467 393.867 81.04 393.867 82.832C393.867 86.5867 393.44 92.1333 392.587 99.472C391.819 106.725 391.435 111.333 391.435 113.296C391.435 115.173 391.691 116.112 392.203 116.112C393.654 116.027 395.659 114.235 398.219 110.736C400.779 107.152 403.296 102.587 405.771 97.04C408.331 91.4933 409.867 88.72 410.379 88.72C410.976 88.72 411.275 89.0613 411.275 89.744C411.275 92.1333 410.038 95.9307 407.563 101.136C400.822 115.472 395.147 122.64 390.539 122.64C387.211 122.64 384.694 121.957 382.987 120.592C382.39 119.995 382.091 118.459 382.091 115.984C382.091 113.424 382.304 109.328 382.731 103.696C383.243 97.9787 383.499 93.712 383.499 90.896C383.499 88.08 382.987 86.672 381.963 86.672C381.024 86.672 378.464 89.616 374.283 95.504C370.102 101.307 367.883 105.019 367.627 106.64C367.115 109.627 366.859 112.443 366.859 115.088ZM409.111 59.408C409.111 57.872 409.922 56.5493 411.543 55.44C413.164 54.3307 414.615 53.776 415.895 53.776C418.199 53.776 419.351 55.0987 419.351 57.744C419.351 60.3893 418.668 62.6933 417.303 64.656C415.938 66.5333 414.018 67.472 411.543 67.472C409.922 67.472 409.111 64.784 409.111 59.408ZM412.823 122.64C409.495 122.64 406.978 121.957 405.271 120.592C404.674 119.995 404.375 117.861 404.375 114.192C404.375 110.523 404.631 104.421 405.143 95.888C405.74 87.2693 406.252 82.6187 406.679 81.936C407.106 81.2533 408.428 79.9733 410.647 78.096C412.866 76.2187 414.572 75.28 415.767 75.28C417.047 75.28 417.687 76.9013 417.687 80.144C417.687 80.9973 417.431 82.6613 416.919 85.136C416.492 87.6107 415.98 89.4027 415.383 90.512C414.274 93.328 413.719 100.709 413.719 112.656C413.719 114.96 413.975 116.112 414.487 116.112C415.938 116.027 417.943 114.235 420.503 110.736C423.063 107.152 425.58 102.587 428.055 97.04C430.615 91.4933 432.151 88.72 432.663 88.72C433.26 88.72 433.559 89.0613 433.559 89.744C433.559 92.1333 432.322 95.9307 429.847 101.136C423.106 115.472 417.431 122.64 412.823 122.64ZM455.422 101.136C448.681 115.472 442.963 122.64 438.27 122.64C433.662 122.64 430.931 122.085 430.078 120.976C429.31 119.867 428.926 116.197 428.926 109.968C428.926 103.739 429.523 94.736 430.718 82.96C426.451 82.1067 424.19 80.3573 423.934 77.712C423.934 76.3467 424.83 75.664 426.622 75.664C428.414 75.664 429.993 76.0053 431.358 76.688C432.126 70.544 433.022 64.3147 434.046 58C434.302 56.3787 435.113 54.8427 436.478 53.392C437.843 51.9413 439.166 51.216 440.446 51.216C441.555 51.216 442.11 52.9653 442.11 56.464C442.11 58.0853 441.513 65.552 440.318 78.864C442.622 78.4373 445.139 77.584 447.87 76.304C450.686 75.024 452.35 74.384 452.862 74.384C454.398 74.384 455.166 74.8533 455.166 75.792C455.251 76.6453 453.673 77.84 450.43 79.376C447.187 80.8267 443.689 81.936 439.934 82.704C438.91 95.1627 438.398 104.592 438.398 110.992C438.398 114.405 438.91 116.112 439.934 116.112C441.47 116.027 443.518 114.235 446.078 110.736C448.638 107.237 451.155 102.715 453.63 97.168C456.19 91.536 457.726 88.72 458.238 88.72C458.835 88.72 459.134 89.0613 459.134 89.744C459.134 92.1333 457.897 95.9307 455.422 101.136ZM452.5 110.864L453.268 96.528C453.268 87.3973 453.695 82.4053 454.548 81.552C455.401 80.6987 456.895 79.4613 459.028 77.84C461.247 76.1333 462.825 75.28 463.764 75.28C464.788 75.28 465.428 75.4507 465.684 75.792C465.94 76.1333 466.068 76.816 466.068 77.84C466.068 81.5093 465.257 85.2213 463.636 88.976C462.356 96.8267 461.716 103.269 461.716 108.304C461.716 113.339 462.313 115.856 463.508 115.856C465.556 115.856 467.903 114.064 470.548 110.48C473.279 106.811 476.052 101.435 478.868 94.352C478.953 92.4747 479.039 90.512 479.124 88.464C479.209 86.3307 479.295 84.7947 479.38 83.856C479.465 82.832 479.508 82.1067 479.508 81.68C479.593 81.2533 480.788 80.1013 483.092 78.224C485.396 76.2613 487.145 75.28 488.34 75.28C489.62 75.28 490.26 76.9013 490.26 80.144C490.26 80.9973 490.004 82.6613 489.492 85.136C489.065 87.6107 488.553 89.4027 487.956 90.512C487.273 96.5707 486.804 101.861 486.548 106.384C494.911 95.8027 499.348 90.2133 499.86 89.616C500.457 89.0187 500.969 88.72 501.396 88.72C502.249 88.72 502.676 89.1467 502.676 90C502.676 90.512 502.505 91.0667 502.164 91.664C499.433 95.6747 494.057 102.715 486.036 112.784C485.524 122.939 485.183 129.851 485.012 133.52C484.585 144.357 483.049 151.952 480.404 156.304C477.844 160.741 473.236 162.96 466.58 162.96C463.679 162.96 460.948 162.064 458.388 160.272C455.913 158.565 454.676 155.536 454.676 151.184C454.676 146.917 456.297 142.523 459.54 138C462.868 133.477 468.884 126.523 477.588 117.136L478.356 103.184C475.455 109.584 472.596 114.448 469.78 117.776C466.964 121.019 463.849 122.64 460.436 122.64C457.023 122.64 454.847 121.787 453.908 120.08C452.969 118.373 452.5 115.301 452.5 110.864ZM477.204 123.152C467.476 133.648 462.612 142.053 462.612 148.368C462.612 151.269 463.124 153.659 464.148 155.536C465.172 157.413 466.58 158.352 468.372 158.352C471.103 158.352 473.023 156.859 474.132 153.872C475.241 150.885 476.052 144.827 476.564 135.696L477.204 123.152Z" fill="#4B4B4B"/>
<path d="M550.624 63.248L551.264 59.92C550.923 55.312 547.808 53.008 541.92 53.008C538.507 53.008 535.52 54.2453 532.96 56.72C530.485 59.1093 529.248 61.6693 529.248 64.4C529.248 67.0453 530.357 69.392 532.576 71.44C534.88 73.4027 537.611 75.1947 540.768 76.816C544.011 78.352 547.211 80.0587 550.368 81.936C553.611 83.728 556.341 86.0747 558.56 88.976C560.864 91.8773 562.016 95.1627 562.016 98.832C562.016 106.427 559.029 112.4 553.056 116.752C547.083 121.104 540.64 123.28 533.728 123.28C526.816 123.28 521.056 122.043 516.448 119.568C511.84 117.008 509.536 113.168 509.536 108.048C509.536 105.317 510.475 102.843 512.352 100.624C514.229 98.4053 516.917 97.296 520.416 97.296C521.781 97.296 523.019 97.68 524.128 98.448C525.237 99.216 525.92 100.24 526.176 101.52C526.176 102.8 525.408 103.44 523.872 103.44C520.971 103.44 519.52 104.677 519.52 107.152C519.605 109.968 520.928 112.528 523.488 114.832C526.133 117.136 529.803 118.288 534.496 118.288C539.275 118.288 543.328 116.667 546.656 113.424C550.069 110.181 551.776 106.256 551.776 101.648C551.776 98.576 550.624 95.8027 548.32 93.328C546.016 90.8533 543.243 88.7627 540 87.056C536.757 85.264 533.472 83.472 530.144 81.68C526.901 79.888 524.128 77.712 521.824 75.152C519.52 72.592 518.368 69.6907 518.368 66.448C518.368 60.7307 520.8 56.1653 525.664 52.752C530.613 49.3387 536.203 47.632 542.432 47.632C546.613 47.632 550.411 48.4853 553.824 50.192C557.237 51.8987 558.987 54.5013 559.072 58C559.072 60.048 558.56 61.7547 557.536 63.12C556.512 64.4853 555.104 65.168 553.312 65.168C551.605 65.168 550.709 64.528 550.624 63.248ZM605.218 122.64C601.89 122.64 599.373 121.957 597.666 120.592C597.069 119.995 596.77 118.501 596.77 116.112C596.77 113.637 596.855 110.352 597.026 106.256C594.807 111.803 592.589 115.941 590.37 118.672C588.237 121.317 585.463 122.64 582.05 122.64C578.637 122.64 575.65 121.061 573.09 117.904C570.53 114.661 569.25 109.627 569.25 102.8C569.25 95.888 571.17 89.7867 575.01 84.496C578.935 79.2053 584.055 76.56 590.37 76.56C593.101 76.56 596.173 78.352 599.586 81.936C600.269 80.9973 601.463 79.888 603.17 78.608C604.962 77.2427 606.455 76.56 607.65 76.56C608.93 76.56 609.57 78.1813 609.57 81.424C609.57 82.2773 609.314 83.9413 608.802 86.416C608.375 88.8907 607.863 90.6827 607.266 91.792C606.498 93.7547 606.114 100.709 606.114 112.656C606.114 114.96 606.37 116.112 606.882 116.112C608.333 116.027 610.338 114.235 612.898 110.736C615.458 107.152 617.975 102.587 620.45 97.04C623.01 91.4933 624.546 88.72 625.058 88.72C625.655 88.72 625.954 89.0613 625.954 89.744C625.954 92.1333 624.717 95.9307 622.242 101.136C615.501 115.472 609.826 122.64 605.218 122.64ZM589.602 81.68C587.213 81.68 584.653 83.472 581.922 87.056C579.277 90.5547 577.954 94.6933 577.954 99.472C577.954 104.251 578.637 108.176 580.002 111.248C581.453 114.32 583.33 115.856 585.634 115.856C588.45 115.856 592.589 108.816 598.05 94.736C598.135 94.0533 598.221 92.9013 598.306 91.28C598.477 89.5733 598.605 88.2933 598.69 87.44C597.922 86.0747 596.557 84.7947 594.594 83.6C592.717 82.32 591.053 81.68 589.602 81.68ZM627.594 122.64C625.717 122.64 623.967 122.427 622.346 122C620.81 121.488 619.871 121.019 619.53 120.592C618.677 119.568 618.25 114.277 618.25 104.72C618.25 95.0773 619.317 82.0213 621.45 65.552C623.242 51.984 627.423 45.2 633.994 45.2C635.53 45.2 636.639 46.0533 637.322 47.76C638.005 49.3813 638.346 50.96 638.346 52.496C638.346 63.5893 634.975 76.0053 628.234 89.744C627.978 96.8267 627.85 103.013 627.85 108.304C627.85 113.509 628.319 116.112 629.258 116.112C630.709 116.027 632.714 114.235 635.274 110.736C637.834 107.152 640.351 102.587 642.826 97.04C645.386 91.4933 646.922 88.72 647.434 88.72C648.031 88.72 648.33 89.0613 648.33 89.744C648.33 92.1333 647.093 95.9307 644.618 101.136C637.877 115.472 632.202 122.64 627.594 122.64ZM635.146 53.648C635.146 50.9173 634.805 49.552 634.122 49.552C631.562 49.552 629.685 60.176 628.49 81.424C632.927 69.7333 635.146 60.4747 635.146 53.648ZM680.689 94.224C684.102 93.1147 686.449 92.176 687.729 91.408C689.094 90.5547 690.118 89.9147 690.801 89.488L692.337 88.592C692.764 88.336 693.105 88.208 693.361 88.208C694.044 88.208 694.385 88.592 694.385 89.36C694.385 90.128 693.062 91.4933 690.417 93.456C687.772 95.3333 684.486 97.04 680.561 98.576C679.964 105.744 677.702 111.547 673.777 115.984C669.852 120.421 664.262 122.64 657.009 122.64C651.718 122.64 647.665 120.549 644.849 116.368C642.033 112.101 640.625 107.152 640.625 101.52C640.625 95.8027 642.289 90.4267 645.617 85.392C649.03 80.3573 653.382 77.84 658.673 77.84C661.062 76.1333 663.878 75.28 667.121 75.28C670.449 75.28 673.521 77.0293 676.337 80.528C679.153 84.0267 680.604 88.592 680.689 94.224ZM672.369 100.752L667.761 101.008C663.836 101.008 660.508 99.856 657.777 97.552C655.046 95.1627 653.681 92.56 653.681 89.744C653.681 86.928 654.15 84.496 655.089 82.448C651.42 85.3493 649.585 91.0667 649.585 99.6C649.585 103.696 650.438 107.621 652.145 111.376C653.852 115.045 656.54 116.88 660.209 116.88C663.878 116.88 666.737 115.344 668.785 112.272C670.833 109.115 672.028 105.275 672.369 100.752ZM664.433 79.504C663.068 79.504 662.001 80.144 661.233 81.424C660.465 82.6187 660.081 83.9413 660.081 85.392C660.081 88.5493 661.148 91.1093 663.281 93.072C665.5 95.0347 668.06 96.016 670.961 96.016H672.497C672.326 91.8347 671.601 88.0373 670.321 84.624C669.126 81.2107 667.164 79.504 664.433 79.504ZM697.234 115.088L697.362 119.056C697.362 121.445 696.679 122.64 695.314 122.64C693.266 122.64 691.303 122.384 689.426 121.872C687.549 121.275 686.61 120.507 686.61 119.568C686.61 118.544 686.823 115.173 687.25 109.456C687.762 103.653 688.018 99.3013 688.018 96.4V88.848C688.018 84.752 688.445 82.2773 689.298 81.424C690.151 80.5707 691.645 79.3333 693.778 77.712C695.997 76.0907 697.575 75.28 698.514 75.28C699.538 75.28 700.178 75.4507 700.434 75.792C700.69 76.1333 700.818 76.7733 700.818 77.712C700.818 82.2347 699.965 86.5013 698.258 90.512C697.831 95.376 697.618 98.7467 697.618 100.624C697.959 100.112 699.751 97.2107 702.994 91.92C706.237 86.6293 708.967 82.7467 711.186 80.272C713.49 77.7973 715.538 76.56 717.33 76.56C719.122 76.56 720.701 77.1573 722.066 78.352C723.517 79.5467 724.242 81.04 724.242 82.832C724.242 86.5867 723.815 92.1333 722.962 99.472C722.194 106.725 721.81 111.333 721.81 113.296C721.81 115.173 722.066 116.112 722.578 116.112C724.029 116.027 726.034 114.235 728.594 110.736C731.154 107.152 733.671 102.587 736.146 97.04C738.706 91.4933 740.242 88.72 740.754 88.72C741.351 88.72 741.65 89.0613 741.65 89.744C741.65 92.1333 740.413 95.9307 737.938 101.136C731.197 115.472 725.522 122.64 720.914 122.64C717.586 122.64 715.069 121.957 713.362 120.592C712.765 119.995 712.466 118.459 712.466 115.984C712.466 113.424 712.679 109.328 713.106 103.696C713.618 97.9787 713.874 93.712 713.874 90.896C713.874 88.08 713.362 86.672 712.338 86.672C711.399 86.672 708.839 89.616 704.658 95.504C700.477 101.307 698.258 105.019 698.002 106.64C697.49 109.627 697.234 112.443 697.234 115.088Z" fill="#4B4B4B"/>
</svg>
